<?xml version="1.0" encoding="UTF-8" standalone="no"?>
<svg width="37px" height="47px" viewBox="0 0 37 47" version="1.1" xmlns="http://www.w3.org/2000/svg" xmlns:xlink="http://www.w3.org/1999/xlink">
    <!-- Generator: Sketch 40 (33762) - http://www.bohemiancoding.com/sketch -->
    <title>地址</title>
    <desc>Created with Sketch.</desc>
    <defs></defs>
    <g id="Page-1" stroke="none" stroke-width="1" fill="none" fill-rule="evenodd">
        <g id="外卖下单" transform="translate(-46.000000, -3626.000000)">
            <g id="收货信息-copy" transform="translate(0.000000, 3559.000000)">
                <g id="地址" transform="translate(30.000000, 56.000000)">
                    <rect id="Rectangle-2" x="0" y="0" width="68" height="68"></rect>
                    <path d="M34.4296789,11 C24.2512199,11 16,19.3373813 16,29.6221264 C16,39.9071384 30.4428306,55.6470747 30.4428306,55.6470747 C32.6446878,58.2441468 36.2482645,58.257917 38.4286234,55.6332511 C38.4286234,55.6332511 52.8593579,39.9070851 52.8593579,29.6221264 C52.8593579,19.3373814 44.6083492,11 34.4296789,11 L34.4296789,11 L34.4296789,11 L34.4296789,11 Z M34.4296789,37.6417789 C29.7204461,37.6417789 25.9040522,33.7851062 25.9040522,29.0271253 C25.9040522,24.2691978 29.7204989,20.4124718 34.4296789,20.4124718 C39.1384892,20.4124718 42.9550944,24.2691978 42.9550944,29.0271253 C42.9550944,33.7851063 39.1384892,37.6417789 34.4296789,37.6417789 L34.4296789,37.6417789 L34.4296789,37.6417789 L34.4296789,37.6417789 Z" id="Shape" fill="#FF7E28"></path>
                </g>
            </g>
        </g>
    </g>
</svg>