<?xml version="1.0" encoding="UTF-8" standalone="no"?>
<svg width="28px" height="29px" viewBox="0 0 28 29" version="1.1" xmlns="http://www.w3.org/2000/svg" xmlns:xlink="http://www.w3.org/1999/xlink">
    <!-- Generator: Sketch 40 (33762) - http://www.bohemiancoding.com/sketch -->
    <title>广播</title>
    <desc>Created with Sketch.</desc>
    <defs></defs>
    <g id="Page-1" stroke="none" stroke-width="1" fill="none" fill-rule="evenodd">
        <g id="个人中心_会员充值" transform="translate(-25.000000, -158.000000)">
            <g id="ad" transform="translate(0.000000, 128.000000)">
                <g id="广播" transform="translate(17.000000, 22.000000)">
                    <rect id="Rectangle-2" x="0" y="0" width="44" height="44"></rect>
                    <path d="M23.5573814,34.3026729 C23.5573814,37.3294116 21.2522575,35.7667849 21.2522575,35.7667849 L11.270484,27.3092698 L9.72886661,27.3092698 C8.77365371,27.3092698 8,26.5157077 8,25.5367679 L8,18.4484316 C8,17.4693007 8.77365371,16.6761684 9.72886661,16.6761684 L11.5727666,16.6761684 L21.2522575,8.40646658 C21.2522575,8.40646658 23.557571,6.83113747 23.557571,9.88308989 L23.557571,34.3028638 L23.5573814,34.3028638 L23.5573814,34.3026729 L23.5573814,34.3026729 Z M28.7428433,26.7181334 C31.624177,24.3554502 31.4319016,19.8756304 28.7428433,17.8574862 C27.6868695,17.2178326 27.0145456,19.3344438 27.0145456,19.3344438 C27.0145456,19.3344438 29.7032246,22.7310785 27.0145456,25.2415101 C26.4860846,25.9307315 27.4946415,27.3583123 28.7428433,26.7181334 L28.7428433,26.7181334 L28.7428433,26.7181334 L28.7428433,26.7181334 Z M30.1835101,12.8366708 C29.7993386,12.4917975 27.9269411,13.7719643 29.0312326,14.9038575 C34.7449659,19.7774976 34.840748,24.3554501 29.0312326,29.3764565 C28.1666334,30.2132352 29.3188634,31.7889463 30.1835101,31.4436432 C38.1056368,27.7515119 37.7702099,16.2823481 30.1835101,12.8366708 L30.1835101,12.8366708 L30.1835101,12.8366708 L30.1835101,12.8366708 Z" id="Shape" fill="#FF9243"></path>
                </g>
            </g>
        </g>
    </g>
</svg>