<?xml version="1.0" encoding="UTF-8" standalone="no"?>
<svg width="236px" height="275px" viewBox="0 0 236 275" version="1.1" xmlns="http://www.w3.org/2000/svg" xmlns:xlink="http://www.w3.org/1999/xlink">
    <!-- Generator: Sketch 40 (33762) - http://www.bohemiancoding.com/sketch -->
    <title>已入场</title>
    <desc>Created with Sketch.</desc>
    <defs>
        <rect id="path-1" x="0" y="0" width="238" height="284" rx="8"></rect>
    </defs>
    <g id="Page-1" stroke="none" stroke-width="1" fill="none" fill-rule="evenodd" opacity="0.5">
        <g id="排队_已入场" transform="translate(-484.000000, -582.000000)">
            <g id="已入场" transform="translate(482.000000, 577.000000)">
                <mask id="mask-2" fill="white">
                    <use xlink:href="#path-1"></use>
                </mask>
                <g id="Mask"></g>
                <g id="印章" mask="url(#mask-2)">
                    <g transform="translate(139.741846, 142.470159) rotate(-30.000000) translate(-139.741846, -142.470159) translate(5.241846, 7.970159)">
                        <ellipse id="Oval-7-Copy" stroke="#999999" stroke-width="6" fill="none" opacity="0.6" cx="134.159236" cy="134.21281" rx="134.159236" ry="134.21281"></ellipse>
                        <ellipse id="Oval-7-Copy-2" stroke="#999999" stroke-width="4" fill="none" opacity="0.6" cx="134.538217" cy="134.591942" rx="115.589172" ry="115.635331"></ellipse>
                        <path d="M56.8750324,118.984716 L56.8750324,158.968716 C57.0110324,163.184716 59.5950324,166.788716 65.1710324,166.788716 L95.4990324,166.788716 C99.9870324,166.788716 102.639032,162.912716 102.503032,157.132716 L99.7830324,157.132716 L97.8790324,146.660716 L94.2070324,157.132716 L66.1230324,157.132716 L66.1230324,130.952716 L84.8230324,130.952716 L84.8230324,136.460716 L94.4110324,136.460716 L94.4110324,106.336716 L84.8230324,106.336716 L84.8230324,108.104716 L55.6510324,108.104716 L55.6510324,109.464716 L84.8230324,109.464716 L84.8230324,129.592716 L66.1230324,129.592716 L66.1230324,118.984716 L56.8750324,118.984716 Z M131.131032,100.488716 C131.267032,107.968716 131.947032,115.040716 133.171032,121.772716 L110.323032,167.060716 C121.407032,159.036716 130.927032,147.136716 137.183032,137.004716 C140.855032,147.748716 146.227032,157.472716 153.299032,166.040716 L162.139032,157.608716 C148.063032,139.452716 136.231032,116.536716 131.131032,100.488716 L131.131032,100.488716 Z M168.327032,120.344716 L174.175032,120.344716 L174.175032,145.232716 L167.851032,147.068716 L173.087032,157.268716 L189.339032,142.104716 L182.267032,162.436716 C190.495032,155.704716 198.995032,140.200716 202.803032,128.368716 L203.211032,128.368716 C199.539032,141.764716 193.623032,155.976716 187.367032,167.332716 C199.063032,160.396716 206.951032,147.612716 210.283032,133.196716 L210.283032,158.832716 L201.851032,158.832716 L209.875032,163.796716 L209.875032,168.148716 C216.199032,167.944716 218.783032,164.816716 218.783032,160.124716 L218.783032,125.988716 L210.283032,125.988716 L210.283032,127.212716 L196.071032,127.212716 L213.343032,106.336716 L206.747032,100.896716 L203.007032,105.384716 L187.027032,105.384716 L187.027032,106.540716 L202.055032,106.540716 L184.715032,127.552716 L191.311032,132.992716 L193.419032,130.408716 L189.815032,140.676716 L182.199032,142.920716 L182.199032,120.344716 L187.979032,120.344716 L187.979032,119.188716 L182.199032,119.188716 L182.199032,101.916716 L174.175032,101.916716 L174.175032,119.188716 L168.327032,119.188716 L168.327032,120.344716 Z" id="已入场" stroke="none" fill="#999999" fill-rule="evenodd" opacity="0.6"></path>
                        <rect id="Rectangle-6-Copy-2" stroke="none" fill-opacity="0.6" fill="#999999" fill-rule="evenodd" x="50.0254777" y="89.4752066" width="169.025478" height="1.51652893" rx="0.758264463"></rect>
                        <rect id="Rectangle-6-Copy-3" stroke="none" fill-opacity="0.6" fill="#999999" fill-rule="evenodd" x="50.0254777" y="178.950413" width="169.025478" height="1.51652893" rx="0.758264463"></rect>
                    </g>
                </g>
            </g>
        </g>
    </g>
</svg>