<?xml version="1.0" encoding="UTF-8" standalone="no"?>
<svg width="88px" height="88px" viewBox="0 0 88 88" version="1.1" xmlns="http://www.w3.org/2000/svg" xmlns:xlink="http://www.w3.org/1999/xlink">
    <!-- Generator: Sketch 40 (33762) - http://www.bohemiancoding.com/sketch -->
    <title>Group 3</title>
    <desc>Created with Sketch.</desc>
    <defs>
        <ellipse id="path-1" cx="44" cy="44" rx="30" ry="30"></ellipse>
        <mask id="mask-2" maskContentUnits="userSpaceOnUse" maskUnits="objectBoundingBox" x="0" y="0" width="60" height="60" fill="white">
            <use xlink:href="#path-1"></use>
        </mask>
    </defs>
    <g id="Page-1" stroke="none" stroke-width="1" fill="none" fill-rule="evenodd">
        <g id="支付页" transform="translate(-30.000000, -1412.000000)">
            <g id="Group-3" transform="translate(30.000000, 1412.000000)">
                <rect id="Rectangle-Copy-2" fill="#CCCCCC" x="0" y="0" width="88" height="88" rx="16"></rect>
                <use id="Oval" stroke="#FFFFFF" mask="url(#mask-2)" stroke-width="6" xlink:href="#path-1"></use>
                <path d="M53.6344086,47.6931262 C54.9318997,47.6931262 55.9928316,48.7663782 55.9928316,50.0789363 C55.9928316,51.3914944 54.9318997,52.4647464 53.6344086,52.4647464 L46.3512545,52.4647464 L46.3512545,58.6141899 C46.3512545,59.926748 45.2903226,61 43.9928315,61 C42.6953405,61 41.6344086,59.926748 41.6344086,58.6141899 L41.6344086,52.4647464 L34.3584229,52.4647464 C33.0609319,52.4647464 32,51.3914944 32,50.0789363 C32,48.7663782 33.0609319,47.6931262 34.3584229,47.6931262 L41.6415771,47.6931262 L41.6415771,44.1687989 L34.3584229,44.1687989 C33.0609319,44.1687989 32,43.0955469 32,41.7829888 C32,40.4704307 33.0609319,39.3971787 34.3584229,39.3971787 L39.5913978,39.3971787 L33.2616488,31.9279254 C32.4229391,30.9344421 32.5376344,29.4188364 33.5197132,28.5703872 L33.5197132,28.5703872 C34.5017921,27.7146863 36,27.8379653 36.8387097,28.8314484 L44,37.2724299 L51.1612904,28.8314484 C52.0071685,27.8379652 53.4982079,27.721938 54.4802868,28.5703872 L54.4802868,28.5703872 C55.4623657,29.426088 55.577061,30.9344421 54.7383513,31.9279254 L48.4086022,39.3971788 L53.6415771,39.3971788 C54.9390681,39.3971788 56,40.4704307 56,41.7829888 C56,43.095547 54.9390681,44.1687989 53.6415771,44.1687989 L46.3512545,44.1687989 L46.3512545,47.6931262 L53.6344086,47.6931262 L53.6344086,47.6931262 L53.6344086,47.6931262 Z" id="Shape" fill="#FFFFFF"></path>
            </g>
        </g>
    </g>
</svg>