<?xml version="1.0" encoding="UTF-8" standalone="no"?>
<svg width="36px" height="36px" viewBox="0 0 36 36" version="1.1" xmlns="http://www.w3.org/2000/svg" xmlns:xlink="http://www.w3.org/1999/xlink">
    <!-- Generator: Sketch 40 (33762) - http://www.bohemiancoding.com/sketch -->
    <title>绑定手机</title>
    <desc>Created with Sketch.</desc>
    <defs></defs>
    <g id="Page-1" stroke="none" stroke-width="1" fill="none" fill-rule="evenodd">
        <g id="个人中心_会员卡_会员等级2" transform="translate(-97.000000, -1222.000000)">
            <g id="绑定手机" transform="translate(93.000000, 1218.000000)">
                <rect id="Rectangle-8-Copy-6" x="0" y="0" width="44" height="44"></rect>
                <path d="M21.1139306,21.5412074 C21.1606635,21.6835899 21.1872928,21.8285023 21.190661,21.9756959 C21.1912925,21.9781843 21.191924,21.9806313 21.1925556,21.9831198 C21.1900294,21.3513364 21.0977214,21.2778848 21.1139306,21.5412074 L21.1139306,21.5412074 Z M22,4 C12.0588986,4 4,12.0588986 4,22 C4,31.9411014 12.0588986,40 22,40 C31.9411014,40 40,31.9411014 40,22 C40,12.0588986 31.9411014,4 22,4 L22,4 Z M27.76693,29.1617401 C25.2536898,29.1617401 22.9245594,27.8728604 21.8531326,25.7564038 C21.1653189,24.3924465 20.8089918,22.9277929 20.7674795,21.4534142 C20.4671689,19.132564 18.5243189,17.3410919 16.1706257,17.3410919 C13.6088711,17.3410919 11.5319816,19.4627723 11.5319816,22.0800432 C11.5319816,24.6971473 13.6088155,26.8188278 16.1706257,26.8188278 C17.5455306,26.8188278 18.7551091,26.1843631 19.6041925,25.2134105 C19.7953044,25.851265 20.1076741,26.5268529 20.5679208,27.1720984 C19.3615655,28.2860932 17.8022729,29.0019708 16.0459223,29.0019708 C12.2582511,29.0019708 9.18784678,25.8671586 9.18784678,22.0000196 C9.18784678,18.1329918 12.2582511,14.9982352 16.0459223,14.9982352 C18.5191507,14.9982352 20.6678391,16.3471324 21.8743056,18.3515006 C22.1204336,18.8749881 23.0089175,20.0607818 23.1035009,22.0800432 C23.2368736,24.9283821 25.1802237,26.8188278 27.7419782,26.8188278 C30.3038995,26.8188278 32.3806223,24.6971473 32.3806223,22.0800432 C32.3806223,19.4627723 30.3038995,17.3410919 27.7419782,17.3410919 C26.2577078,17.3410919 24.9576026,18.0723072 24.1090749,19.1810227 C23.786591,18.0235706 23.6258771,17.8567993 23.0856068,16.8866802 C24.3194703,15.7250604 25.9520066,14.9982352 27.7669301,14.9982352 C31.609673,14.9982352 34.7247571,18.1687801 34.7247571,22.0800432 C34.7247571,25.9910284 31.609673,29.1617401 27.76693,29.1617401 L27.76693,29.1617401 Z" id="Shape" fill="#4BC643"></path>
            </g>
        </g>
    </g>
</svg>