<?xml version="1.0" encoding="UTF-8" standalone="no"?>
<svg width="38px" height="32px" viewBox="0 0 38 32" version="1.1" xmlns="http://www.w3.org/2000/svg" xmlns:xlink="http://www.w3.org/1999/xlink">
    <!-- Generator: Sketch 40 (33762) - http://www.bohemiancoding.com/sketch -->
    <title>绑定微信</title>
    <desc>Created with Sketch.</desc>
    <defs></defs>
    <g id="Page-1" stroke="none" stroke-width="1" fill="none" fill-rule="evenodd">
        <g id="个人中心" transform="translate(-33.000000, -1402.000000)">
            <g id="绑定微信" transform="translate(30.000000, 1396.000000)">
                <rect id="Rectangle-8-Copy-5" x="0" y="0" width="44" height="44"></rect>
                <path d="M28.7891591,15.5308688 C29.22614,15.5308688 29.6585766,15.5626268 30.0873199,15.6113428 C28.9206293,10.0970719 23.1128864,6 16.4831759,6 C9.0711068,6 3,11.1272564 3,17.6389022 C3,21.3989186 5.01986782,24.484007 8.39532071,26.8786168 L7.04677936,30.9954534 L11.7602638,28.5966217 C13.4467579,28.9349242 14.8000708,29.2838557 16.4831027,29.2838557 C16.9062272,29.2838557 17.32562,29.26241 17.7418548,29.229319 C17.4785294,28.3148847 17.3256585,27.3566561 17.3256585,26.3615485 C17.3257317,20.3825217 22.3841741,15.5308688 28.7891591,15.5308688 L28.7891591,15.5308688 Z M21.4444041,11.5422448 C22.5956632,11.5422448 23.5288901,12.4895747 23.5288901,13.6582059 C23.5288901,14.8268372 22.5956593,15.7741279 21.4444041,15.7741279 C20.2930679,15.7741279 19.359841,14.8267981 19.359841,13.6582059 C19.359841,12.4896138 20.293145,11.5422448 21.4444041,11.5422448 L21.4444041,11.5422448 Z M12.0106956,15.8167886 C10.8594365,15.8167886 9.92613254,14.8694587 9.92613254,13.7008666 C9.92613254,12.5322744 10.8594404,11.5849446 12.0106956,11.5849446 C13.1620318,11.5849446 14.0952972,12.5322744 14.0952972,13.7008666 C14.0952972,14.8694196 13.1620318,15.8167886 12.0106956,15.8167886 L12.0106956,15.8167886 Z M41,26.2416624 C41,20.7699701 35.6060272,16.309753 29.5475406,16.309753 C23.1322037,16.309753 18.0796881,20.7699701 18.0796881,26.2416624 C18.0796881,31.7228071 23.1322037,36.1732982 29.5475406,36.1732982 C30.890078,36.1732982 32.2445462,35.8292923 33.5930876,35.4861815 L37.2915585,37.5423716 L36.2772766,34.1221431 C38.9837908,32.0611878 41,29.3282716 41,26.2416624 L41,26.2416624 Z M26.0243773,24.7077712 C25.2045317,24.7077712 24.5399794,24.0330777 24.5399794,23.2009508 C24.5399794,22.3687456 25.2045702,21.6942086 26.0243773,21.6942086 C26.8441844,21.6942086 27.5087752,22.3687847 27.5087752,23.2009508 C27.5088561,24.0331168 26.8441882,24.7077712 26.0243773,24.7077712 L26.0243773,24.7077712 Z M33.4365234,24.7932449 C32.6166008,24.7932449 31.952087,24.1185906 31.952087,23.2865027 C31.952087,22.4542585 32.6166393,21.7797605 33.4365234,21.7797605 C34.2563305,21.7797605 34.9209213,22.4542976 34.9209213,23.2865027 C34.9209637,24.1185906 34.2563344,24.7932449 33.4365234,24.7932449 L33.4365234,24.7932449 Z" id="Shape" fill="#4BC643"></path>
            </g>
        </g>
    </g>
</svg>