<?xml version="1.0" encoding="UTF-8" standalone="no"?>
<svg width="236px" height="275px" viewBox="0 0 236 275" version="1.1" xmlns="http://www.w3.org/2000/svg" xmlns:xlink="http://www.w3.org/1999/xlink">
    <!-- Generator: Sketch 40 (33762) - http://www.bohemiancoding.com/sketch -->
    <title>未到店</title>
    <desc>Created with Sketch.</desc>
    <defs>
        <rect id="path-1" x="0" y="0" width="238" height="284" rx="8"></rect>
    </defs>
    <g id="Page-1" stroke="none" stroke-width="1" fill="none" fill-rule="evenodd" opacity="0.5">
        <g id="预订_预定详情" transform="translate(-422.000000, -2130.000000)">
            <g id="未到店" transform="translate(420.000000, 2125.000000)">
                <g>
                    <mask id="mask-2" fill="white">
                        <use xlink:href="#path-1"></use>
                    </mask>
                    <g id="Mask"></g>
                    <g id="印章" mask="url(#mask-2)">
                        <g transform="translate(139.741846, 142.470159) rotate(-30.000000) translate(-139.741846, -142.470159) translate(5.241846, 7.970159)">
                            <ellipse id="Oval-7-Copy" stroke="#999999" stroke-width="6" fill="none" opacity="0.6" cx="134.159236" cy="134.21281" rx="134.159236" ry="134.21281"></ellipse>
                            <ellipse id="Oval-7-Copy-2" stroke="#999999" stroke-width="4" fill="none" opacity="0.6" cx="134.538217" cy="134.591942" rx="115.589172" ry="115.635331"></ellipse>
                            <path d="M74.8707195,102.444599 L74.8707195,113.644599 L59.3187195,113.644599 L59.3187195,114.924599 L74.8707195,114.924599 L74.8707195,131.308599 L55.3507195,131.308599 L55.3507195,132.588599 L71.4147195,132.588599 L54.9667195,161.260599 C62.3907195,157.164599 68.9827195,151.276599 74.8707195,143.724599 L74.8707195,164.716599 L83.1267195,164.716599 L83.1267195,136.556599 C86.2627195,146.028599 90.6147195,153.644599 97.5267195,160.940599 L103.73472,151.340599 C97.7187195,145.836599 90.7427195,139.564599 83.5747195,132.588599 L105.52672,132.588599 L105.52672,131.308599 L83.1267195,131.308599 L83.1267195,114.924599 L101.55872,114.924599 L101.55872,113.644599 L83.1267195,113.644599 L83.1267195,102.444599 L74.8707195,102.444599 Z M150.90272,156.972599 L143.09472,156.972599 L150.51872,161.580599 L150.51872,164.844599 C154.55072,164.588599 158.51872,161.964599 158.51872,158.188599 L158.51872,102.508599 L150.90272,102.508599 L150.90272,156.972599 Z M110.39072,107.884599 L118.71072,107.884599 L114.23072,122.540599 L110.64672,122.732599 L113.65472,132.204599 L131.06272,124.588599 L132.85472,130.604599 L140.47072,126.316599 C138.29472,122.156599 134.45472,117.548599 127.92672,113.836599 L130.23072,121.772599 L118.64672,122.348599 L128.11872,107.884599 L139.19072,107.884599 L139.19072,106.540599 L110.39072,106.540599 L110.39072,107.884599 Z M111.28672,141.484599 L120.95072,141.484599 L120.95072,153.964599 L109.43072,155.244599 L112.56672,163.756599 L140.02272,151.724599 L128.63072,153.068599 L128.63072,141.484599 L138.29472,141.484599 L138.29472,140.204599 L128.63072,140.204599 L128.63072,130.796599 L120.95072,130.796599 L120.95072,140.204599 L111.28672,140.204599 L111.28672,141.484599 Z M148.59872,150.124599 L148.59872,110.892599 L141.23872,110.892599 L141.23872,150.124599 L148.59872,150.124599 Z M197.04672,138.988599 L197.04672,140.012599 L193.78272,140.012599 L193.78272,128.108599 L209.59072,128.108599 L209.59072,126.828599 L193.78272,126.828599 L193.78272,115.692599 L185.71872,115.692599 L185.71872,140.012599 L182.45472,140.012599 L182.45472,138.988599 L174.39072,138.988599 L174.39072,164.908599 L182.45472,164.908599 L182.45472,159.596599 L197.04672,159.596599 L197.04672,164.908599 L205.11072,164.908599 L205.11072,138.988599 L197.04672,138.988599 Z M164.34272,165.100599 C168.88672,159.468599 173.55872,146.796599 173.68672,133.484599 L173.68672,112.364599 L211.12672,112.364599 L211.12672,111.084599 L194.10272,111.084599 L194.10272,102.316599 L185.39872,102.316599 L185.39872,111.084599 L173.68672,111.084599 L173.68672,109.420599 L165.81472,109.420599 L165.81472,130.796599 C165.81472,140.652599 165.68672,153.964599 164.34272,165.100599 L164.34272,165.100599 Z M182.45472,141.292599 L197.04672,141.292599 L197.04672,158.316599 L182.45472,158.316599 L182.45472,141.292599 Z" id="未到店" stroke="none" fill="#999999" fill-rule="evenodd" opacity="0.6"></path>
                            <rect id="Rectangle-6-Copy-2" stroke="none" fill-opacity="0.6" fill="#999999" fill-rule="evenodd" x="50.0254777" y="89.4752066" width="169.025478" height="1.51652893" rx="0.758264463"></rect>
                            <rect id="Rectangle-6-Copy-3" stroke="none" fill-opacity="0.6" fill="#999999" fill-rule="evenodd" x="50.0254777" y="178.950413" width="169.025478" height="1.51652893" rx="0.758264463"></rect>
                        </g>
                    </g>
                </g>
            </g>
        </g>
    </g>
</svg>