<?xml version="1.0" encoding="UTF-8" standalone="no"?>
<svg width="236px" height="275px" viewBox="0 0 236 275" version="1.1" xmlns="http://www.w3.org/2000/svg" xmlns:xlink="http://www.w3.org/1999/xlink">
    <!-- Generator: Sketch 40 (33762) - http://www.bohemiancoding.com/sketch -->
    <title>预订取消</title>
    <desc>Created with Sketch.</desc>
    <defs>
        <rect id="path-1" x="0" y="0" width="238" height="284" rx="8"></rect>
    </defs>
    <g id="Page-1" stroke="none" stroke-width="1" fill="none" fill-rule="evenodd" opacity="0.5">
        <g id="预订_预定详情" transform="translate(-422.000000, -1502.000000)">
            <g id="预订取消" transform="translate(420.000000, 1497.000000)">
                <g>
                    <mask id="mask-2" fill="white">
                        <use xlink:href="#path-1"></use>
                    </mask>
                    <g id="Mask"></g>
                    <g id="印章" mask="url(#mask-2)">
                        <g transform="translate(139.741846, 142.470159) rotate(-30.000000) translate(-139.741846, -142.470159) translate(5.241846, 7.970159)">
                            <ellipse id="Oval-7-Copy" stroke="#999999" stroke-width="6" fill="none" opacity="0.6" cx="134.159236" cy="134.21281" rx="134.159236" ry="134.21281"></ellipse>
                            <ellipse id="Oval-7-Copy-2" stroke="#999999" stroke-width="4" fill="none" opacity="0.6" cx="134.538217" cy="134.591942" rx="115.589172" ry="115.635331"></ellipse>
                            <path d="M60.4767195,110.854548 L67.0307195,110.854548 L66.3927195,119.670548 L61.2307195,119.670548 L61.2307195,127.616548 L55.5467195,123.788548 L54.9087195,127.094548 L50.5007195,127.094548 L54.9087195,123.324548 C53.8067195,122.048548 52.5307195,120.830548 51.0227195,119.844548 L61.1727195,112.594548 L54.4447195,106.852548 L53.2267195,110.390548 L40.8147195,110.390548 L40.8147195,111.550548 L52.8207195,111.550548 L50.0947195,119.264548 C48.2387195,118.162548 46.0347195,117.234548 43.4827195,116.538548 L49.1087195,127.094548 L40.1767195,127.094548 L40.1767195,128.254548 L46.1507195,128.254548 L46.1507195,156.036548 L41.3367195,156.036548 L46.1507195,159.864548 L46.1507195,162.358548 C49.8627195,162.126548 52.4147195,160.734548 52.4147195,157.196548 L52.4147195,128.254548 L54.6767195,128.254548 L53.4587195,134.808548 L61.2307195,128.196548 L61.2307195,148.670548 L66.9727195,148.670548 C65.3487195,153.368548 62.6227195,157.602548 58.7947195,161.836548 C65.9287195,159.632548 69.8727195,155.630548 72.0767195,151.222548 L78.3987195,161.952548 L83.6767195,156.442548 C80.6607195,153.426548 77.0067195,151.222548 72.7727195,149.656548 C74.9187195,144.494548 74.8607195,139.042548 74.8607195,135.562548 L74.8607195,125.586548 L68.8867195,125.586548 L68.8867195,136.780548 C68.8867195,141.014548 68.2487195,144.842548 67.0887195,148.380548 L67.0887195,121.990548 L76.5427195,121.990548 L76.5427195,148.148548 L82.3427195,148.148548 L82.3427195,119.670548 L76.5427195,119.670548 L76.5427195,120.830548 L67.7267195,120.830548 L73.6427195,112.536548 L68.7707195,110.854548 L83.0967195,110.854548 L83.0967195,109.694548 L60.4767195,109.694548 L60.4767195,110.854548 Z M105.71672,113.812548 L116.96872,113.812548 L116.96872,155.166548 L111.22672,155.166548 L116.96872,159.226548 L116.96872,162.416548 C122.71072,162.184548 123.87072,159.342548 123.87072,155.398548 L123.87072,113.812548 L132.97672,113.812548 L132.97672,112.652548 L105.71672,112.652548 L105.71672,113.812548 Z M88.2587195,128.138548 L93.2467195,128.138548 L93.2467195,150.932548 L89.3607195,153.078548 L95.4507195,159.400548 L107.80472,142.870548 L100.43872,146.988548 L100.43872,125.354548 L93.2467195,125.354548 L93.2467195,126.978548 L88.2587195,126.978548 L88.2587195,128.138548 Z M96.2047195,119.844548 L102.99072,116.190548 C101.01872,112.478548 97.0747195,109.114548 92.7827195,107.490548 L96.2047195,119.844548 Z M137.61672,109.752548 L140.45872,109.752548 L140.45872,145.944548 L135.81872,146.988548 L139.58872,155.572548 L151.76872,148.090548 L151.76872,161.198548 L158.96072,161.198548 L158.96072,143.624548 L163.71672,140.666548 L158.96072,141.768548 L158.96072,109.752548 L163.71672,109.752548 L163.71672,108.592548 L137.61672,108.592548 L137.61672,109.752548 Z M160.46872,115.610548 L162.61472,115.610548 C162.96272,125.006548 164.23872,133.590548 166.84872,141.768548 C164.41272,149.308548 161.57072,156.152548 158.43872,162.590548 C162.96272,158.588548 166.67472,154.180548 169.69072,149.308548 C171.60472,153.716548 173.92472,158.008548 176.82472,162.242548 L182.91472,154.296548 C179.31872,150.062548 176.36072,145.770548 173.80872,141.478548 C177.57872,133.126548 179.89872,123.556548 181.63872,112.478548 L174.09872,110.042548 L173.40272,114.508548 L160.46872,114.508548 L160.46872,115.610548 Z M169.45872,133.010548 C166.79072,127.152548 164.93472,121.294548 163.65872,115.610548 L173.17072,115.610548 C172.12672,121.700548 170.90872,127.500548 169.45872,133.010548 L169.45872,133.010548 Z M147.65072,109.752548 L151.76872,109.752548 L151.76872,121.120548 L147.65072,121.120548 L147.65072,109.752548 Z M147.65072,133.474548 L151.76872,133.474548 L151.76872,143.392548 L147.65072,144.320548 L147.65072,133.474548 Z M147.65072,122.280548 L151.76872,122.280548 L151.76872,132.314548 L147.65072,132.314548 L147.65072,122.280548 Z M205.36072,120.598548 L211.04472,117.292548 L211.04472,124.078548 L208.55072,124.078548 L208.55072,122.918548 L201.47472,122.918548 L201.47472,162.184548 L208.55072,162.184548 L208.55072,146.234548 L220.55672,146.234548 L220.55672,155.108548 L214.58272,155.108548 L220.55672,159.226548 L220.55672,162.416548 C226.41472,162.184548 227.69072,159.342548 227.69072,155.398548 L227.69072,122.918548 L220.55672,122.918548 L220.55672,124.078548 L218.12072,124.078548 L218.12072,105.286548 L211.04472,105.286548 L211.04472,115.320548 C208.49272,112.130548 205.30272,110.042548 201.82272,108.418548 L205.36072,120.598548 Z M198.69072,125.238548 L191.15072,144.552548 C189.99072,143.566548 188.77272,142.696548 187.61272,141.942548 L192.89072,160.908548 L199.79272,155.630548 C198.74872,153.252548 197.29872,151.048548 195.67472,149.076548 L198.69072,125.238548 Z M208.55072,135.446548 L220.55672,135.446548 L220.55672,145.074548 L208.55072,145.074548 L208.55072,135.446548 Z M208.55072,125.238548 L220.55672,125.238548 L220.55672,134.286548 L208.55072,134.286548 L208.55072,125.238548 Z M229.14072,111.724548 L222.35472,107.838548 L219.10672,121.932548 L229.14072,111.724548 Z M191.20872,132.604548 L196.25472,127.558548 C194.05072,124.600548 190.51272,122.222548 186.97472,120.888548 L191.20872,132.604548 Z M194.74672,118.220548 L199.85072,113.638548 C197.64672,110.970548 194.10872,108.766548 190.57072,107.548548 L194.74672,118.220548 Z" id="预订取消" stroke="none" fill="#999999" fill-rule="evenodd" opacity="0.6"></path>
                            <rect id="Rectangle-6-Copy-2" stroke="none" fill-opacity="0.6" fill="#999999" fill-rule="evenodd" x="50.0254777" y="89.4752066" width="169.025478" height="1.51652893" rx="0.758264463"></rect>
                            <rect id="Rectangle-6-Copy-3" stroke="none" fill-opacity="0.6" fill="#999999" fill-rule="evenodd" x="50.0254777" y="178.950413" width="169.025478" height="1.51652893" rx="0.758264463"></rect>
                        </g>
                    </g>
                </g>
            </g>
        </g>
    </g>
</svg>