<?xml version="1.0" encoding="UTF-8" standalone="no"?>
<svg width="236px" height="275px" viewBox="0 0 236 275" version="1.1" xmlns="http://www.w3.org/2000/svg" xmlns:xlink="http://www.w3.org/1999/xlink">
    <!-- Generator: Sketch 40 (33762) - http://www.bohemiancoding.com/sketch -->
    <title>预订失败</title>
    <desc>Created with Sketch.</desc>
    <defs>
        <rect id="path-1" x="0" y="0" width="238" height="284" rx="8"></rect>
    </defs>
    <g id="Page-1" stroke="none" stroke-width="1" fill="none" fill-rule="evenodd" opacity="0.5">
        <g id="预订_预定详情" transform="translate(-422.000000, -1816.000000)">
            <g id="预订失败" transform="translate(420.000000, 1811.000000)">
                <g>
                    <mask id="mask-2" fill="white">
                        <use xlink:href="#path-1"></use>
                    </mask>
                    <g id="Mask"></g>
                    <g id="印章" mask="url(#mask-2)">
                        <g transform="translate(139.741846, 142.470159) rotate(-30.000000) translate(-139.741846, -142.470159) translate(5.241846, 7.970159)">
                            <ellipse id="Oval-7-Copy" stroke="#999999" stroke-width="6" fill="none" opacity="0.6" cx="134.159236" cy="134.21281" rx="134.159236" ry="134.21281"></ellipse>
                            <ellipse id="Oval-7-Copy-2" stroke="#999999" stroke-width="4" fill="none" opacity="0.6" cx="134.538217" cy="134.591942" rx="115.589172" ry="115.635331"></ellipse>
                            <path d="M60.4767195,110.854548 L67.0307195,110.854548 L66.3927195,119.670548 L61.2307195,119.670548 L61.2307195,127.616548 L55.5467195,123.788548 L54.9087195,127.094548 L50.5007195,127.094548 L54.9087195,123.324548 C53.8067195,122.048548 52.5307195,120.830548 51.0227195,119.844548 L61.1727195,112.594548 L54.4447195,106.852548 L53.2267195,110.390548 L40.8147195,110.390548 L40.8147195,111.550548 L52.8207195,111.550548 L50.0947195,119.264548 C48.2387195,118.162548 46.0347195,117.234548 43.4827195,116.538548 L49.1087195,127.094548 L40.1767195,127.094548 L40.1767195,128.254548 L46.1507195,128.254548 L46.1507195,156.036548 L41.3367195,156.036548 L46.1507195,159.864548 L46.1507195,162.358548 C49.8627195,162.126548 52.4147195,160.734548 52.4147195,157.196548 L52.4147195,128.254548 L54.6767195,128.254548 L53.4587195,134.808548 L61.2307195,128.196548 L61.2307195,148.670548 L66.9727195,148.670548 C65.3487195,153.368548 62.6227195,157.602548 58.7947195,161.836548 C65.9287195,159.632548 69.8727195,155.630548 72.0767195,151.222548 L78.3987195,161.952548 L83.6767195,156.442548 C80.6607195,153.426548 77.0067195,151.222548 72.7727195,149.656548 C74.9187195,144.494548 74.8607195,139.042548 74.8607195,135.562548 L74.8607195,125.586548 L68.8867195,125.586548 L68.8867195,136.780548 C68.8867195,141.014548 68.2487195,144.842548 67.0887195,148.380548 L67.0887195,121.990548 L76.5427195,121.990548 L76.5427195,148.148548 L82.3427195,148.148548 L82.3427195,119.670548 L76.5427195,119.670548 L76.5427195,120.830548 L67.7267195,120.830548 L73.6427195,112.536548 L68.7707195,110.854548 L83.0967195,110.854548 L83.0967195,109.694548 L60.4767195,109.694548 L60.4767195,110.854548 Z M105.71672,113.812548 L116.96872,113.812548 L116.96872,155.166548 L111.22672,155.166548 L116.96872,159.226548 L116.96872,162.416548 C122.71072,162.184548 123.87072,159.342548 123.87072,155.398548 L123.87072,113.812548 L132.97672,113.812548 L132.97672,112.652548 L105.71672,112.652548 L105.71672,113.812548 Z M88.2587195,128.138548 L93.2467195,128.138548 L93.2467195,150.932548 L89.3607195,153.078548 L95.4507195,159.400548 L107.80472,142.870548 L100.43872,146.988548 L100.43872,125.354548 L93.2467195,125.354548 L93.2467195,126.978548 L88.2587195,126.978548 L88.2587195,128.138548 Z M96.2047195,119.844548 L102.99072,116.190548 C101.01872,112.478548 97.0747195,109.114548 92.7827195,107.490548 L96.2047195,119.844548 Z M138.02272,131.618548 C141.61872,128.544548 144.69272,124.948548 147.30272,121.004548 L154.49472,121.004548 L154.49472,124.774548 C154.49472,128.138548 154.26272,131.328548 153.79872,134.402548 L137.50072,134.402548 L137.50072,135.562548 L153.56672,135.562548 C151.88472,145.074548 147.47672,153.368548 138.31272,162.068548 C152.00072,157.660548 158.67072,149.946548 161.22272,139.796548 C163.19472,149.134548 168.24072,157.254548 174.38872,162.358548 L181.23272,152.846548 C174.38872,149.134548 166.90672,142.290548 162.20872,135.562548 L180.13072,135.562548 L180.13072,134.402548 L162.15072,134.402548 C162.44072,132.256548 162.55672,129.994548 162.55672,127.674548 L162.55672,121.004548 L175.60672,121.004548 L175.60672,119.844548 L162.55672,119.844548 L162.55672,105.344548 L154.49472,105.344548 L154.49472,119.844548 L147.99872,119.844548 C149.50672,117.408548 150.84072,114.914548 152.00072,112.304548 L143.99672,109.636548 L138.02272,131.618548 Z M205.82472,162.358548 C210.23272,159.690548 213.77072,155.920548 216.55472,151.570548 C218.99072,156.152548 221.65872,159.632548 224.21072,162.416548 L229.60472,153.252548 C226.35672,150.120548 223.45672,146.814548 220.78872,143.508548 C223.97872,136.026548 225.71872,127.790548 226.82072,120.540548 L229.83672,120.540548 L229.83672,119.496548 L213.71272,119.496548 C215.27872,115.900548 216.67072,112.130548 217.88872,108.186548 L210.58072,105.344548 L205.36072,134.402548 C206.86872,132.256548 208.31872,130.052548 209.65272,127.790548 C210.46472,134.054548 211.68272,139.390548 213.24872,143.856548 C210.81272,151.338548 208.14472,158.008548 205.82472,162.358548 L205.82472,162.358548 Z M192.07872,145.654548 L192.07872,111.724548 L199.32872,111.724548 L199.32872,145.654548 L205.07072,145.654548 L205.07072,109.520548 L199.32872,109.520548 L199.32872,110.564548 L192.07872,110.564548 L192.07872,109.520548 L186.33672,109.520548 L186.33672,145.654548 L192.07872,145.654548 Z M207.56472,157.718548 C204.89672,153.194548 201.59072,149.540548 197.58872,146.756548 C198.69072,142.406548 198.51672,138.288548 198.51672,134.924548 L198.51672,116.480548 L193.00672,116.480548 L193.00672,135.272548 C193.00672,143.102548 191.90472,151.512548 186.33672,162.242548 C192.13672,158.066548 195.21072,153.600548 196.77672,149.308548 L200.83672,161.546548 L207.56472,157.718548 Z M213.30672,120.540548 L219.22272,120.540548 C218.35272,125.528548 217.13472,130.922548 215.62672,136.200548 C213.59672,133.068548 211.85672,129.878548 210.29072,126.572548 C211.33472,124.658548 212.37872,122.628548 213.30672,120.540548 L213.30672,120.540548 Z" id="预订失败" stroke="none" fill="#999999" fill-rule="evenodd" opacity="0.6"></path>
                            <rect id="Rectangle-6-Copy-2" stroke="none" fill-opacity="0.6" fill="#999999" fill-rule="evenodd" x="50.0254777" y="89.4752066" width="169.025478" height="1.51652893" rx="0.758264463"></rect>
                            <rect id="Rectangle-6-Copy-3" stroke="none" fill-opacity="0.6" fill="#999999" fill-rule="evenodd" x="50.0254777" y="178.950413" width="169.025478" height="1.51652893" rx="0.758264463"></rect>
                        </g>
                    </g>
                </g>
            </g>
        </g>
    </g>
</svg>