<?xml version="1.0" encoding="UTF-8" standalone="no"?>
<svg width="236px" height="275px" viewBox="0 0 236 275" version="1.1" xmlns="http://www.w3.org/2000/svg" xmlns:xlink="http://www.w3.org/1999/xlink">
    <!-- Generator: Sketch 40 (33762) - http://www.bohemiancoding.com/sketch -->
    <title>确认中</title>
    <desc>Created with Sketch.</desc>
    <defs>
        <rect id="path-1" x="0" y="0" width="238" height="284" rx="8"></rect>
    </defs>
    <g id="Page-1" stroke="none" stroke-width="1" fill="none" fill-rule="evenodd" opacity="0.5">
        <g id="预订_预定详情" transform="translate(-94.000000, -2130.000000)">
            <g id="确认中" transform="translate(92.000000, 2125.000000)">
                <g>
                    <mask id="mask-2" fill="white">
                        <use xlink:href="#path-1"></use>
                    </mask>
                    <g id="Mask"></g>
                    <g id="印章" mask="url(#mask-2)">
                        <g transform="translate(139.741846, 142.470159) rotate(-30.000000) translate(-139.741846, -142.470159) translate(5.241846, 7.970159)">
                            <ellipse id="Oval-7-Copy" stroke="#FF7417" stroke-width="6" fill="none" opacity="0.6" cx="134.159236" cy="134.21281" rx="134.159236" ry="134.21281"></ellipse>
                            <ellipse id="Oval-7-Copy-2" stroke="#FF7417" stroke-width="4" fill="none" opacity="0.6" cx="134.538217" cy="134.591942" rx="115.589172" ry="115.635331"></ellipse>
                            <path d="M74.2007449,165.472599 C79.3207449,160.672599 83.0967449,156.256599 83.9287449,144.160599 L87.7687449,144.160599 L87.7687449,161.632599 L94.3607449,161.632599 L94.3607449,159.328599 L98.5847449,162.592599 L98.5847449,165.536599 C103.896745,165.344599 104.920745,162.784599 104.920745,158.880599 L104.920745,118.432599 L98.5847449,118.432599 L98.5847449,120.160599 L91.5447449,120.160599 L100.888745,111.840599 L93.0807449,106.528599 L92.0567449,110.112599 L87.3847449,110.112599 C88.5367449,108.256599 89.6247449,106.336599 90.5847449,104.352599 L82.5207449,101.600599 L75.0327449,125.024599 C75.8647449,124.320599 76.7607449,123.488599 77.5927449,122.656599 L77.5927449,140.704599 C77.5927449,146.656599 76.8887449,156.960599 74.2007449,165.472599 L74.2007449,165.472599 Z M57.3047449,109.856599 L61.2087449,109.856599 L57.2407449,141.152599 C58.4567449,139.552599 59.6087449,137.760599 60.6967449,135.840599 L60.6967449,159.328599 L66.9687449,159.328599 L66.9687449,152.864599 L68.8247449,152.864599 L68.8247449,155.296599 L75.0967449,155.296599 L75.0967449,125.600599 L68.8247449,125.600599 L68.8247449,127.200599 L66.9687449,127.200599 L66.9687449,125.600599 L65.1767449,125.600599 C67.0327449,120.352599 68.4407449,114.912599 69.2727449,109.856599 L77.1447449,109.856599 L77.1447449,108.576599 L57.3047449,108.576599 L57.3047449,109.856599 Z M98.5847449,158.496599 L94.3607449,158.496599 L94.3607449,144.160599 L98.5847449,144.160599 L98.5847449,158.496599 Z M86.6167449,111.328599 L91.7367449,111.328599 L89.3687449,120.160599 L84.1207449,120.160599 L84.1207449,118.432599 L81.4327449,118.432599 C83.2887449,116.256599 85.0167449,113.888599 86.6167449,111.328599 L86.6167449,111.328599 Z M94.3607449,121.440599 L98.5847449,121.440599 L98.5847449,131.680599 L94.3607449,131.680599 L94.3607449,121.440599 Z M66.9687449,128.480599 L68.8247449,128.480599 L68.8247449,151.584599 L66.9687449,151.584599 L66.9687449,128.480599 Z M94.3607449,132.960599 L98.5847449,132.960599 L98.5847449,142.880599 L94.3607449,142.880599 L94.3607449,132.960599 Z M84.1207449,121.440599 L87.7687449,121.440599 L87.7687449,131.680599 L84.1207449,131.680599 L84.1207449,121.440599 Z M84.1207449,138.784599 L84.1207449,132.960599 L87.7687449,132.960599 L87.7687449,142.880599 L83.9927449,142.880599 C84.0567449,141.600599 84.1207449,140.256599 84.1207449,138.784599 L84.1207449,138.784599 Z M115.608745,123.488599 L115.608745,125.280599 L110.040745,125.280599 L110.040745,126.560599 L115.608745,126.560599 L115.608745,151.712599 L111.320745,154.080599 L117.976745,161.056599 L129.944745,145.056599 C128.088745,152.288599 125.912745,159.008599 123.416745,165.408599 C134.360745,154.976599 139.928745,143.328599 143.128745,124.960599 C144.024745,140.448599 146.584745,152.352599 151.768745,164.768599 L159.640745,156.640599 L144.024745,119.200599 C144.664745,114.528599 145.176745,109.408599 145.688745,103.840599 L136.408745,102.048599 C135.320745,117.664599 133.272745,131.296599 130.264745,143.584599 L123.480745,147.360599 L123.480745,123.488599 L115.608745,123.488599 Z M118.872745,117.408599 L126.360745,113.376599 C124.120745,109.280599 119.832745,105.568599 115.032745,103.776599 L118.872745,117.408599 Z M184.152745,103.136599 L184.152745,119.072599 L175.128745,119.072599 L175.128745,117.280599 L166.360745,117.280599 L166.360745,146.400599 L175.128745,146.400599 L175.128745,141.280599 L184.152745,141.280599 L184.152745,165.152599 L193.112745,165.152599 L193.112745,141.280599 L202.136745,141.280599 L202.136745,146.080599 L210.904745,146.080599 L210.904745,117.280599 L202.136745,117.280599 L202.136745,119.072599 L193.112745,119.072599 L193.112745,103.136599 L184.152745,103.136599 Z M193.112745,120.352599 L202.136745,120.352599 L202.136745,140.000599 L193.112745,140.000599 L193.112745,120.352599 Z M175.128745,120.352599 L184.152745,120.352599 L184.152745,140.000599 L175.128745,140.000599 L175.128745,120.352599 Z" id="确认中" stroke="none" fill="#FF7417" fill-rule="evenodd" opacity="0.6"></path>
                            <rect id="Rectangle-6-Copy-2" stroke="none" fill-opacity="0.6" fill="#FF7417" fill-rule="evenodd" x="50.0254777" y="89.4752066" width="169.025478" height="1.51652893" rx="0.758264463"></rect>
                            <rect id="Rectangle-6-Copy-3" stroke="none" fill-opacity="0.6" fill="#FF7417" fill-rule="evenodd" x="50.0254777" y="178.950413" width="169.025478" height="1.51652893" rx="0.758264463"></rect>
                        </g>
                    </g>
                </g>
            </g>
        </g>
    </g>
</svg>