<?xml version="1.0" encoding="UTF-8" standalone="no"?>
<svg width="236px" height="275px" viewBox="0 0 236 275" version="1.1" xmlns="http://www.w3.org/2000/svg" xmlns:xlink="http://www.w3.org/1999/xlink">
    <!-- Generator: Sketch 40 (33762) - http://www.bohemiancoding.com/sketch -->
    <title>已取消</title>
    <desc>Created with Sketch.</desc>
    <defs>
        <rect id="path-1" x="0" y="0" width="238" height="284" rx="8"></rect>
    </defs>
    <g id="Page-1" stroke="none" stroke-width="1" fill="none" fill-rule="evenodd" opacity="0.5">
        <g id="排队_已取消" transform="translate(-484.000000, -582.000000)">
            <g id="已取消" transform="translate(482.000000, 577.000000)">
                <mask id="mask-2" fill="white">
                    <use xlink:href="#path-1"></use>
                </mask>
                <g id="Mask"></g>
                <g id="印章" mask="url(#mask-2)">
                    <g transform="translate(139.741846, 142.470159) rotate(-30.000000) translate(-139.741846, -142.470159) translate(5.241846, 7.970159)">
                        <ellipse id="Oval-7-Copy" stroke="#999999" stroke-width="6" fill="none" opacity="0.6" cx="134.159236" cy="134.21281" rx="134.159236" ry="134.21281"></ellipse>
                        <ellipse id="Oval-7-Copy-2" stroke="#999999" stroke-width="4" fill="none" opacity="0.6" cx="134.538217" cy="134.591942" rx="115.589172" ry="115.635331"></ellipse>
                        <path d="M56.8750324,118.984716 L56.8750324,158.968716 C57.0110324,163.184716 59.5950324,166.788716 65.1710324,166.788716 L95.4990324,166.788716 C99.9870324,166.788716 102.639032,162.912716 102.503032,157.132716 L99.7830324,157.132716 L97.8790324,146.660716 L94.2070324,157.132716 L66.1230324,157.132716 L66.1230324,130.952716 L84.8230324,130.952716 L84.8230324,136.460716 L94.4110324,136.460716 L94.4110324,106.336716 L84.8230324,106.336716 L84.8230324,108.104716 L55.6510324,108.104716 L55.6510324,109.464716 L84.8230324,109.464716 L84.8230324,129.592716 L66.1230324,129.592716 L66.1230324,118.984716 L56.8750324,118.984716 Z M110.731032,106.404716 L114.063032,106.404716 L114.063032,148.836716 L108.623032,150.060716 L113.043032,160.124716 L127.323032,151.352716 L127.323032,166.720716 L135.755032,166.720716 L135.755032,146.116716 L141.331032,142.648716 L135.755032,143.940716 L135.755032,106.404716 L141.331032,106.404716 L141.331032,105.044716 L110.731032,105.044716 L110.731032,106.404716 Z M137.523032,113.272716 L140.039032,113.272716 C140.447032,124.288716 141.943032,134.352716 145.003032,143.940716 C142.147032,152.780716 138.815032,160.804716 135.143032,168.352716 C140.447032,163.660716 144.799032,158.492716 148.335032,152.780716 C150.579032,157.948716 153.299032,162.980716 156.699032,167.944716 L163.839032,158.628716 C159.623032,153.664716 156.155032,148.632716 153.163032,143.600716 C157.583032,133.808716 160.303032,122.588716 162.343032,109.600716 L153.503032,106.744716 L152.687032,111.980716 L137.523032,111.980716 L137.523032,113.272716 Z M148.063032,133.672716 C144.935032,126.804716 142.759032,119.936716 141.263032,113.272716 L152.415032,113.272716 C151.191032,120.412716 149.763032,127.212716 148.063032,133.672716 L148.063032,133.672716 Z M122.495032,106.404716 L127.323032,106.404716 L127.323032,119.732716 L122.495032,119.732716 L122.495032,106.404716 Z M122.495032,134.216716 L127.323032,134.216716 L127.323032,145.844716 L122.495032,146.932716 L122.495032,134.216716 Z M122.495032,121.092716 L127.323032,121.092716 L127.323032,132.856716 L122.495032,132.856716 L122.495032,121.092716 Z M190.155032,119.120716 L196.819032,115.244716 L196.819032,123.200716 L193.895032,123.200716 L193.895032,121.840716 L185.599032,121.840716 L185.599032,167.876716 L193.895032,167.876716 L193.895032,149.176716 L207.971032,149.176716 L207.971032,159.580716 L200.967032,159.580716 L207.971032,164.408716 L207.971032,168.148716 C214.839032,167.876716 216.335032,164.544716 216.335032,159.920716 L216.335032,121.840716 L207.971032,121.840716 L207.971032,123.200716 L205.115032,123.200716 L205.115032,101.168716 L196.819032,101.168716 L196.819032,112.932716 C193.827032,109.192716 190.087032,106.744716 186.007032,104.840716 L190.155032,119.120716 Z M182.335032,124.560716 L173.495032,147.204716 C172.135032,146.048716 170.707032,145.028716 169.347032,144.144716 L175.535032,166.380716 L183.627032,160.192716 C182.403032,157.404716 180.703032,154.820716 178.799032,152.508716 L182.335032,124.560716 Z M193.895032,136.528716 L207.971032,136.528716 L207.971032,147.816716 L193.895032,147.816716 L193.895032,136.528716 Z M193.895032,124.560716 L207.971032,124.560716 L207.971032,135.168716 L193.895032,135.168716 L193.895032,124.560716 Z M218.035032,108.716716 L210.079032,104.160716 L206.271032,120.684716 L218.035032,108.716716 Z M173.563032,133.196716 L179.479032,127.280716 C176.895032,123.812716 172.747032,121.024716 168.599032,119.460716 L173.563032,133.196716 Z M177.711032,116.332716 L183.695032,110.960716 C181.111032,107.832716 176.963032,105.248716 172.815032,103.820716 L177.711032,116.332716 Z" id="已取消" stroke="none" fill="#999999" fill-rule="evenodd" opacity="0.6"></path>
                        <rect id="Rectangle-6-Copy-2" stroke="none" fill-opacity="0.6" fill="#999999" fill-rule="evenodd" x="50.0254777" y="89.4752066" width="169.025478" height="1.51652893" rx="0.758264463"></rect>
                        <rect id="Rectangle-6-Copy-3" stroke="none" fill-opacity="0.6" fill="#999999" fill-rule="evenodd" x="50.0254777" y="178.950413" width="169.025478" height="1.51652893" rx="0.758264463"></rect>
                    </g>
                </g>
            </g>
        </g>
    </g>
</svg>