<?xml version="1.0" encoding="UTF-8" standalone="no"?>
<svg width="116px" height="116px" viewBox="0 0 116 116" version="1.1" xmlns="http://www.w3.org/2000/svg" xmlns:xlink="http://www.w3.org/1999/xlink">
    <!-- Generator: Sketch 40 (33762) - http://www.bohemiancoding.com/sketch -->
    <title>购物车</title>
    <desc>Created with Sketch.</desc>
    <defs>
        <ellipse id="path-1" cx="61" cy="62" rx="56" ry="56"></ellipse>
        <filter x="-50%" y="-50%" width="200%" height="200%" filterUnits="objectBoundingBox" id="filter-2">
            <feOffset dx="0" dy="-2" in="SourceAlpha" result="shadowOffsetOuter1"></feOffset>
            <feGaussianBlur stdDeviation="1" in="shadowOffsetOuter1" result="shadowBlurOuter1"></feGaussianBlur>
            <feComposite in="shadowBlurOuter1" in2="SourceAlpha" operator="out" result="shadowBlurOuter1"></feComposite>
            <feColorMatrix values="0 0 0 0 0   0 0 0 0 0   0 0 0 0 0  0 0 0 0.2 0" type="matrix" in="shadowBlurOuter1"></feColorMatrix>
        </filter>
        <mask id="mask-3" maskContentUnits="userSpaceOnUse" maskUnits="objectBoundingBox" x="0" y="0" width="112" height="112" fill="white">
            <use xlink:href="#path-1"></use>
        </mask>
    </defs>
    <g id="Page-1" stroke="none" stroke-width="1" fill="none" fill-rule="evenodd">
        <g id="点餐页3" transform="translate(-18.000000, -1876.000000)">
            <g id="购物车栏-copy-2" transform="translate(0.000000, 1873.000000)">
                <g id="购物车" transform="translate(15.000000, 1.000000)">
                    <rect id="Rectangle-2" x="0" y="0" width="122" height="122"></rect>
                    <g id="Oval-2">
                        <use fill="black" fill-opacity="1" filter="url(#filter-2)" xlink:href="#path-1"></use>
                        <use stroke="#404040" mask="url(#mask-3)" stroke-width="12" fill="#666666" fill-rule="evenodd" xlink:href="#path-1"></use>
                    </g>
                    <path d="M49.3377926,82.2741429 C47.209097,82.2741429 45.4849498,84.0002143 45.4849498,86.1312857 C45.4849498,88.2623571 47.209097,89.9884286 49.3377926,89.9884286 C51.4664883,89.9884286 53.1906355,88.2623571 53.1906355,86.1312857 C53.1906355,84.0002143 51.4684147,82.2741429 49.3377926,82.2741429 L49.3377926,82.2741429 L49.3377926,82.2741429 Z M76.3076923,82.2741429 C74.1789967,82.2741429 72.4548495,84.0002143 72.4548495,86.1312857 C72.4548495,88.2623571 74.1789967,89.9884286 76.3076923,89.9884286 C78.436388,89.9884286 80.1605351,88.2623571 80.1605351,86.1312857 C80.1605351,84.0002143 78.4383144,82.2741429 76.3076923,82.2741429 L76.3076923,82.2741429 L76.3076923,82.2741429 Z M84.5123211,43.5021429 C83.5279197,42.3893571 82.1755719,41.7857143 80.703786,41.7857143 L42.1040803,41.7857143 L41.9673043,41.0007857 C41.6301806,38.1947143 39.1624348,36 36.3498595,36 L33.9264214,36 C32.8611104,36 32,36.8620714 32,37.9285714 C32,38.9950714 32.8611104,39.8571429 33.9264214,39.8571429 L36.3498595,39.8571429 C37.1878528,39.8571429 38.0431839,40.6208571 38.1568428,41.5600714 L40.0177659,52.3176429 L43.2849766,75.3467143 C43.6240268,78.1527857 46.0648027,80.3571429 48.8407759,80.3571429 L80.1605351,80.3571429 C81.2258462,80.3571429 82.0869565,79.4950714 82.0869565,78.4285714 C82.0869565,77.3620714 81.2258462,76.5 80.1605351,76.5 L48.8407759,76.5 C48.0201204,76.5 47.2129498,75.7401429 47.1050702,74.8452857 L46.7852843,72.5946429 L77.3498863,70.7027143 C80.1239331,70.7027143 82.564709,68.5022143 82.8922007,65.7983571 L85.9282408,48.42 C86.1536321,46.5627857 85.6373512,44.7730714 84.5123211,43.5021429 L84.5123211,43.5021429 Z" id="Shape" fill="#FFFFFF"></path>
                </g>
            </g>
        </g>
    </g>
</svg>