<?xml version="1.0" encoding="UTF-8" standalone="no"?>
<svg width="54px" height="54px" viewBox="0 0 54 54" version="1.1" xmlns="http://www.w3.org/2000/svg" xmlns:xlink="http://www.w3.org/1999/xlink">
    <!-- Generator: Sketch 40 (33762) - http://www.bohemiancoding.com/sketch -->
    <title>购物车</title>
    <desc>Created with Sketch.</desc>
    <defs></defs>
    <g id="Page-1" stroke="none" stroke-width="1" fill="none" fill-rule="evenodd">
        <g id="点餐页2" transform="translate(-47.000000, -1525.000000)" fill="#FFFFFF">
            <g id="购物车栏-copy" transform="translate(0.000000, 1488.000000)">
                <g id="购物车" transform="translate(20.000000, 7.000000)">
                    <path d="M44.3377926,76.2741429 C42.209097,76.2741429 40.4849498,78.0002143 40.4849498,80.1312857 C40.4849498,82.2623571 42.209097,83.9884286 44.3377926,83.9884286 C46.4664883,83.9884286 48.1906355,82.2623571 48.1906355,80.1312857 C48.1906355,78.0002143 46.4684147,76.2741429 44.3377926,76.2741429 L44.3377926,76.2741429 L44.3377926,76.2741429 Z M71.3076923,76.2741429 C69.1789967,76.2741429 67.4548495,78.0002143 67.4548495,80.1312857 C67.4548495,82.2623571 69.1789967,83.9884286 71.3076923,83.9884286 C73.436388,83.9884286 75.1605351,82.2623571 75.1605351,80.1312857 C75.1605351,78.0002143 73.4383144,76.2741429 71.3076923,76.2741429 L71.3076923,76.2741429 L71.3076923,76.2741429 Z M79.5123211,37.5021429 C78.5279197,36.3893571 77.1755719,35.7857143 75.703786,35.7857143 L37.1040803,35.7857143 L36.9673043,35.0007857 C36.6301806,32.1947143 34.1624348,30 31.3498595,30 L28.9264214,30 C27.8611104,30 27,30.8620714 27,31.9285714 C27,32.9950714 27.8611104,33.8571429 28.9264214,33.8571429 L31.3498595,33.8571429 C32.1878528,33.8571429 33.0431839,34.6208571 33.1568428,35.5600714 L35.0177659,46.3176429 L38.2849766,69.3467143 C38.6240268,72.1527857 41.0648027,74.3571429 43.8407759,74.3571429 L75.1605351,74.3571429 C76.2258462,74.3571429 77.0869565,73.4950714 77.0869565,72.4285714 C77.0869565,71.3620714 76.2258462,70.5 75.1605351,70.5 L43.8407759,70.5 C43.0201204,70.5 42.2129498,69.7401429 42.1050702,68.8452857 L41.7852843,66.5946429 L72.3498863,64.7027143 C75.1239331,64.7027143 77.564709,62.5022143 77.8922007,59.7983571 L80.9282408,42.42 C81.1536321,40.5627857 80.6373512,38.7730714 79.5123211,37.5021429 L79.5123211,37.5021429 Z"></path>
                </g>
            </g>
        </g>
    </g>
</svg>