<?xml version="1.0" encoding="UTF-8" standalone="no"?>
<svg width="24px" height="28px" viewBox="0 0 24 28" version="1.1" xmlns="http://www.w3.org/2000/svg" xmlns:xlink="http://www.w3.org/1999/xlink">
    <!-- Generator: Sketch 40 (33762) - http://www.bohemiancoding.com/sketch -->
    <title>清空购物车</title>
    <desc>Created with Sketch.</desc>
    <defs>
        <path d="M15,6 C15,5.44771525 15.4433532,5 16.0093689,5 L17.9906311,5 C18.5480902,5 19,5.44386482 19,6 L19,7 L15,7 L15,6 Z" id="path-1"></path>
        <mask id="mask-2" maskContentUnits="userSpaceOnUse" maskUnits="objectBoundingBox" x="-2" y="-2" width="8" height="6">
            <rect x="13" y="3" width="8" height="6" fill="white"></rect>
            <use xlink:href="#path-1" fill="black"></use>
        </mask>
        <path d="M7,11 L27,11 L27,26.2095017 C27,28.8552208 24.8596497,31 22.2095017,31 L11.7904983,31 C9.14477915,31 7,28.8596497 7,26.2095017 L7,11 Z" id="path-3"></path>
        <mask id="mask-4" maskContentUnits="userSpaceOnUse" maskUnits="objectBoundingBox" x="0" y="0" width="20" height="20" fill="white">
            <use xlink:href="#path-3"></use>
        </mask>
        <rect id="path-5" x="5" y="7" width="24" height="6" rx="3"></rect>
        <mask id="mask-6" maskContentUnits="userSpaceOnUse" maskUnits="objectBoundingBox" x="0" y="0" width="24" height="6" fill="white">
            <use xlink:href="#path-5"></use>
        </mask>
    </defs>
    <g id="Page-1" stroke="none" stroke-width="1" fill="none" fill-rule="evenodd">
        <g id="正餐下单" transform="translate(-363.000000, -287.000000)">
            <g id="2桌台号" transform="translate(0.000000, 158.000000)">
                <g id="清空购物车" transform="translate(358.000000, 123.000000)">
                    <g transform="translate(0.000000, 3.000000)">
                        <rect id="Rectangle-11" x="0" y="0" width="34" height="34"></rect>
                        <use id="Rectangle-9" stroke="#979797" mask="url(#mask-2)" stroke-width="4" xlink:href="#path-1"></use>
                        <use id="Rectangle-2" stroke="#999999" mask="url(#mask-4)" stroke-width="4" xlink:href="#path-3"></use>
                        <use id="Rectangle-8" stroke="#979797" mask="url(#mask-6)" stroke-width="4" xlink:href="#path-5"></use>
                        <path d="M12,15 C12.5522847,15 13,15.3535312 13,16 L13,25 C13,25.6497638 12.5561352,26 12,26 L12,26 C11.4477153,26 11,25.6464688 11,25 L11,16 C11,15.3502362 11.4438648,15 12,15 L12,15" id="Rectangle-8-Copy" fill="#999999"></path>
                        <path d="M17,15 C17.5522847,15 18,15.3535312 18,16 L18,25 C18,25.6497638 17.5561352,26 17,26 L17,26 C16.4477153,26 16,25.6464688 16,25 L16,16 C16,15.3502362 16.4438648,15 17,15 L17,15" id="Rectangle-8-Copy-3" fill="#999999"></path>
                        <path d="M22,15 C22.5522847,15 23,15.3535312 23,16 L23,25 C23,25.6497638 22.5561352,26 22,26 L22,26 C21.4477153,26 21,25.6464688 21,25 L21,16 C21,15.3502362 21.4438648,15 22,15 L22,15" id="Rectangle-8-Copy-2" fill="#999999"></path>
                    </g>
                </g>
            </g>
        </g>
    </g>
</svg>