<?xml version="1.0" encoding="UTF-8" standalone="no"?>
<svg width="63px" height="63px" viewBox="0 0 63 63" version="1.1" xmlns="http://www.w3.org/2000/svg" xmlns:xlink="http://www.w3.org/1999/xlink">
    <!-- Generator: Sketch 40 (33762) - http://www.bohemiancoding.com/sketch -->
    <title>关闭</title>
    <desc>Created with Sketch.</desc>
    <defs>
        <linearGradient x1="50%" y1="100%" x2="50%" y2="0%" id="linearGradient-1">
            <stop stop-color="#FF2444" offset="0%"></stop>
            <stop stop-color="#FF3E3E" offset="100%"></stop>
        </linearGradient>
    </defs>
    <g id="Page-1" stroke="none" stroke-width="1" fill="none" fill-rule="evenodd">
        <g id="领取优惠券详情" transform="translate(-582.000000, -400.000000)" fill="#FFFFFF">
            <g id="Group-4" transform="translate(613.500000, 431.500000) scale(-1, 1) translate(-613.500000, -431.500000) translate(582.000000, 400.000000)">
                <path d="M31.5,0 C14.1030233,0 0,14.1030233 0,31.5 C0,48.8969767 14.1030233,63 31.5,63 C48.8969767,63 63,48.8969767 63,31.5 C63,14.1030233 48.8969008,0 31.5,0 L31.5,0 Z M42.3867799,42.5492579 C41.5729484,43.3630894 40.4281658,43.290312 40.4281658,43.290312 C38.9328529,43.290312 38.2445414,42.4698782 38.2445414,42.4698782 L31.4999241,35.7252609 L24.7554586,42.4698782 C24.7554586,42.4698782 24.0671471,43.290312 22.5717583,43.290312 C22.5717583,43.290312 21.4271275,43.3630894 20.6132201,42.5492579 C20.6132201,42.5492579 19.7000501,41.6096786 19.7000501,40.4450131 C19.7000501,40.4450131 19.7000501,38.9497002 20.6264247,38.1953655 L27.3057777,31.5310385 L20.5512948,24.7765557 C19.5058507,23.7311115 19.7176563,22.5401127 19.7176563,22.5401127 C19.7176563,21.2564536 20.5248855,20.6080596 20.5248855,20.6080596 C21.4114944,19.7214508 22.4967043,19.7082461 22.4967043,19.7082461 C23.9126375,19.7082461 24.7463519,20.6080596 24.7463519,20.6080596 L31.4998482,27.3463782 L38.2534963,20.6080596 C38.2534963,20.6080596 39.0871348,19.7082461 40.503144,19.7082461 C40.503144,19.7082461 41.5883538,19.7214508 42.4749627,20.6080596 C42.4749627,20.6080596 43.2821919,21.2564536 43.2821919,22.5401127 C43.2821919,22.5401127 43.4938458,23.7311115 42.4484016,24.7765557 L35.6939188,31.5310385 L42.3734235,38.1953655 C43.2997222,38.9497761 43.2997222,40.4450131 43.2997222,40.4450131 C43.299874,41.6096027 42.3867799,42.5492579 42.3867799,42.5492579 L42.3867799,42.5492579 Z" id="关闭"></path>
            </g>
        </g>
    </g>
</svg>