<svg width="231" height="35" viewBox="0 0 231 35" xmlns="http://www.w3.org/2000/svg"><title>点击领取</title><g fill="none" fill-rule="evenodd"><path d="M46.7 34.8c-1-1-2-2.2-3-4-.4-.5-.3-1 .3-1 2-1.4 3.6-3.2 4.8-5.4h-.4c-.3 0-.5.2-.6.3-.5 0-.7 0-.6-.6v-3l.2-4c0-2.3 0-4.2-.2-5.6 0-.3 0-.6.2-.7h.5l4.4 1.4h4V.8c0-.5.2-.7.3-.7h.5c2 .5 3.7 1 5 1.6.2 0 .3.2.2.4v3l3.4-.3c2 0 4.4 0 7-.6l2 2V7h-.6c-3 0-5 0-6 .2l-6 .3v4.2h3.5c.2 0 .5-.3.8-.5l.3-.6v-.3c.2-.6.6-.6 1.3-.3l2.2 1.3 2.4 1.5.7.7c0 .2-.3.5-.7.8-.7 0-1 .6-1 1.2v6c0 .3 0 .6-.2.8-1.6 1-3 1.4-4 1.7-.8.2-1 0-1-.5v-1.7c-.3 0-.8 0-1.4.2h-1.2l-11.4.3c0 .5 0 1-.4 1-.8.4-2 .8-3 1l1 .2c.4 3.7-.7 7-3.3 10.3zm19.7-21l-13.8.4-.2 6 11-.3h1.4l1.6-.3v-6zm6 20.3c-1.5-3-3.3-6-5.5-8.8l.6-.7c3.3 1 5.7 2.4 7.2 3.8 1.2.6 1.3 1.5.3 2.7-.5.7-1.4 1.8-2.7 3zm-9.7-.8c-.6-2.6-1.5-5.4-2.8-8.4l.5-.6c2 1 3.8 2.3 5.2 3.7 1 .6 1 1.4 0 2.3l-3 3zm-8 .5c-.4-2.6-1-5.5-1.8-8.8l.7-.6c1.8 1.4 3.3 2.8 4.5 4.2 1 1 .8 1.8-.3 2.5l-.8.7c-1 1-1.8 1.6-2.5 2zm28-23.7L81 7.6h6.6L93 7v-6-.6h.6c.5 0 1.3.3 2.4.6l2.4.7c.3 0 .4.2.3.6V7h1.6c3.4-.3 6-.5 8-1l1.2 1.4.7.8.3.6h-.7c-2.5 0-5 .2-7.7.4h-3.4V15l5-.3c2.7 0 5.2-.3 7.3-.7.3.5 1 1.2 2 2.3 0 .4.2.5.2.6l-.6.2H105l-6.4.3v12.2l5.3-.3V26c0-2.8 0-4.8-.2-6v-.7h.7c2.2.5 3.8 1 4.6 1.4.4 0 .5 0 .4.4v10.1c0 .5-.2.8-.7 1-1.3.6-2.7 1-4.2 1.3-.5.2-.7 0-.7-.6v-2.5l-16.5.7c-1.6 0-3.2.5-4.8 1L81 30.2c1 0 1.6-.5 1.5-1.4v-4.8-3.5c0-.4 0-.5.6-.3 2 .3 3.3.7 4.5 1 0 0 .2.5.2 1.3V28c0 .8 0 1.3-.2 1.6l5.4-.3v-12l-7.4.2h-4l-1.2.3-1.5-2.4c3 0 5 0 6-.2l8-.2V9.5l-5 .3c-1 0-2.7 0-5.3.2zm48.8 16.3h-.4V26v-3l.2-2.7-1 .4c-.6 0-1.2.3-2 1-1.7 2-3 3.2-4 4l1 .6c.3 0 1 .5 1.6 1 1 .5 1.2 1.3.7 2.6-.5 1.5-1.2 3-2 3.8-1.4-2.3-4.5-5.5-9-9.8l.6-1c2 .7 3.7 1.3 5 2l2.6-5.3-4 .3c-.3 0-.7 0-1.2.2-1 0-1.7 0-2.3.2l-1.4-2.2 2-.2h2l4.8-.4c.4 0 .7-.2 1-.5l1-1v-.2c.2-.4.5-.4 1 0l3.2 3.4.5.4c0 .2.2.3.2.3V9.4 9c.2-.2.4-.2.6 0 .4 0 1 .4 2 .8l1.5.5h1.2c.2-.8.3-1.8.3-2.8l.2-1.8h-3l-2.5.4-2-2.2h5l7-.5 4-.4 1.6-.3 2.2 1.8V5h-2l-3 .3-4.6.2.7.3 1.4.3c.4.2.6.3.6.5 0 0 0 .2-.3.4l-1.2 1.3-1 1-.6 1 3.2-.4c.5 0 .8-.3 1-.7l.2-.8c0-.3.2-.4.3-.4l.4.2L147 10l1.2 1 .6.6c0 .2-.3.3-.7.4-.5.2-.7.6-.6 1l-.2 5.2v5c0 .4-.2.7-.5 1l-2.8 1.3h-1v-.4l.3-13-8 .4-.3 11.8c0 .3 0 .5-.3.7-.4.3-1.2.6-2.4 1l-.8.3zm14.3 8.3c-1.2-2-3.3-4.6-6.3-7.8-1.4 3.2-5.6 6-12.7 7.8l-.5-.7c4.3-2.6 7-5 8.6-7.2 1.4-2.3 2-5.6 2.2-10v-3.5c0-.5.2-.6.7-.5l3.3 1.2c.4 0 .5.2.3.5v3c-.4 3.5-.8 6-1.4 7.3 3.7 1.5 6 2.8 7.3 3.7 1 .8 1.4 1.5 1 2.3-.6 1-1.4 2-2.5 3.4 0 0-.2 0-.2.2zm-23.2-17c-.7-2-1.4-4-2-5.3-2 2-4 3.7-6 5l-.6-.5c2.3-3.5 4.3-7.4 6.2-11.8l.4-1.3c.4-.7.8-1.6 1-2.8.2-.7.5-.7 1-.3 1 .4 2.2 1 3.7 2 .3.3.4.6 0 1 0 .2-.5.8-1.3 2 2.4 1 4 1.7 5 2.4 1 .3 1 1 .8 2-.7 1.7-1.3 3-2 4-1.2-2-3-4-5-6.4L123 9l-1.3 2 3.5 2c.8.8 1 1.4.3 2-.7 1-1.6 1.8-2.7 2.6zM154 30c-.5 0-1 0-1-.4-1.2-1-2-2.3-2.8-3.7l3.2-.8.3-19.2H152L150.2 4h4.7l7.6-.4h1.2l3.3-.5.5.3 1.4 1.5.2.6h-3l.2.3V6l-.3 16.7 3.3-.7.6.8-2 1-2 .7v7c0 .6-.2 1-.5 1-.6.4-1.6.8-3.2 1.3h-.2c-.3.2-.6 0-.6-.4v-6.8L154 30zm26.4 3.2c-2.6-2-4.5-4.2-5.6-6.2-2 2.5-5 4.7-9 6.8l-.6-.7c3.2-3 5.7-6.6 7.5-10.3-1.5-4-2.5-9-2.8-14.6-.7.2-1.2.2-1.7.2L167 6l3.7-.2 6.5-.5c.4 0 .6 0 .8-.5 0 0 0-.3.3-.5l.3-.7c.3-.5.6-.6 1-.2l4.2 3.4c.5.5.6.8.6 1 0 .3-.4.5-1.2.7-.5 0-1 .5-1 1.3-1.6 5.8-3 10-4.3 12.3 2 2.5 4.3 4.6 7.3 6.5v1c-1 .5-2.4 1.7-3.8 3.6-.2.5-.6.5-1 .2zM171.7 8h-.7c1 4 2.4 7 3.8 9.6 1-3 2-6.3 2.8-10l-6 .3zM158 6V11h.8c.2-.2.6-.3 1-.3h1.2v.2l.6.3V5.7H158v.5zm.6 6.6h-.7v4.7h1c.7 0 1.4 0 2-.3l.6.4v-5c-1.3 0-2.3 0-3 .2zm0 6.5l-.7.2v5l3.4-1v-4.2h-2.8z" fill="#FFF"/><g stroke="#FFE64C" stroke-width="4" stroke-linecap="round"><path d="M11 9v18M2 18h18"/></g><g stroke="#FFE64C" stroke-width="4" stroke-linecap="round"><path d="M220 9v18M211 18h18"/></g><path d="M233-2H-2v38h235z"/></g></svg>