<svg width="218" height="157" viewBox="0 0 218 157" xmlns="http://www.w3.org/2000/svg" xmlns:xlink="http://www.w3.org/1999/xlink"><title>领券</title><defs><linearGradient x1="62.6%" y1="58.4%" x2="85.4%" y2="93.1%" id="a"><stop stop-color="#FFD1AF" offset="0%"/><stop stop-color="#FFD1AF" offset="100%"/></linearGradient><linearGradient x1="50%" y1="0%" x2="55.7%" y2="115.2%" id="b"><stop stop-color="#F8B787" offset="0%"/><stop stop-color="#E19964" offset="100%"/></linearGradient><linearGradient x1="100%" y1="100%" x2="0%" y2="0%" id="c"><stop stop-color="#FF2B3F" offset="0%"/><stop stop-color="#FF415B" offset="100%"/></linearGradient><circle id="d" cx="36" cy="36" r="36"/></defs><g transform="translate(-3 -3)" fill="none" fill-rule="evenodd"><path d="M0 0h221v170H0z"/><path d="M221 108l-10.3-10.3c-.2-3.8-.2-7.5-.2-12 0-18.8-11.8-36.7-34-36.7S131 68.2 131 87c0 7.8 22.3 4.2 29.8 13.5 10.5 13 16.4 24.2 30.6 24.2 1.8 0 4.2.7 6.8 1.5L217 145c1.2 1.2 2.5 2 4 2.8V108z" fill="url(#a)"/><ellipse fill="url(#b)" cx="173.5" cy="79.5" rx="12.5" ry="10.5"/><path d="M149 69.4V107c0 6.6-5.4 12-12 12H12c-6.6 0-12-5.4-12-12V69.3c5.5 0 10-4.4 10-10 0-5.4-4.5-9.8-10-9.8V12C0 5.5 5.4 0 12 0h125c6.6 0 12 5.4 12 12v37.6c-5.5 0-10 4.4-10 10 0 5.4 4.5 9.8 10 9.8z" fill="url(#c)" transform="rotate(-20 144.507 25.48)"/><path d="M76.8 138l-.5-.2c1.5-4.5 1.5-10 0-16l-3 1.2-1.6-1 3.5-1.5.8-.3-1-3.8-1.2-3v-.4h.4c1.6 0 2.7 0 3 .2.3 0 .4 0 .5.4 0 .6.3 1.4.5 2.3.2.4.4 1 .5 2 0 .4.2.7.3 1l3.3-1.5.6-.3.4-.2c-1.6-1.4-3-2.5-4.5-3.3l.3-.7c2-.2 3.7-.2 4.7 0 .8 0 1 .5 1 1.2 0 1-.4 1.7-.7 2.4l1.6-1 1.6 1c.2 0 .2.2.2.3h-.2l-4 1.7-4.2 1.7c2 7.8 1.2 13.6-2.6 17.6zm-3.4 1.3c-.3 0-.4 0-.5-.3l-3.5-10.7-.6-1.5-2 4-.8-.2c.8-3.8 1.2-7.6 1.2-11.5v-3.3c-.2-.6 0-.8.5-.7 1.2.2 2.5.5 3.6 1 .4 0 .5 0 .3.6-.3.6-.6 1.4-.8 2.6l-.7 3h.3l.2.2h.2l.2.3c1.6 5.2 3 10 4.6 14 0 .4 0 .6-.2.7l-2.4 2zM91 132c-4.7 2.2-7.4 1.2-8.2-3l-1.3-4-.6-2-.7-2v-.6H83c.4 0 .6.3.7.5.5 2 1.3 4.6 2.3 7.4.3 1.6 1.4 2 3.3 1.5l-.6-6 .7-.2 1.8 4.7c0 .6.4 1 1 .8.6 0 1 .4 1.2.7 0 .7-.8 1.4-2.5 2zm-.6-21l-1.8-1 4.6-1.8 4-1.5-.6-1.8v-.4h.3c1.4-.4 2.5-.5 3-.6.2 0 .3 0 .4.3 0 .3 0 .6.2 1l1.6-.7c2.5-1 4.3-2 5.5-2.6l1 .4 1 .4c.3 0 .4.2.4.3 0 .2 0 .3-.3.4l-3 1c-1.3.6-2.2 1-2.6 1l-3 1.3.6 1.4 3-1c.3-.3.4-.5.4-.7v-.6c0-.3 0-.4.4-.4l3.8.5c.3 0 .5 0 .7.2l-.5.6c-.3.2-.4.4-.3.8l.4 1 1 2.6v.5h-.2c-.4.5-1 1-1.6 1.4 1.5-.2 2.6 0 3.5 0 1 .2 1 .7.8 1.7v.4l-.7 2c1.2 0 2 0 2.8.2 1.4 0 2 .7 1.5 1.8 0 1-.4 2-1 2.6-1.7-1.3-3.6-2.6-5.6-3.7l.2-1h1.4c-.6-.7-1.3-1.2-2-1.7l-4 2.5c-1 .6-2 1-2.6 1.5 1.8-.3 3-.4 4-.4.7 0 1 .4 1 1-.3 1.4-.6 2.3-1 3-1.4-1.2-3-2-5-2.8v-.4l-1 .7-1 .6h.8c.3 0 .5 0 .7.4 1.6 2.4 4.2 3 7.7 1.8l.3-4 .8-.2c.3 1.2.6 2 1 2.8 0 .3.4.5 1.3.3.7.2 1 .3 1.2.6.2.4 0 .8-1 1.4-5 3-9 3.6-12 1.7-1-.7-2-2-3-3.6 0 .2-.2.3-.4.4-.3 0-.5.2-.6.3 1.3 2 1.6 4.2 1 6.8-1.3-.6-2.3-1.3-3.2-2-.4-.3-.5-.6-.2-1l.2-.3c.7-1.3 1-2.3 1.2-3-.2.2-.5.2-.7 0l-2.3-2.5 8.4-3.2-.5-1.6-3.2 1.2c0 .2 0 .3-.2.5l-.2.2-2 1.4c-.3.2-.4 0-.4-.2l-2-5.6-1-2v-.4h.4c1-.2 2-.3 3.2-.3l3.3-1.5-.5-1.4-3.8 1.6-3.6 1.5zm14.3 3l-1 .5.7 1.6 4.2-1.5c-.2 0-.4-.3-.8-.5l-.7-.4.3-.6c-.3 0-1 .4-1.7.7l-1 .4zm-1-2.5l-.7.3.3 1.3h.5l.4-.2 2.7-1.2-.5-1.3-2.8 1.2zm2-3.6l-3.6 1.4.5 1.2.4-.2c1.4-.7 2.2-1 2.6-1.4l.4.2v.2l-.4-1.5zm-7.8 6c-.4 0-1 .4-1.6.7l.5 1.2 3-1.4-.4-1.3-1.7.7zm-2-.7l1-.4 2.2-1-.4-1.2-3.3 1.3.4 1.3zm20.8-3l-2-1c.6-.4 1.4-.7 2.5-1.2l2-.5 2.5-1.2.4-2.3-2 .8c-.8.3-1.7.7-2.7 1.3l-1.8-1 2.2-1 1.3-.4 3-1.3v-3-2.6l-.3-1.3V95c0-.2.2-.2.5 0 1 0 2 .2 3.4.6.3 0 .4.3.3.6v1.4l-.3 2v1.1l1.8-.8c.3-1 .6-2.4.8-4v-2c0-.5.2-.7.8-.6 1 0 2 .3 3 .5.2 0 .3 0 .4.2l-.2.3-1 1.6c-1 1.4-1.8 2.5-2.5 3.2 1.7-.7 3-1.4 3.8-2 .2.2.5.4 1 .5l.8.4.4.4-.5.3c-1.3.5-2.7 1-4 1.7l-4.5 2c0 .2 0 .6-.2 1 0 .7 0 1-.2 1.4l5.6-2.3c2.6-1.2 4.4-2 5.3-2.6.5 0 1.2.4 2 1h.2c0 .2 0 .3-.3.3l-3 1.2-2 .8-2.5 1c2.7.7 5.8.8 9.2.3v.7c-.4.7-.8 1.8-1 3.3-.2.4-.5.6-1 .4h-.4c-1-.2-2-.4-2.5-.7v.2l1 4c.2.8 0 1.5-.5 2-.4.7-.8 1.3-1 2-.4.7-.7 1-1 1-.4 0-.7-.2-.8-.8-.2-.6-.6-1-1-1l-2-.2h-1.5v-.8l4-.8c0-.5-.3-2-1-4.2v-.7l-3.7 1.6.2.4c0 .3 0 .6-.2 1v.8c-.6 4-3 7-7.3 9.3l-.4-.3c2.6-2.8 3.8-5.5 3.8-8v-1.4c-.3 0-.6.2-1 .5l-.8.2c-1.2 1.4-2.5 2.7-4 4l-.5-.3c2-3.2 3.2-6 3.8-8.5l-1 .6c-.4 0-1 .3-2 .7l-1.5.7zm8.4-3.7c-.3 1.4-1 2.8-1.6 4l.7-.3 6-2.6c.5-.2.7-.4.7-.7v-.7c0-.2-.4-.5-.7-.8l-1-.6-4 1.6zm-6-3.6c-1.2-1.5-2.6-3-4.2-4l.4-.8c1.7 0 3.2.3 4.5.7.7 0 1 .6.8 1.4-.3.8-.8 1.6-1.5 2.6z" fill="#FFF"/><g transform="rotate(160 57.553 55.324)"><mask id="e" fill="#fff"><use xlink:href="#d"/></mask><use fill="#FFD24C" xlink:href="#d"/><ellipse fill="#FFE74C" mask="url(#e)" cx="43.5" cy="36" rx="37.5" ry="36"/></g><g transform="rotate(-20 199.64 -127.924)"><path d="M28 6.3c0 1.2-1.2 2-2.5 2s-2.4-.8-2.7-2" stroke="#6D441F" stroke-width="1.6" stroke-linecap="round"/><ellipse fill="#6D441F" cx="13" cy="3.9" rx="3.4" ry="3.4"/><ellipse fill="#6D441F" cx="38" cy="3.9" rx="3.4" ry="3.4"/><ellipse fill="#FF5700" opacity=".7" cx="44.6" cy="14.8" rx="5.8" ry="5.8"/><ellipse fill="#FF5700" opacity=".7" cx="5.9" cy="14.8" rx="5.8" ry="5.8"/></g><g><path d="M145.4 90c1.7-5 7-7.4 12-5.7l28.5 10.4c4.7 1.8 7.2 7.2 5.5 12v.4c-1.8 5-7 7.2-11.8 5.3l-12.5-5.2-16-5.7c-5-1.8-7.4-7-5.6-12l-.2.6z" fill="#FFD1AF"/><path d="M151.8 98.6c3 1.2 5.2-1 6.4-4 1-3 .8-6-2.3-7.2-3.2-1.2-6.7.4-7.8 3.5-1 3 .5 6.5 3.6 7.6z" fill="#FFEADA"/></g></g></svg>