<?xml version="1.0" encoding="UTF-8" standalone="no"?>
<svg width="218px" height="157px" viewBox="0 0 218 157" version="1.1" xmlns="http://www.w3.org/2000/svg" xmlns:xlink="http://www.w3.org/1999/xlink">
    <!-- Generator: Sketch 40 (33762) - http://www.bohemiancoding.com/sketch -->
    <title>Group 6</title>
    <desc>Created with Sketch.</desc>
    <defs>
        <linearGradient x1="62.6053347%" y1="58.4108709%" x2="85.3834931%" y2="93.0731005%" id="linearGradient-1">
            <stop stop-color="#FFD1AF" offset="0%"></stop>
            <stop stop-color="#FFD1AF" offset="100%"></stop>
        </linearGradient>
        <linearGradient x1="50%" y1="0%" x2="55.6823373%" y2="115.207809%" id="linearGradient-2">
            <stop stop-color="#F8B787" offset="0%"></stop>
            <stop stop-color="#E19964" offset="100%"></stop>
        </linearGradient>
        <linearGradient x1="100%" y1="100%" x2="2.83276945e-14%" y2="0%" id="linearGradient-3">
            <stop stop-color="#FF2B3F" offset="0%"></stop>
            <stop stop-color="#FF415B" offset="100%"></stop>
        </linearGradient>
        <ellipse id="path-4" cx="36.8233023" cy="35.3211781" rx="36.8233023" ry="35.3211781"></ellipse>
    </defs>
    <g id="Page-1" stroke="none" stroke-width="1" fill="none" fill-rule="evenodd">
        <g id="领取优惠券" transform="translate(-532.000000, -911.000000)">
            <g id="Group-6" transform="translate(529.000000, 908.000000)">
                <path d="M221,108 L210.724355,97.7243548 C210.486846,93.9116822 210.486846,90.2202973 210.486846,85.706745 C210.486846,66.9290636 198.660555,49 176.5,49 C154.339445,49 131,68.2223185 131,87 C131,94.7993363 153.261039,91.2091722 160.763839,100.504248 C171.32478,113.587997 177.243446,124.739855 191.351165,124.739855 C193.188365,124.739855 195.589518,125.379936 198.158508,126.175435 L216.975922,144.992849 C218.180338,146.197265 219.544323,147.145615 221,147.837798 L221,108 Z" id="Combined-Shape" fill="url(#linearGradient-1)"></path>
                <ellipse id="Oval-3" fill="url(#linearGradient-2)" cx="173.5" cy="79.5" rx="12.5" ry="10.5"></ellipse>
                <g id="Group-3" transform="translate(90.357299, 81.392212) rotate(-20.000000) translate(-90.357299, -81.392212) translate(15.857299, 21.892212)">
                    <path d="M149,69.4166667 L149,106.907152 C149,113.585848 143.586876,119 136.901416,119 L12.0985842,119 C5.41672067,119 1.24344979e-13,113.577594 1.24344979e-13,106.907152 L1.24344979e-13,69.4166667 C5.48602851,69.4166667 9.93333333,64.9768238 9.93333333,59.5 C9.93333333,54.0231762 5.48602851,49.5833333 1.24344979e-13,49.5833333 L1.24344979e-13,12.0928476 C1.24344979e-13,5.41415229 5.41312395,7.10542736e-15 12.0985842,7.10542736e-15 L136.901416,7.10542736e-15 C143.583279,7.10542736e-15 149,5.42240632 149,12.0928476 L149,49.5833333 C143.513971,49.5833333 139.066667,54.0231762 139.066667,59.5 C139.066667,64.9768238 143.513971,69.4166667 149,69.4166667 Z" id="Combined-Shape" fill="url(#linearGradient-3)"></path>
                    <g id="Group-4" transform="translate(74.500000, 44.625000) scale(-1, 1) translate(-74.500000, -44.625000) translate(37.525926, 8.814815)">
                        <g id="Oval-Copy-8">
                            <mask id="mask-5" fill="white">
                                <use xlink:href="#path-4"></use>
                            </mask>
                            <use id="Mask" fill="#FFD24C" xlink:href="#path-4"></use>
                            <ellipse fill="#FFE74C" mask="url(#mask-5)" cx="43.1852625" cy="35.3211781" rx="36.8233023" ry="35.3211781"></ellipse>
                        </g>
                        <g id="Group-2" transform="translate(11.090053, 20.201489)">
                            <path d="M28.1420346,6.29480205 L28.1420346,6.29480205 C27.8582822,7.51011273 26.7791429,8.41450533 25.4912179,8.41450533 C24.2032928,8.41450533 23.1241535,7.51011273 22.8404011,6.29480205" id="Combined-Shape" stroke="#6D441F" stroke-width="1.584" stroke-linecap="round"></path>
                            <ellipse id="Oval-7" fill="#6D441F" cx="13.0323791" cy="3.91013587" rx="3.44606178" ry="3.44451783"></ellipse>
                            <ellipse id="Oval-7-Copy" fill="#6D441F" cx="37.9500566" cy="3.91013587" rx="3.44606178" ry="3.44451783"></ellipse>
                            <ellipse id="Oval-7-Copy-2" fill="#FF5700" opacity="0.7" cx="44.5770985" cy="14.7736152" rx="5.83179686" ry="5.82918402"></ellipse>
                            <ellipse id="Oval-7-Copy-3" fill="#FF5700" opacity="0.7" cx="5.87517386" cy="14.7736152" rx="5.83179686" ry="5.82918402"></ellipse>
                        </g>
                    </g>
                    <path d="M42.634375,108.42581 L42.221875,108.01331 C45.1781398,104.300792 46.9999966,99.2820918 47.6875,92.9570602 L47.584375,92.9570602 C46.8968716,92.9570602 45.8656319,93.0258095 44.490625,93.1633102 L43.35625,91.5133102 C45.35001,91.5133102 46.5874976,91.4789355 47.06875,91.4101852 L47.89375,91.4101852 C48.0312507,90.0351783 48.1343747,88.6945667 48.203125,87.3883102 L48.203125,84.1914352 C48.203125,83.9851842 48.2374997,83.8820602 48.30625,83.8820602 C48.3750003,83.8133098 48.512499,83.8476845 48.71875,83.9851852 C50.3000079,84.4664376 51.2624983,84.8789335 51.60625,85.2226852 C51.812501,85.2226852 51.8812503,85.3945585 51.8125,85.7383102 C51.7437497,86.3570633 51.6406257,87.1476804 51.503125,88.1101852 C51.503125,88.5914376 51.4343757,89.2789307 51.296875,90.1726852 C51.2281247,90.6539376 51.19375,90.9976842 51.19375,91.2039352 L54.803125,90.9976852 C54.9406257,90.9976852 55.1468736,90.9633105 55.421875,90.8945602 L56.040625,90.8945602 C55.0093698,89.0383009 53.9781302,87.4914414 52.946875,86.2539352 L53.4625,85.7383102 C55.5937607,86.2883129 57.0718709,86.8726821 57.896875,87.4914352 C58.6531288,87.7664366 58.8250021,88.2133071 58.4125,88.8320602 C57.9999979,89.6570643 57.5187527,90.3101828 56.96875,90.7914352 C57.5875031,90.6539345 58.2062469,90.5508105 58.825,90.4820602 C59.4437531,91.1008133 59.856249,91.6164331 60.0625,92.0289352 C60.2000007,92.1664359 60.2343753,92.2695598 60.165625,92.3383102 C60.165625,92.4070605 60.062501,92.4414352 59.85625,92.4414352 C57.7937397,92.4414352 56.3500041,92.4758098 55.525,92.5445602 L51.090625,92.7508102 C50.3343712,100.72585 47.5156494,105.950798 42.634375,108.42581 L42.634375,108.42581 Z M39.025,108.42581 C38.6812483,108.494561 38.5437497,108.357062 38.6125,108.01331 C38.7500007,105.9508 38.8874993,102.203962 39.025,96.7726852 L39.025,95.1226852 C37.9937448,96.2226907 36.8937558,97.2539304 35.725,98.2164352 L35.209375,97.8039352 C37.203135,94.5039187 38.8874931,91.0320784 40.2625,87.3883102 C40.7437524,86.2195543 41.087499,85.15394 41.29375,84.1914352 C41.4312507,83.6414324 41.7062479,83.5039338 42.11875,83.7789352 C43.2875058,84.3976883 44.3531202,85.0851814 45.315625,85.8414352 C45.6593767,85.9789359 45.6593767,86.2195585 45.315625,86.5633102 C44.9031229,87.0445626 44.3875031,87.800805 43.76875,88.8320602 C43.1499969,89.794565 42.5656277,90.6883061 42.015625,91.5133102 C42.0843753,91.5133102 42.1874993,91.5476848 42.325,91.6164352 C42.3937503,91.6164352 42.4624997,91.6508098 42.53125,91.7195602 C42.53125,91.7195602 42.5656247,91.7539348 42.634375,91.8226852 C42.7031253,91.8226852 42.7375,91.9258092 42.7375,92.1320602 C42.4624986,97.6320877 42.325,102.513289 42.325,106.77581 L42.325,106.878935 C42.2562497,107.291437 42.118751,107.497685 41.9125,107.497685 C40.9499952,107.910187 39.9875048,108.219559 39.025,108.42581 L39.025,108.42581 Z M57.896875,107.60081 C52.8093496,108.013312 50.6093716,106.157081 51.296875,102.03206 C51.296875,101.619558 51.3656243,100.175823 51.503125,97.7008102 C51.5718753,96.7383054 51.60625,96.0508122 51.60625,95.6383102 C51.6750003,95.0883074 51.709375,94.3664397 51.709375,93.4726852 C51.709375,93.2664342 51.7437497,93.1289355 51.8125,93.0601852 C51.8812503,93.0601852 52.0531236,93.0945598 52.328125,93.1633102 C52.6031264,93.2320605 53.0843716,93.4383085 53.771875,93.7820602 C54.1156267,93.9195609 54.3562493,94.0226848 54.49375,94.0914352 C54.8375017,94.2289359 54.9750003,94.4351838 54.90625,94.7101852 C54.699999,96.9101962 54.5625003,99.5226701 54.49375,102.547685 C54.2187486,104.128943 55.1124897,104.953935 57.175,105.022685 L58.61875,99.2476852 L59.340625,99.3508102 L59.340625,104.403935 C59.2718747,105.022688 59.4781226,105.366435 59.959375,105.435185 C60.5781281,105.778937 60.8875,106.157058 60.8875,106.56956 C60.7499993,107.257064 59.7531343,107.60081 57.896875,107.60081 L57.896875,107.60081 Z M64.6,87.8008102 L63.259375,86.1508102 C65.9406384,86.1508102 67.5906219,86.1164355 68.209375,86.0476852 L72.540625,85.9445602 L72.540625,84.0883102 C72.540625,83.8820592 72.5749997,83.7789352 72.64375,83.7789352 C72.64375,83.7101848 72.746874,83.7101848 72.953125,83.7789352 C74.4656326,84.0539366 75.4968722,84.2601845 76.046875,84.3976852 C76.253126,84.3976852 76.3218753,84.5351838 76.253125,84.8101852 C76.253125,85.0851866 76.2187503,85.3945585 76.15,85.7383102 L77.903125,85.7383102 C80.5843884,85.6008095 82.6124931,85.3945616 83.9875,85.1195602 C84.1250007,85.2570609 84.3999979,85.4976835 84.8125,85.8414352 C85.2250021,86.1851869 85.4999993,86.4258095 85.6375,86.5633102 C85.7750007,86.7695612 85.84375,86.9070598 85.84375,86.9758102 C85.7749997,87.0445605 85.6031264,87.0789352 85.328125,87.0789352 L82.3375,87.0789352 C80.8249924,87.1476855 79.8281274,87.1820602 79.346875,87.1820602 L76.15,87.2851852 L76.15,88.7289352 L79.346875,88.6258102 C79.6906267,88.5570598 79.8968747,88.4195612 79.965625,88.2133102 C80.1031257,88.0758095 80.171875,87.9039362 80.171875,87.6976852 C80.2406253,87.4226838 80.4124986,87.3539345 80.6875,87.4914352 C82.2000076,88.1789386 83.3343712,88.7633078 84.090625,89.2445602 C84.3656264,89.3820609 84.5374997,89.5195595 84.60625,89.6570602 C84.5374997,89.7945609 84.3656264,89.9320595 84.090625,90.0695602 C83.7468733,90.1383105 83.575,90.3445585 83.575,90.6883102 L83.575,91.8226852 C83.5062497,93.1289417 83.5062497,94.0570574 83.575,94.6070602 C83.575,94.8133112 83.5062507,94.9508098 83.36875,95.0195602 C83.36875,94.9508098 83.3343753,94.9508098 83.265625,95.0195602 C82.7156222,95.2945616 82.0625038,95.5351842 81.30625,95.7414352 C82.6812569,96.1539372 83.7468712,96.6351824 84.503125,97.1851852 C85.2593788,97.5289369 85.3281281,98.1133061 84.709375,98.9383102 C84.6406247,99.0070605 84.5375007,99.1101845 84.4,99.2476852 C83.8499972,100.003939 83.4375014,100.519559 83.1625,100.79456 C84.2625055,101.207062 85.1218719,101.585183 85.740625,101.928935 C86.9093808,102.478938 87.1500034,103.200806 86.4625,104.09456 C85.9812476,104.988315 85.3625038,105.710182 84.60625,106.260185 C83.4374942,104.403926 82.0968826,102.582069 80.584375,100.79456 L81.203125,100.072685 C81.6843774,100.278936 82.1312479,100.416435 82.54375,100.485185 C82.1312479,99.7289314 81.6843774,99.0070636 81.203125,98.3195602 C80.3093705,98.5258112 78.7968857,98.8351831 76.665625,99.2476852 C75.3593685,99.4539362 74.3625034,99.6258095 73.675,99.7633102 C75.3937586,100.107062 76.6656209,100.450808 77.490625,100.79456 C78.1781284,101.138312 78.3500017,101.619557 78.00625,102.23831 C77.3187466,103.338316 76.7343774,104.128933 76.253125,104.610185 C75.2218698,103.028927 73.9500076,101.585192 72.4375,100.278935 L72.64375,99.9695602 C72.2999983,100.038311 71.8187531,100.10706 71.2,100.17581 C70.7187476,100.313311 70.3406264,100.38206 70.065625,100.38206 C70.4781271,100.450811 70.787499,100.553934 70.99375,100.691435 C71.2687514,100.760186 71.4406247,100.932059 71.509375,101.20706 C72.1968784,104.094575 74.3968564,105.53831 78.109375,105.53831 L79.759375,101.82581 L80.584375,102.03206 C80.5156247,103.200816 80.48125,104.163306 80.48125,104.91956 C80.4124997,105.263312 80.8249955,105.538309 81.71875,105.74456 C82.3375031,106.019562 82.646875,106.294559 82.646875,106.56956 C82.7156253,106.982062 82.2687548,107.325809 81.30625,107.60081 C75.4624708,108.700816 71.4750107,107.841449 69.34375,105.022685 C68.6562466,103.99143 68.1750014,102.547694 67.9,100.691435 C67.7624993,100.691435 67.5562514,100.72581 67.28125,100.79456 C67.0062486,100.79456 66.8000007,100.828935 66.6625,100.897685 C67.2125027,103.166447 66.7312576,105.400799 65.21875,107.60081 C64.2562452,106.569555 63.5000027,105.57269 62.95,104.610185 C62.6749986,104.197683 62.7093733,103.888311 63.053125,103.68206 C63.1218753,103.61331 63.2249993,103.510186 63.3625,103.372685 C64.4625055,102.41018 65.1843733,101.653938 65.528125,101.103935 C65.2531236,101.103935 65.0468757,100.966437 64.909375,100.691435 C64.5656233,100.141432 64.0843781,99.1101927 63.465625,97.5976852 L72.4375,97.3914352 L72.4375,95.7414352 L69.034375,95.8445602 C69.034375,96.0508112 68.8968764,96.1883098 68.621875,96.2570602 C68.5531247,96.2570602 68.4500007,96.2914348 68.3125,96.3601852 C67.4874959,96.6351866 66.6625041,96.8758092 65.8375,97.0820602 C65.5624986,97.1508105 65.4593747,97.0476866 65.528125,96.7726852 L65.528125,90.7914352 C65.528125,89.8289304 65.4937503,89.1070626 65.425,88.6258102 C65.425,88.3508088 65.4593747,88.2133102 65.528125,88.2133102 C65.528125,88.1445598 65.6656236,88.1445598 65.940625,88.2133102 C66.9031298,88.4883116 67.8999948,88.7976835 68.93125,89.1414352 L72.540625,88.9351852 L72.540625,87.4914352 L68.51875,87.5945602 C67.6937459,87.5945602 66.3875089,87.6633095 64.6,87.8008102 L64.6,87.8008102 Z M76.975,95.4320602 L76.046875,95.5351852 L76.046875,97.2883102 L80.48125,97.1851852 C80.4124997,97.0476845 80.2406264,96.8070619 79.965625,96.4633102 C79.759374,96.1883088 79.5875007,95.9820609 79.45,95.8445602 L79.8625,95.3289352 C79.4499979,95.3289352 78.8312541,95.3633098 78.00625,95.4320602 L76.975,95.4320602 L76.975,95.4320602 Z M76.975,92.6476852 L76.15,92.7508102 L76.046875,94.0914352 L76.5625,94.0914352 L76.975,94.0914352 C78.4875076,93.9539345 79.4843726,93.8851852 79.965625,93.8851852 L79.965625,92.5445602 C79.3468719,92.6133105 78.3500069,92.6476852 76.975,92.6476852 L76.975,92.6476852 Z M79.965625,89.9664352 L76.15,90.1726852 L76.15,91.4101852 L76.5625,91.4101852 L76.76875,91.4101852 C78.2125072,91.2726845 79.1406229,91.1351859 79.553125,90.9976852 L79.8625,91.3070602 C79.9312503,91.4445609 79.965625,91.5133102 79.965625,91.5133102 L79.965625,89.9664352 Z M70.684375,93.0601852 C70.2718729,93.0601852 69.7218784,93.0945598 69.034375,93.1633102 L69.034375,94.5039352 L72.4375,94.2976852 L72.4375,92.9570602 L70.684375,93.0601852 Z M69.034375,91.7195602 L70.16875,91.7195602 L72.540625,91.6164352 L72.540625,90.3789352 L69.034375,90.4820602 L69.034375,91.7195602 Z M89.659375,95.9476852 L88.215625,94.2976852 C88.8343781,94.2976852 89.7281192,94.2633105 90.896875,94.1945602 L92.85625,94.1945602 L95.74375,93.9883102 C96.1562521,93.3695571 96.5343733,92.682064 96.878125,91.9258102 L94.7125,92.0289352 C93.8874959,92.0289352 92.8906308,92.1320592 91.721875,92.3383102 L90.484375,90.6883102 C91.1031281,90.6883102 91.8937452,90.6539355 92.85625,90.5851852 L94.3,90.5851852 L97.6,90.3789352 C98.0125021,89.5539311 98.3562486,88.66019 98.63125,87.6976852 C98.837501,87.1476824 99.0781236,86.288316 99.353125,85.1195602 C99.4906257,84.5008071 99.5937497,84.0539366 99.6625,83.7789352 C99.7312503,83.5039338 99.7999997,83.3664352 99.86875,83.3664352 C99.9375003,83.2976848 100.074999,83.3320595 100.28125,83.4695602 C101.106254,83.8820622 102.103119,84.5008061 103.271875,85.3258102 C103.271875,85.3258102 103.30625,85.3601848 103.375,85.4289352 C103.581251,85.5664359 103.581251,85.7726838 103.375,86.0476852 C103.237499,86.3226866 103.065626,86.7351824 102.859375,87.2851852 C102.446873,88.24769 102.137501,88.9008085 101.93125,89.2445602 C101.93125,89.3133105 101.896875,89.4508092 101.828125,89.6570602 C101.759375,89.7945609 101.690625,89.9320595 101.621875,90.0695602 L103.58125,89.9664352 C104.268753,89.0039304 104.956247,87.8695667 105.64375,86.5633102 C105.987502,85.8758067 106.262499,85.2226883 106.46875,84.6039352 C106.5375,84.0539324 106.846872,83.9508085 107.396875,84.2945602 C108.35938,84.7758126 109.218746,85.2570578 109.975,85.7383102 C110.181251,85.8758109 110.284375,85.9789348 110.284375,86.0476852 C110.284375,86.1851859 110.181251,86.2883098 109.975,86.3570602 C109.837499,86.4945609 109.321879,86.8726821 108.428125,87.4914352 C107.053118,88.5914407 105.918754,89.3820578 105.025,89.8633102 C106.743759,89.6570592 108.118745,89.4851859 109.15,89.3476852 C109.287501,89.4851859 109.562498,89.7258085 109.975,90.0695602 C110.318752,90.4133119 110.525,90.6195598 110.59375,90.6883102 C110.731251,90.8945612 110.8,91.0320598 110.8,91.1008102 C110.73125,91.1695605 110.559376,91.2039352 110.284375,91.2039352 C108.840618,91.2039352 107.362508,91.2726845 105.85,91.4101852 L101.003125,91.7195602 C100.865624,91.9258112 100.693751,92.2695578 100.4875,92.7508102 C100.212499,93.2320626 100.006251,93.6101838 99.86875,93.8851852 L105.85,93.5758102 C108.737514,93.3695592 110.69687,93.1633112 111.728125,92.9570602 C112.140627,93.3008119 112.656247,93.8508064 113.275,94.6070602 C113.412501,94.7445609 113.446875,94.8476848 113.378125,94.9164352 C113.378125,94.9851855 113.275001,95.0195602 113.06875,95.0195602 C112.518747,95.0195602 111.453133,95.0539348 109.871875,95.1226852 L107.70625,95.1226852 L104.921875,95.2258102 C107.328137,96.8070681 110.215608,97.9414317 113.584375,98.6289352 L113.48125,99.3508102 C112.793747,99.9008129 112.037504,100.794554 111.2125,102.03206 C111.006249,102.444562 110.662502,102.478937 110.18125,102.135185 C110.1125,102.066435 110.009376,101.997686 109.871875,101.928935 C108.84062,101.447683 108.118752,100.966438 107.70625,100.485185 L107.70625,100.691435 C107.568749,102.341443 107.431251,103.71643 107.29375,104.816435 C107.156249,105.641439 106.743753,106.225808 106.05625,106.56956 C105.437497,106.982062 104.887502,107.463307 104.40625,108.01331 C103.856247,108.563313 103.409377,108.803936 103.065625,108.735185 C102.721873,108.597684 102.584375,108.219563 102.653125,107.60081 C102.721875,106.913307 102.515627,106.466436 102.034375,106.260185 C101.828124,106.122684 101.243755,105.847687 100.28125,105.435185 C99.5937466,105.160184 99.146876,104.953936 98.940625,104.816435 L99.25,104.197685 L103.065625,104.71331 C103.340626,104.369558 103.546874,102.994572 103.684375,100.58831 C103.753125,100.244558 103.7875,100.003936 103.7875,99.8664352 L99.86875,100.072685 C99.9375003,100.141436 99.971875,100.278934 99.971875,100.485185 C99.8343743,100.760187 99.662501,101.069558 99.45625,101.41331 C99.3187493,101.688312 99.1812507,101.928934 99.04375,102.135185 C97.2562411,105.641453 93.9562741,107.738307 89.14375,108.42581 L88.834375,107.910185 C92.1343915,106.122676 94.2312455,103.991448 95.125,101.516435 C95.2625007,101.310184 95.3999993,100.966438 95.5375,100.485185 L95.5375,100.278935 C95.2624986,100.278935 94.8843774,100.31331 94.403125,100.38206 L93.578125,100.38206 C92.0656174,101.275815 90.3812593,102.066432 88.525,102.753935 L88.1125,102.23831 C91.0000144,99.9007985 93.1656178,97.7008205 94.609375,95.6383102 L93.371875,95.7414352 C93.0281233,95.7414352 92.3750048,95.7758098 91.4125,95.8445602 C90.5187455,95.9133105 89.9343764,95.9476852 89.659375,95.9476852 L89.659375,95.9476852 Z M98.8375,95.4320602 C98.0124959,96.6695664 97.0500055,97.7351807 95.95,98.6289352 L96.671875,98.6289352 L103.375,98.2164352 C103.787502,98.2164352 104.028125,98.0789366 104.096875,97.8039352 C104.303126,97.5976842 104.440625,97.3914362 104.509375,97.1851852 L104.509375,97.0820602 C104.371874,96.8758092 104.200001,96.5664372 103.99375,96.1539352 C103.718749,95.8101835 103.512501,95.5351862 103.375,95.3289352 L98.8375,95.4320602 Z M94.50625,90.0695602 C93.8187466,88.1445506 92.9593802,86.3570684 91.928125,84.7070602 L92.44375,84.1914352 C94.0250079,84.8789386 95.3656195,85.6008064 96.465625,86.3570602 C97.2218788,86.8383126 97.3250027,87.4226817 96.775,88.1101852 C96.2937476,88.7289383 95.5375052,89.3820567 94.50625,90.0695602 L94.50625,90.0695602 Z" id="优惠券" fill="#FFFFFF"></path>
                </g>
                <rect id="Rectangle-3" x="0" y="0" width="221" height="170"></rect>
                <circle id="Oval-4" fill="#FFD1AF" cx="182.5" cy="103.5" r="8.5"></circle>
                <g id="Group-5" transform="translate(168.500000, 98.000000) rotate(10.000000) translate(-168.500000, -98.000000) translate(142.000000, 84.000000)">
                    <path d="M1.9479527,14.3064048 C1.9479527,9.16840495 6.10452766,5.00323312 11.2509335,5.00323312 L41.6449718,5.00323312 C46.7828663,5.00323312 50.9860605,9.16952974 51.0329963,14.3009807 L51.0365572,14.6902933 C51.0835255,19.8252975 46.9615839,23.8079848 41.8342636,23.5860615 L28.3685905,23.0032331 L11.244302,23.0032331 C6.11007003,23.0032331 1.9479527,18.8397532 1.9479527,13.7000615 L1.9479527,14.3064048 Z" id="Rectangle-21" fill="#FFD1AF" transform="translate(26.492454, 14.299068) rotate(10.000000) translate(-26.492454, -14.299068) "></path>
                    <path d="M11.2071068,17.5 C14.5208153,17.5 15.7928932,14.8137085 15.7928932,11.5 C15.7928932,8.1862915 14.5208153,5.5 11.2071068,5.5 C7.89339828,5.5 5.20710678,8.1862915 5.20710678,11.5 C5.20710678,14.8137085 7.89339828,17.5 11.2071068,17.5 Z" id="Oval-6" fill="#FFEADA" transform="translate(10.500000, 11.500000) rotate(10.000000) translate(-10.500000, -11.500000) "></path>
                </g>
            </g>
        </g>
    </g>
</svg>