<?xml version="1.0" encoding="UTF-8" standalone="no"?>
<svg width="231px" height="35px" viewBox="0 0 231 35" version="1.1" xmlns="http://www.w3.org/2000/svg" xmlns:xlink="http://www.w3.org/1999/xlink">
    <!-- Generator: Sketch 40 (33762) - http://www.bohemiancoding.com/sketch -->
    <title>点击领取</title>
    <desc>Created with Sketch.</desc>
    <defs></defs>
    <g id="Page-1" stroke="none" stroke-width="1" fill="none" fill-rule="evenodd">
        <g id="领取优惠券详情" transform="translate(-265.000000, -886.000000)">
            <g id="点击领取" transform="translate(380.500000, 903.000000) scale(-1, 1) translate(-380.500000, -903.000000) translate(263.000000, 884.000000)">
                <path d="M50.28125,36.78125 C49.2499948,35.9374958 48.2656297,34.6250089 47.328125,32.84375 C46.9531231,32.2812472 47.0468722,31.9062509 47.609375,31.71875 C49.5781348,30.4062434 51.1718689,28.6250113 52.390625,26.375 C52.2968745,26.375 52.1562509,26.4218745 51.96875,26.515625 C51.6874986,26.515625 51.5000005,26.5624995 51.40625,26.65625 C50.9374977,26.7500005 50.7499995,26.5625023 50.84375,26.09375 L50.84375,22.859375 C50.9375005,21.265617 50.984375,19.9531302 50.984375,18.921875 C50.984375,16.6718638 50.9375005,14.843757 50.84375,13.4375 C50.84375,13.0624981 50.8906245,12.8281255 50.984375,12.734375 C51.0781255,12.6406245 51.2656236,12.6406245 51.546875,12.734375 C53.0468825,13.1093769 54.5468675,13.5781222 56.046875,14.140625 L59.984375,13.859375 L60.125,8.234375 L60.125,2.890625 C60.125,2.51562313 60.1718745,2.328125 60.265625,2.328125 C60.3593755,2.23437453 60.5468736,2.23437453 60.828125,2.328125 C62.8906353,2.79687734 64.5312439,3.31249719 65.75,3.875 C66.0312514,3.96875047 66.1250005,4.15624859 66.03125,4.4375 L66.03125,5.5625 C65.9374995,6.40625422 65.890625,7.01562313 65.890625,7.390625 L69.40625,7.109375 C71.4687603,7.109375 73.7656123,6.87500234 76.296875,6.40625 C76.9531283,6.96875281 77.6093717,7.67187078 78.265625,8.515625 C78.4531259,8.70312594 78.546875,8.84374953 78.546875,8.9375 C78.4531245,9.03125047 78.2187519,9.078125 77.84375,9.078125 C74.7499845,9.078125 72.6875052,9.12499953 71.65625,9.21875 L65.890625,9.5 L65.75,13.71875 L69.265625,13.578125 C69.5468764,13.578125 69.8281236,13.4375014 70.109375,13.15625 C70.2031255,13.0624995 70.2968745,12.8750014 70.390625,12.59375 C70.4843755,12.4999995 70.53125,12.4062505 70.53125,12.3125 C70.6250005,11.7499972 70.9999967,11.6562481 71.65625,12.03125 C72.1250023,12.3125014 72.8281203,12.7343722 73.765625,13.296875 C74.8906306,14.0468788 75.6874977,14.5624986 76.15625,14.84375 C76.6250023,15.1250014 76.859375,15.3593741 76.859375,15.546875 C76.859375,15.7343759 76.6250023,15.9687486 76.15625,16.25 C75.4999967,16.4375009 75.2187495,16.8593717 75.3125,17.515625 C75.2187495,19.9531372 75.2187495,21.968742 75.3125,23.5625 C75.3125,23.8437514 75.2187509,24.0781241 75.03125,24.265625 L74.890625,24.40625 C73.3906175,25.1562538 72.0781306,25.6718736 70.953125,25.953125 C70.2031213,26.2343764 69.8749995,26.0937528 69.96875,25.53125 L69.96875,23.84375 C69.6874986,23.84375 69.2187533,23.8906245 68.5625,23.984375 L67.4375,23.984375 L56.046875,24.265625 C56.1406255,24.8281278 56.0000019,25.1562495 55.625,25.25 C54.7812458,25.7187523 53.7500061,26.0937486 52.53125,26.375 L53.515625,26.515625 C53.9843773,30.1718933 52.9062631,33.5937341 50.28125,36.78125 L50.28125,36.78125 Z M69.96875,15.6875 L56.1875,16.25 L56.046875,22.15625 L67.015625,21.875 L68.421875,21.875 C69.0781283,21.7812495 69.5937481,21.734375 69.96875,21.734375 L69.96875,15.6875 Z M75.875,36.078125 C74.468743,33.07811 72.6875108,30.1250145 70.53125,27.21875 L71.234375,26.515625 C74.5156414,27.6406306 76.9062425,28.906243 78.40625,30.3125 C79.6250061,30.8750028 79.7187552,31.7656189 78.6875,32.984375 C78.1249972,33.7343788 77.1875066,34.7656184 75.875,36.078125 L75.875,36.078125 Z M66.3125,35.234375 C65.7499972,32.6093619 64.8125066,29.79689 63.5,26.796875 L64.0625,26.234375 C66.2187608,27.2656302 67.9531184,28.484368 69.265625,29.890625 C70.3906306,30.6406288 70.3906306,31.4374958 69.265625,32.28125 C68.7031222,33.0312538 67.718757,34.0156189 66.3125,35.234375 L66.3125,35.234375 Z M58.296875,35.65625 C57.9218731,33.1249873 57.3125042,30.2187664 56.46875,26.9375 L57.3125,26.375 C59.0937589,27.781257 60.5937439,29.187493 61.8125,30.59375 C62.6562542,31.5312547 62.5625052,32.3749963 61.53125,33.125 C61.4374995,33.2187505 61.2031269,33.4062486 60.828125,33.6875 C59.7968698,34.6250047 58.9531283,35.2812481 58.296875,35.65625 L58.296875,35.65625 Z M86.28125,12.03125 L84.734375,9.640625 C88.3906433,9.640625 90.5468717,9.59375047 91.203125,9.5 L96.6875,9.21875 C96.6875,6.31248547 96.6406255,4.34375516 96.546875,3.3125 C96.4531245,2.93749813 96.4531245,2.70312547 96.546875,2.609375 C96.6406255,2.51562453 96.8749981,2.51562453 97.25,2.609375 C97.7187523,2.70312547 98.5156194,2.89062359 99.640625,3.171875 C100.765631,3.45312641 101.562498,3.68749906 102.03125,3.875 C102.312501,3.96875047 102.40625,4.20312313 102.3125,4.578125 C102.3125,5.98438203 102.265625,7.48436703 102.171875,9.078125 L103.859375,8.9375 C107.328142,8.74999906 109.999991,8.46875188 111.875,8.09375 L113.140625,9.359375 C113.515627,9.82812734 113.75,10.1093745 113.84375,10.203125 C114.031251,10.4843764 114.125,10.6718745 114.125,10.765625 C114.03125,10.8593755 113.796877,10.90625 113.421875,10.90625 C110.890612,10.90625 108.312513,10.9999991 105.6875,11.1875 L102.171875,11.328125 L102.171875,16.8125 L107.09375,16.53125 C109.906264,16.4374995 112.390614,16.2031269 114.546875,15.828125 C114.921877,16.2968773 115.624995,17.0468698 116.65625,18.078125 C116.75,18.3593764 116.796875,18.5468745 116.796875,18.640625 C116.703125,18.7343755 116.515626,18.78125 116.234375,18.78125 L108.640625,18.78125 L102.171875,19.0625 L102.171875,31.15625 L107.515625,30.875 L107.515625,28.203125 C107.515625,25.3906109 107.46875,23.3750061 107.375,22.15625 C107.375,21.7812481 107.421875,21.5468755 107.515625,21.453125 C107.609375,21.3593745 107.796874,21.3593745 108.078125,21.453125 C110.328136,22.0156278 111.874996,22.4843731 112.71875,22.859375 C113.000001,22.859375 113.09375,23.0468731 113,23.421875 L113,25.8125 C112.90625,27.0312561 112.859375,27.9218722 112.859375,28.484375 L112.859375,33.40625 C112.953125,33.9687528 112.765627,34.3437491 112.296875,34.53125 C110.984368,35.0937528 109.578132,35.5156236 108.078125,35.796875 C107.609373,35.9843759 107.375,35.7968778 107.375,35.234375 L107.375,32.703125 L90.921875,33.40625 C89.328117,33.5000005 87.734383,33.8749967 86.140625,34.53125 L84.59375,32.140625 C85.7187556,32.0468745 86.2343755,31.5312547 86.140625,30.59375 L86.140625,25.8125 C86.140625,24.218742 86.0937505,23.0468788 86,22.296875 C86,21.9218731 86.2343727,21.8281241 86.703125,22.015625 C88.4843839,22.2968764 89.9374944,22.6718727 91.0625,23.140625 C91.2500009,23.140625 91.34375,23.5156213 91.34375,24.265625 L91.34375,30.03125 C91.4375005,30.7812538 91.3437514,31.2968736 91.0625,31.578125 L96.546875,31.296875 L96.6875,19.203125 L89.234375,19.484375 C88.6718722,19.484375 87.3593853,19.5312495 85.296875,19.625 C84.7343722,19.7187505 84.3125014,19.765625 84.03125,19.765625 L82.484375,17.375 C85.48439,17.375 87.4999948,17.3281255 88.53125,17.234375 L96.6875,16.953125 L96.6875,11.46875 L91.625,11.75 C90.6874953,11.75 88.9062631,11.8437491 86.28125,12.03125 L86.28125,12.03125 Z M135.078125,28.34375 C134.796874,28.4375005 134.65625,28.4375005 134.65625,28.34375 C134.5625,28.34375 134.515625,28.2031264 134.515625,27.921875 C134.609375,27.2656217 134.65625,26.3281311 134.65625,25.109375 C134.75,23.8906189 134.796875,22.9531283 134.796875,22.296875 C134.609374,22.3906255 134.234378,22.5312491 133.671875,22.71875 C133.203123,22.6249995 132.593754,22.9999958 131.84375,23.84375 C130.062491,25.6250089 128.70313,26.9374958 127.765625,27.78125 C127.953126,27.8750005 128.281248,28.0624986 128.75,28.34375 C129.125002,28.4375005 129.687496,28.7656222 130.4375,29.328125 C131.375005,29.7968773 131.609377,30.6406189 131.140625,31.859375 C130.578122,33.5468834 129.921879,34.8593703 129.171875,35.796875 C127.671868,33.5468638 124.625023,30.2656466 120.03125,25.953125 L120.734375,25.109375 C122.703135,25.6718778 124.343743,26.2812467 125.65625,26.9375 L128.1875,21.734375 L124.109375,22.015625 C123.921874,22.015625 123.546878,22.0624995 122.984375,22.15625 C122.04687,22.2500005 121.296878,22.3437495 120.734375,22.4375 L119.1875,20.1875 C119.656252,20.1875 120.312496,20.1406255 121.15625,20.046875 C122.187505,20.046875 122.843749,20.0000005 123.125,19.90625 L128.046875,19.625 C128.421877,19.625 128.749999,19.4375019 129.03125,19.0625 C129.406252,18.6874981 129.687499,18.3125019 129.875,17.9375 L130.015625,17.796875 C130.203126,17.4218731 130.484373,17.4218731 130.859375,17.796875 L134.234375,21.171875 L134.65625,21.59375 C134.75,21.7812509 134.796875,21.875 134.796875,21.875 C134.796875,19.9999906 134.84375,18.0312603 134.9375,15.96875 L134.9375,11.46875 C134.84375,11.1874986 134.84375,11.0000005 134.9375,10.90625 C135.03125,10.8124995 135.171874,10.8124995 135.359375,10.90625 C135.828127,11.0937509 136.531245,11.3749981 137.46875,11.75 C138.125003,12.0312514 138.593749,12.2187495 138.875,12.3125 L140.140625,12.3125 C140.328126,11.4687458 140.421875,10.5312552 140.421875,9.5 C140.515625,8.93749719 140.5625,8.32812828 140.5625,7.671875 L138.875,7.671875 C138.687499,7.671875 138.265628,7.71874953 137.609375,7.8125 C136.484369,7.90625047 135.640628,7.99999953 135.078125,8.09375 L133.25,5.84375 C135.687512,5.84375 137.281246,5.79687547 138.03125,5.703125 L145.203125,5.28125 C146.046879,5.18749953 147.312492,5.04687594 149,4.859375 C149.843754,4.76562453 150.406249,4.71875 150.6875,4.71875 C151.812506,5.65625469 152.515624,6.26562359 152.796875,6.546875 C152.890625,6.73437594 152.9375,6.87499953 152.9375,6.96875 C152.84375,7.06250047 152.656251,7.109375 152.375,7.109375 L150.828125,7.109375 C149.421868,7.20312547 148.390628,7.25 147.734375,7.25 L143.234375,7.53125 C143.421876,7.62500047 143.656249,7.71874953 143.9375,7.8125 C144.781254,8.00000094 145.25,8.09375 145.34375,8.09375 C145.718752,8.18750047 145.90625,8.32812406 145.90625,8.515625 C145.90625,8.60937547 145.812501,8.74999906 145.625,8.9375 C145.062497,9.50000281 144.640626,9.96874813 144.359375,10.34375 L143.515625,11.1875 C143.234374,11.6562523 143.000001,11.9843741 142.8125,12.171875 L146.046875,11.890625 C146.515627,11.890625 146.796875,11.7031269 146.890625,11.328125 C147.078126,11.1406241 147.171875,10.8593769 147.171875,10.484375 C147.265625,10.2031236 147.359375,10.0625 147.453125,10.0625 C147.453125,9.96874953 147.640623,10.0156241 148.015625,10.203125 C148.578128,10.6718773 149.421869,11.2812463 150.546875,12.03125 C151.203128,12.5000023 151.624999,12.8281241 151.8125,13.015625 C152.187502,13.2968764 152.375,13.4843745 152.375,13.578125 C152.375,13.7656259 152.140627,13.9062495 151.671875,14 C151.109372,14.1875009 150.875,14.5624972 150.96875,15.125 C150.875,16.1562552 150.828125,17.8437383 150.828125,20.1875 C150.734375,22.5312617 150.6875,24.2187448 150.6875,25.25 C150.78125,25.6250019 150.640627,25.9062491 150.265625,26.09375 C149.703122,26.4687519 148.765632,26.9374972 147.453125,27.5 C147.078123,27.5937505 146.84375,27.640625 146.75,27.640625 C146.65625,27.5468745 146.609375,27.3593764 146.609375,27.078125 L146.890625,13.859375 L138.875,14.421875 L138.59375,26.234375 C138.59375,26.5156264 138.500001,26.7499991 138.3125,26.9375 C138.21875,27.0312505 138.171875,27.078125 138.171875,27.078125 C137.890624,27.2656259 137.140631,27.5937477 135.921875,28.0625 C135.546873,28.1562505 135.265626,28.2499995 135.078125,28.34375 L135.078125,28.34375 Z M149.421875,36.640625 C148.203119,34.6718652 146.093765,32.0468914 143.09375,28.765625 C141.687493,32.0468914 137.468785,34.6718652 130.4375,36.640625 L129.875,35.9375 C134.187522,33.4062373 137.046868,31.0156363 138.453125,28.765625 C139.953132,26.5156138 140.75,23.187522 140.84375,18.78125 L140.84375,15.265625 C140.75,14.7968727 140.984372,14.6562491 141.546875,14.84375 C143.046883,15.3125023 144.171871,15.6874986 144.921875,15.96875 C145.296877,16.0625005 145.390626,16.2499986 145.203125,16.53125 L145.203125,17.9375 C145.109375,18.5937533 145.0625,19.1562477 145.0625,19.625 C144.781249,23.0937673 144.359378,25.531243 143.796875,26.9375 C147.453143,28.531258 149.890619,29.7968703 151.109375,30.734375 C152.234381,31.4843788 152.515628,32.2343713 151.953125,32.984375 C151.484373,33.9218797 150.687506,35.0468684 149.5625,36.359375 C149.46875,36.4531255 149.421875,36.5468745 149.421875,36.640625 L149.421875,36.640625 Z M126.21875,19.625 C125.468746,17.4687392 124.765628,15.687507 124.109375,14.28125 C122.140615,16.3437603 120.171885,18.0312434 118.203125,19.34375 L117.640625,18.78125 C119.890636,15.3124827 121.953116,11.375022 123.828125,6.96875 C123.921875,6.68749859 124.062499,6.26562781 124.25,5.703125 C124.625002,5.04687172 124.953124,4.10938109 125.234375,2.890625 C125.421876,2.32812219 125.749998,2.28124766 126.21875,2.75 C127.156255,3.12500188 128.374993,3.78124531 129.875,4.71875 C130.250002,5.00000141 130.296876,5.32812313 130.015625,5.703125 C129.828124,5.89062594 129.359379,6.54686938 128.609375,7.671875 C131.046887,8.60937969 132.73437,9.40624672 133.671875,10.0625 C134.515629,10.3437514 134.750002,10.9531203 134.375,11.890625 C133.718747,13.6718839 133.062503,15.0312453 132.40625,15.96875 C131.187494,14.0937406 129.546885,11.9843867 127.484375,9.640625 C127.203124,9.92187641 126.875002,10.3906217 126.5,11.046875 C125.843747,11.9843797 125.375001,12.6406231 125.09375,13.015625 C126.312506,13.5781278 127.484369,14.2812458 128.609375,15.125 C129.359379,15.7812533 129.453128,16.4374967 128.890625,17.09375 C128.234372,17.9375042 127.343756,18.7812458 126.21875,19.625 L126.21875,19.625 Z M157.578125,31.859375 C157.109373,31.9531255 156.734376,31.8593764 156.453125,31.578125 C155.42187,30.5468698 154.531254,29.328132 153.78125,27.921875 L157.015625,27.21875 L157.296875,7.953125 C157.015624,7.953125 156.687502,7.99999953 156.3125,8.09375 L155.46875,8.09375 L153.921875,5.84375 C156.359387,5.84375 157.906247,5.79687547 158.5625,5.703125 L166.15625,5.421875 C166.343751,5.421875 166.765622,5.37500047 167.421875,5.28125 C169.015633,5.09374906 170.093747,4.95312547 170.65625,4.859375 L171.078125,5.28125 C171.921879,6.12500422 172.390625,6.64062406 172.484375,6.828125 C172.671876,7.01562594 172.765625,7.20312406 172.765625,7.390625 C172.671875,7.48437547 172.484376,7.53125 172.203125,7.53125 L169.8125,7.53125 L169.953125,7.671875 L169.953125,7.953125 L169.671875,24.6875 L172.90625,23.984375 L173.46875,24.828125 C173.093748,25.0156259 172.484379,25.2968731 171.640625,25.671875 C170.796871,26.0468769 170.140627,26.3281241 169.671875,26.515625 L169.53125,33.40625 C169.53125,34.0625033 169.390626,34.4374995 169.109375,34.53125 C168.546872,34.9062519 167.468758,35.3281227 165.875,35.796875 L165.734375,35.796875 C165.265623,35.9843759 165.03125,35.8437523 165.03125,35.375 L165.03125,28.625 C161.281231,30.3125084 158.796881,31.3906227 157.578125,31.859375 L157.578125,31.859375 Z M184.015625,35.234375 C181.390612,33.0781142 179.515631,31.0156348 178.390625,29.046875 C176.515616,31.4843872 173.515646,33.7343647 169.390625,35.796875 L168.828125,35.09375 C172.015641,31.9062341 174.499991,28.4375188 176.28125,24.6875 C174.781243,20.6562298 173.843752,15.7812786 173.46875,10.0625 C172.906247,10.1562505 172.390627,10.203125 171.921875,10.203125 L170.65625,7.953125 C171.500004,7.85937453 172.718742,7.8125 174.3125,7.8125 L180.78125,7.25 C181.156252,7.34375047 181.437499,7.20312688 181.625,6.828125 C181.625,6.73437453 181.718749,6.54687641 181.90625,6.265625 C182.093751,5.89062313 182.1875,5.65625047 182.1875,5.5625 C182.468751,5.09374766 182.796873,5.04687313 183.171875,5.421875 C185.140635,6.9218825 186.546871,8.04687125 187.390625,8.796875 C187.859377,9.26562734 188.046875,9.59374906 187.953125,9.78125 C187.953125,10.0625014 187.578129,10.2968741 186.828125,10.484375 C186.265622,10.5781255 185.9375,10.9999963 185.84375,11.75 C184.249992,17.5625291 182.796882,21.6874878 181.484375,24.125 C183.453135,26.4687617 185.937485,28.5781156 188.9375,30.453125 L188.9375,31.4375 C187.812494,32.0000028 186.546882,33.2187406 185.140625,35.09375 C184.859374,35.4687519 184.484377,35.5156264 184.015625,35.234375 L184.015625,35.234375 Z M175.296875,9.921875 L174.59375,9.921875 C175.718756,13.8593947 176.984368,17.0937373 178.390625,19.625 C179.515631,16.624985 180.453121,13.2500188 181.203125,9.5 L175.296875,9.921875 Z M161.65625,8.234375 L161.65625,12.875 L162.359375,12.875 C162.640626,12.7812495 163.015623,12.734375 163.484375,12.734375 C164.046878,12.6406245 164.421874,12.59375 164.609375,12.59375 C164.609375,12.59375 164.65625,12.6874991 164.75,12.875 L165.171875,13.296875 L165.171875,7.671875 L161.515625,7.8125 C161.609375,7.8125 161.65625,7.95312359 161.65625,8.234375 L161.65625,8.234375 Z M162.21875,14.84375 L161.515625,14.84375 L161.515625,19.484375 L162.5,19.484375 C163.343754,19.484375 164.046872,19.3906259 164.609375,19.203125 C164.703125,19.2968755 164.890624,19.4374991 165.171875,19.625 L165.171875,14.703125 C163.859368,14.703125 162.875003,14.7499995 162.21875,14.84375 L162.21875,14.84375 Z M162.21875,21.3125 L161.515625,21.453125 L161.515625,26.375 L165.03125,25.53125 L165.03125,21.3125 L162.21875,21.3125 L162.21875,21.3125 Z" fill="#FFFFFF" transform="translate(118.301562, 19.519531) scale(-1, 1) translate(-118.301562, -19.519531) "></path>
                <g id="Group-3-Copy" transform="translate(213.000000, 11.000000)" stroke="#FFE64C" stroke-width="4" stroke-linecap="round">
                    <path d="M9,3.01980663e-14 L9,18" id="Line"></path>
                    <path d="M18,9 L0,9" id="Line-Copy"></path>
                </g>
                <g id="Group-3-Copy-3" transform="translate(4.000000, 11.000000)" stroke="#FFE64C" stroke-width="4" stroke-linecap="round">
                    <path d="M9,3.01980663e-14 L9,18" id="Line"></path>
                    <path d="M18,9 L0,9" id="Line-Copy"></path>
                </g>
                <rect id="Rectangle-4" x="0" y="0" width="235" height="38"></rect>
            </g>
        </g>
    </g>
</svg>