<?xml version="1.0" encoding="UTF-8" standalone="no"?>
<svg width="132px" height="132px" viewBox="0 0 132 132" version="1.1" xmlns="http://www.w3.org/2000/svg" xmlns:xlink="http://www.w3.org/1999/xlink">
    <!-- Generator: Sketch 40 (33762) - http://www.bohemiancoding.com/sketch -->
    <title>已过期</title>
    <desc>Created with Sketch.</desc>
    <defs>
        <rect id="path-1" x="0" y="0" width="136" height="136" rx="3.84"></rect>
    </defs>
    <g id="Page-1" stroke="none" stroke-width="1" fill="none" fill-rule="evenodd" opacity="0.8">
        <g id="优惠券_已使用" transform="translate(-31.000000, -1128.000000)">
            <g id="已过期" transform="translate(30.000000, 1126.000000)">
                <g>
                    <mask id="mask-2" fill="white">
                        <use xlink:href="#path-1"></use>
                    </mask>
                    <g id="Mask"></g>
                    <g id="印章" opacity="0.34" mask="url(#mask-2)">
                        <g transform="translate(67.525668, 68.150218) rotate(-30.000000) translate(-67.525668, -68.150218) translate(2.525668, 3.650218)">
                            <ellipse id="Oval-7-Copy" stroke="#000000" stroke-width="2.88" fill="none" opacity="0.6" cx="64.5276759" cy="64.2709231" rx="64.5276759" ry="64.2709231"></ellipse>
                            <ellipse id="Oval-7-Copy-2" stroke="#000000" stroke-width="1.92" fill="none" opacity="0.6" cx="64.7099574" cy="64.4524793" rx="55.5958789" ry="55.3746653"></ellipse>
                            <path d="M27.4332851,57.199694 L27.4332851,76.392014 C27.4985651,78.415694 28.7388851,80.145614 31.4153651,80.145614 L45.9728051,80.145614 C48.1270451,80.145614 49.4000051,78.285134 49.3347251,75.510734 L48.0291251,75.510734 L47.1152051,70.484174 L45.3526451,75.510734 L31.8723251,75.510734 L31.8723251,62.944334 L40.8483251,62.944334 L40.8483251,65.588174 L45.4505651,65.588174 L45.4505651,51.128654 L40.8483251,51.128654 L40.8483251,51.977294 L26.8457651,51.977294 L26.8457651,52.630094 L40.8483251,52.630094 L40.8483251,62.291534 L31.8723251,62.291534 L31.8723251,57.199694 L27.4332851,57.199694 Z M53.3494451,61.508174 L55.5363251,61.508174 L55.5363251,75.086414 L52.7945651,76.587854 L56.0259251,79.688654 C56.8745651,78.742094 57.4620851,77.926094 57.8864051,77.044814 C58.8003251,78.252494 60.4976051,79.329614 62.0643251,79.329614 L76.4585651,79.329614 L78.2211251,75.771854 L61.9990451,75.771854 C61.0524851,75.771854 60.1712051,75.543374 59.3878451,75.184334 L59.3878451,60.072014 L55.5363251,60.072014 L55.5363251,60.855374 L53.3494451,60.855374 L53.3494451,61.508174 Z M61.1830451,56.253134 L68.8534451,56.253134 L68.8534451,69.961934 L64.9366451,69.961934 L68.6576051,72.409934 L68.6576051,74.009294 C71.8563251,73.846094 72.9660851,72.475214 72.9660851,70.451534 L72.9660851,56.253134 L77.5683251,56.253134 L77.5683251,55.600334 L72.9660851,55.600334 L72.9660851,49.170254 L68.8534451,49.170254 L68.8534451,55.600334 L61.1830451,55.600334 L61.1830451,56.253134 Z M64.5123251,66.143054 L67.9068851,63.988814 C67.0908851,61.834574 64.9692851,60.202574 62.5212851,59.125454 L64.5123251,66.143054 Z M56.2544051,55.665614 L59.8774451,53.935694 C58.7024051,51.291854 56.7440051,50.051534 54.4265651,49.104974 L56.2544051,55.665614 Z M101.428165,77.175374 L98.0336051,77.175374 L101.264965,79.231694 L101.264965,80.667854 C103.256005,80.569934 105.214405,79.394894 105.214405,77.730254 L105.214405,50.214734 L101.428165,50.214734 L101.428165,51.128654 L99.6003251,51.128654 L99.6003251,50.214734 L95.8793651,50.214734 L95.8793651,65.555534 C95.8793651,69.080654 95.4876851,76.065614 94.1168051,80.896334 C97.9356851,77.175374 99.2086451,72.181454 99.5024051,67.546574 L101.428165,67.546574 L101.428165,77.175374 Z M83.0518451,50.051534 L83.0518451,54.327374 L81.1913651,54.327374 L81.1913651,54.980174 L83.0518451,54.980174 L83.0518451,69.798734 L80.9628851,69.798734 L80.9628851,70.451534 L95.1286451,70.451534 L95.1286451,69.798734 L93.0070451,69.798734 L93.0070451,54.980174 L94.9001651,54.980174 L94.9001651,54.327374 L93.0070451,54.327374 L93.0070451,50.051534 L89.4166451,50.051534 L89.4166451,54.327374 L86.6748851,54.327374 L86.6748851,50.051534 L83.0518451,50.051534 Z M80.6691251,80.406734 C83.3129651,78.578894 85.6630451,76.392014 87.7846451,73.911374 L84.0963251,71.561294 L80.6691251,80.406734 Z M90.6569651,79.068494 L93.8556851,76.816334 C92.7459251,74.335694 90.8528051,72.507854 87.9804851,71.496014 L90.6569651,79.068494 Z M99.6003251,51.781454 L101.428165,51.781454 L101.428165,59.027534 L99.6003251,59.027534 L99.6003251,51.781454 Z M99.6003251,64.804814 L99.6003251,59.680334 L101.428165,59.680334 L101.428165,66.893774 L99.5350451,66.893774 C99.5676851,66.208334 99.6003251,65.490254 99.6003251,64.804814 L99.6003251,64.804814 Z M86.6748851,65.261774 L89.4166451,65.261774 L89.4166451,69.798734 L86.6748851,69.798734 L86.6748851,65.261774 Z M86.6748851,54.980174 L89.4166451,54.980174 L89.4166451,59.484494 L86.6748851,59.484494 L86.6748851,54.980174 Z M86.6748851,60.137294 L89.4166451,60.137294 L89.4166451,64.608974 L86.6748851,64.608974 L86.6748851,60.137294 Z" id="已过期" stroke="none" fill="#000000" fill-rule="evenodd" opacity="0.6"></path>
                            <rect id="Rectangle-6-Copy-2" stroke="none" fill-opacity="0.6" fill="#000000" fill-rule="evenodd" x="24.0611673" y="42.847282" width="81.2975803" height="0.726225119" rx="0.36311256"></rect>
                            <rect id="Rectangle-6-Copy-3" stroke="none" fill-opacity="0.6" fill="#000000" fill-rule="evenodd" x="24.0611673" y="85.6945641" width="81.2975803" height="0.726225119" rx="0.36311256"></rect>
                        </g>
                    </g>
                </g>
            </g>
        </g>
    </g>
</svg>