<?xml version="1.0" encoding="UTF-8" standalone="no"?>
<svg width="132px" height="132px" viewBox="0 0 132 132" version="1.1" xmlns="http://www.w3.org/2000/svg" xmlns:xlink="http://www.w3.org/1999/xlink">
    <!-- Generator: Sketch 40 (33762) - http://www.bohemiancoding.com/sketch -->
    <title>已使用 copy</title>
    <desc>Created with Sketch.</desc>
    <defs>
        <rect id="path-1" x="0" y="0" width="136" height="136" rx="3.84"></rect>
    </defs>
    <g id="Page-1" stroke="none" stroke-width="1" fill="none" fill-rule="evenodd" opacity="0.8">
        <g id="优惠券_已使用" transform="translate(-402.000000, -326.000000)">
            <g id="已使用-copy" transform="translate(401.000000, 324.000000)">
                <g id="已使用">
                    <mask id="mask-2" fill="white">
                        <use xlink:href="#path-1"></use>
                    </mask>
                    <g id="Mask"></g>
                    <g id="印章" opacity="0.34" mask="url(#mask-2)">
                        <g transform="translate(67.525663, 68.150321) rotate(-30.000000) translate(-67.525663, -68.150321) translate(2.525663, 3.650321)">
                            <ellipse id="Oval-7-Copy" stroke="#000000" stroke-width="2.88" fill="none" opacity="0.6" cx="64.5276759" cy="64.2709231" rx="64.5276759" ry="64.2709231"></ellipse>
                            <ellipse id="Oval-7-Copy-2" stroke="#000000" stroke-width="1.92" fill="none" opacity="0.6" cx="64.7099574" cy="64.4524793" rx="55.5958789" ry="55.3746653"></ellipse>
                            <path d="M27.4332851,57.199694 L27.4332851,76.392014 C27.4985651,78.415694 28.7388851,80.145614 31.4153651,80.145614 L45.9728051,80.145614 C48.1270451,80.145614 49.4000051,78.285134 49.3347251,75.510734 L48.0291251,75.510734 L47.1152051,70.484174 L45.3526451,75.510734 L31.8723251,75.510734 L31.8723251,62.944334 L40.8483251,62.944334 L40.8483251,65.588174 L45.4505651,65.588174 L45.4505651,51.128654 L40.8483251,51.128654 L40.8483251,51.977294 L26.8457651,51.977294 L26.8457651,52.630094 L40.8483251,52.630094 L40.8483251,62.291534 L31.8723251,62.291534 L31.8723251,57.199694 L27.4332851,57.199694 Z M60.4649651,54.588494 L66.7971251,54.588494 L66.7971251,58.668494 L65.1651251,58.668494 L65.1651251,58.048334 L61.0524851,58.048334 L61.0524851,68.493134 L65.1651251,68.493134 L65.1651251,66.665294 L66.5686451,66.665294 C66.4054451,68.166734 66.0790451,69.570254 65.7200051,70.843214 C64.6755251,70.157774 63.6636851,69.439694 62.7171251,68.656334 C63.2393651,70.288334 64.0227251,71.757134 64.9366451,73.062734 C63.6310451,76.228814 61.8358451,78.709454 60.0080051,80.896334 C63.3699251,79.623374 65.7526451,77.926094 67.4172851,75.935054 C69.9632051,78.285134 73.0966451,79.884494 76.0668851,80.831054 L78.4822451,76.587854 C75.3488051,75.771854 72.2153651,74.531534 69.2777651,72.964814 C70.1916851,71.006414 70.6812851,68.884814 70.9097651,66.665294 L72.8681651,66.665294 L72.8681651,68.493134 L76.9808051,68.493134 L76.9808051,58.048334 L72.8681651,58.048334 L72.8681651,58.668494 L71.1056051,58.668494 L71.1056051,54.588494 L78.5148851,54.588494 L78.5148851,53.935694 L71.1056051,53.935694 L71.1056051,48.713294 L66.7971251,48.713294 L66.7971251,53.935694 L60.4649651,53.935694 L60.4649651,54.588494 Z M52.5008051,66.436814 C53.4473651,65.163854 54.3939251,63.858254 55.3078451,62.520014 L55.3078451,80.831054 L59.4204851,80.831054 L59.4204851,58.276814 L57.9516851,58.276814 C59.4204851,55.763534 60.7587251,53.152334 62.0316851,50.345294 L56.9072051,48.517454 L52.5008051,66.436814 Z M71.1056051,62.911694 L71.1056051,59.321294 L72.8681651,59.321294 L72.8681651,66.012494 L70.9750451,66.012494 C71.0729651,65.000654 71.1056051,63.956174 71.1056051,62.911694 L71.1056051,62.911694 Z M66.6339251,66.012494 L65.1651251,66.012494 L65.1651251,59.321294 L66.7971251,59.321294 L66.7971251,62.911694 C66.7971251,64.021454 66.7318451,65.033294 66.6339251,66.012494 L66.6339251,66.012494 Z M82.0400051,80.831054 C85.5977651,77.599694 87.1644851,73.421774 87.7193651,67.938254 L91.5056051,67.938254 L91.5056051,80.439374 L95.8467251,80.439374 L95.8467251,76.392014 L99.3718451,78.742094 L99.3718451,80.635214 C103.060165,80.504654 103.843525,78.774734 103.843525,76.392014 L103.843525,50.410574 L99.3718451,50.410574 L99.3718451,51.291854 L87.9804851,51.291854 L87.9804851,50.410574 L83.5740851,50.410574 L83.5740851,62.226254 C83.5740851,66.273614 83.4761651,75.151694 82.0400051,80.831054 L82.0400051,80.831054 Z M99.3718451,76.261454 L95.8467251,76.261454 L95.8467251,67.938254 L99.3718451,67.938254 L99.3718451,76.261454 Z M95.8467251,51.944654 L99.3718451,51.944654 L99.3718451,59.353934 L95.8467251,59.353934 L95.8467251,51.944654 Z M87.9804851,51.944654 L91.5056051,51.944654 L91.5056051,59.353934 L87.9804851,59.353934 L87.9804851,51.944654 Z M87.9804851,62.226254 L87.9804851,60.006734 L91.5056051,60.006734 L91.5056051,67.285454 L87.7846451,67.285454 C87.9152051,65.718734 87.9804851,64.021454 87.9804851,62.226254 L87.9804851,62.226254 Z M95.8467251,60.006734 L99.3718451,60.006734 L99.3718451,67.285454 L95.8467251,67.285454 L95.8467251,60.006734 Z" id="已使用" stroke="none" fill="#000000" fill-rule="evenodd" opacity="0.6"></path>
                            <rect id="Rectangle-6-Copy-2" stroke="none" fill-opacity="0.6" fill="#000000" fill-rule="evenodd" x="24.0611673" y="42.847282" width="81.2975803" height="0.726225119" rx="0.36311256"></rect>
                            <rect id="Rectangle-6-Copy-3" stroke="none" fill-opacity="0.6" fill="#000000" fill-rule="evenodd" x="24.0611673" y="85.6945641" width="81.2975803" height="0.726225119" rx="0.36311256"></rect>
                        </g>
                    </g>
                </g>
            </g>
        </g>
    </g>
</svg>