<?xml version="1.0" encoding="UTF-8" standalone="no"?>
<svg width="28px" height="36px" viewBox="0 0 28 36" version="1.1" xmlns="http://www.w3.org/2000/svg" xmlns:xlink="http://www.w3.org/1999/xlink">
    <!-- Generator: Sketch 40 (33762) - http://www.bohemiancoding.com/sketch -->
    <title>订单中心</title>
    <desc>Created with Sketch.</desc>
    <defs></defs>
    <g id="Page-1" stroke="none" stroke-width="1" fill="none" fill-rule="evenodd">
        <g id="个人中心" transform="translate(-38.000000, -1040.000000)">
            <g id="订单中心" transform="translate(30.000000, 1036.000000)">
                <rect id="Rectangle-8-Copy-2" x="0" y="0" width="44" height="44"></rect>
                <path d="M28.9197323,10.2612416 C30.1199738,10.2612416 31.0940988,9.32676227 31.0940988,8.17417431 L31.0940988,6.08706734 C31.0940988,4.93344926 30.1199738,4 28.9197323,4 C27.7172057,4 26.7431595,4.93344926 26.7431595,6.08702772 L26.7431595,8.17421393 C26.7431201,9.32676227 27.7171663,10.2612416 28.9197323,10.2612416 L28.9197323,10.2612416 Z M14.9293525,10.2612416 C16.1296334,10.2612416 17.103719,9.32676227 17.103719,8.17417431 L17.103719,6.08706734 C17.103719,4.93344926 16.1296334,4 14.9293525,4 C13.7268259,4 12.7527403,4.93344926 12.7527797,6.08702772 L12.7527797,8.17421393 C12.7527403,9.32676227 13.7268259,10.2612416 14.9293525,10.2612416 L14.9293525,10.2612416 Z M32.5189201,7.30681135 L32.5189201,8.58963054 C32.5189201,10.2070414 30.8967443,11.5183474 28.8979836,11.5183474 C26.8955192,11.5183474 25.2733434,10.2070017 25.2733434,8.58963054 L25.2733434,7.12523249 L18.5238123,7.12523249 L18.5238123,8.58963054 C18.5238123,10.2070414 16.9017153,11.5183474 14.9028758,11.5183474 C12.9004114,11.5183474 11.278275,10.2070017 11.278275,8.58963054 L11.278275,7.33240593 C9.37994475,7.92290371 8,9.70917535 8,11.8218769 L8,35.3033952 C8,37.8972035 10.0807521,40 12.6469513,40 L31.2355053,40 C33.8019015,40 35.8828507,37.8972035 35.8828507,35.3033952 L35.8828507,11.8218769 C35.8828507,9.67763776 34.4612207,7.86961469 32.5189201,7.30681135 L32.5189201,7.30681135 Z M30.7980868,34.1930027 L13.0847639,34.1930027 C12.3508605,34.1930027 11.7562361,33.5729087 11.7562361,32.8075278 C11.7562361,32.042147 12.3508605,31.422053 13.0847639,31.422053 L30.7980868,31.422053 C31.5319507,31.422053 32.1265752,32.042147 32.1265752,32.8075278 C32.1265752,33.5729087 31.5319507,34.1930027 30.7980868,34.1930027 L30.7980868,34.1930027 Z M30.7980868,26.8357901 L13.0847639,26.8357901 C12.3508605,26.8357901 11.7562361,26.2157358 11.7562361,25.4503153 C11.7562361,24.6850137 12.3508605,24.0648405 13.0847639,24.0648405 L30.7980868,24.0648405 C31.5319507,24.0648405 32.1265752,24.6849741 32.1265752,25.4503153 C32.1265752,26.2156962 31.5319507,26.8357901 30.7980868,26.8357901 L30.7980868,26.8357901 Z M30.7980868,19.4785776 L13.0847639,19.4785776 C12.3508605,19.4785776 11.7562361,18.8584837 11.7562361,18.0931028 C11.7562361,17.3278012 12.3508605,16.7076676 13.0847639,16.7076676 L30.7980868,16.7076676 C31.5319507,16.7076676 32.1265752,17.3278012 32.1265752,18.0931028 C32.1265752,18.8584837 31.5319507,19.4785776 30.7980868,19.4785776 L30.7980868,19.4785776 Z" id="Shape" fill="#00C0C5"></path>
            </g>
        </g>
    </g>
</svg>