<?xml version="1.0" encoding="UTF-8" standalone="no"?>
<svg width="48px" height="48px" viewBox="0 0 48 48" version="1.1" xmlns="http://www.w3.org/2000/svg" xmlns:xlink="http://www.w3.org/1999/xlink">
    <!-- Generator: Sketch 40 (33762) - http://www.bohemiancoding.com/sketch -->
    <title>编辑</title>
    <desc>Created with Sketch.</desc>
    <defs></defs>
    <g id="Page-1" stroke="none" stroke-width="1" fill="none" fill-rule="evenodd">
        <g id="个人中心_地址管理_地址上限" transform="translate(-661.000000, -884.000000)" fill="#CCCCCC">
            <g id="地址" transform="translate(0.000000, 188.000000)">
                <g id="地址-copy-4" transform="translate(0.000000, 640.000000)">
                    <path d="M709,80.0013716 C709,77.0171252 708.450127,74.1639549 707.455287,71.5294279 L704.538966,72.3494633 C705.469831,74.7240875 705.999513,77.2972189 705.999513,80.0013716 C705.999513,91.5988432 696.598788,100.999952 685.000878,100.999952 C673.403406,100.999952 664.000652,91.5988432 664.000652,80.0013168 C664.000652,68.4037904 673.403516,59.0009807 685.000933,59.0009807 C687.75452,59.0009807 690.378677,59.5470126 692.788087,60.5104692 L693.630508,57.6061634 C690.951265,56.5730262 688.044764,56 685.000878,56 C671.746601,56 661,66.7469303 661,80.0013168 C661,93.2560873 671.746546,104.000439 685.000878,104.000439 C698.255758,104.000494 709.000055,93.2560872 709,80.0013716 L709,80.0013716 Z M680.476473,81.3240395 L680.407341,81.4484219 L676.65595,88.1985985 L676.473519,88.5268651 L676.80184,88.3444887 L683.551633,84.595238 L683.67596,84.5262158 L683.575445,84.4256455 L680.577043,81.4247196 L680.476473,81.3240395 Z M683.227262,80.4022815 L684.597609,81.7747133 C684.75941,81.9366793 684.974926,82.0258924 685.204488,82.0258924 C685.434049,82.0258924 685.649455,81.9366793 685.810983,81.7746584 L707.024256,60.5618791 C707.358612,60.2269737 707.358558,59.6825878 707.024256,59.3482859 L705.651714,57.9778841 C705.489803,57.8161924 705.274671,57.7270891 705.046042,57.7270891 C704.817413,57.7270891 704.602282,57.8161375 704.44037,57.9778841 L683.227317,79.1913219 C682.893728,79.5249653 682.893673,80.0681991 683.227262,80.4022815 L683.227262,80.4022815 Z" id="编辑"></path>
                </g>
            </g>
        </g>
    </g>
</svg>