<?xml version="1.0" encoding="UTF-8" standalone="no"?>
<svg width="21px" height="23px" viewBox="0 0 21 23" version="1.1" xmlns="http://www.w3.org/2000/svg" xmlns:xlink="http://www.w3.org/1999/xlink">
    <!-- Generator: Sketch 40 (33762) - http://www.bohemiancoding.com/sketch -->
    <title>继续点菜</title>
    <desc>Created with Sketch.</desc>
    <defs></defs>
    <g id="Page-1" stroke="none" stroke-width="1" fill="none" fill-rule="evenodd">
        <g id="外卖下单" transform="translate(-578.000000, -762.000000)" fill="#FF7417">
            <g id="3点菜单" transform="translate(0.000000, 628.000000)">
                <g id="title">
                    <g id="Group-8" transform="translate(578.000000, 125.000000)">
                        <path d="M18.044557,31.303441 C18.044557,31.6878627 17.7372366,32 17.3587473,32 L0.684192147,32 C0.305702874,32 0,31.6895055 0,31.303441 L0,30.9173765 C0,30.5345976 0.305702874,30.2208175 0.684192147,30.2208175 L17.3587473,30.2208175 C17.7356191,30.2208175 18.044557,30.5329548 18.044557,30.9173765 L18.044557,31.303441 L18.044557,31.303441 Z M16.8411552,9.407832 L14.9826758,11.2937983 L18.4537783,14.8209496 L20.3106402,12.9349833 C20.8460246,12.3912073 20.8460246,11.5106516 20.3106402,10.9668756 L18.7772734,9.407832 C18.2435065,8.864056 17.3749221,8.864056 16.8411552,9.407832 L16.8411552,9.407832 Z M17.6686783,15.6226171 L7.97659415,25.4638308 L4.50476057,21.9365823 L14.1968447,12.0953685 L17.6686783,15.6226171 L17.6686783,15.6226171 Z M7.21070589,26.2353172 L3.74122089,22.7130944 L1.64335513,28.3660649 L7.21070589,26.2353172 Z" id="继续点菜"></path>
                    </g>
                </g>
            </g>
        </g>
    </g>
</svg>