<?xml version="1.0" encoding="UTF-8" standalone="no"?>
<svg width="32px" height="36px" viewBox="0 0 32 36" version="1.1" xmlns="http://www.w3.org/2000/svg" xmlns:xlink="http://www.w3.org/1999/xlink">
    <!-- Generator: Sketch 40 (33762) - http://www.bohemiancoding.com/sketch -->
    <title>会员充值</title>
    <desc>Created with Sketch.</desc>
    <defs></defs>
    <g id="Page-1" stroke="none" stroke-width="1" fill="none" fill-rule="evenodd">
        <g id="个人中心" transform="translate(-36.000000, -890.000000)">
            <g id="会员充值" transform="translate(30.000000, 886.000000)">
                <rect id="Rectangle-8-Copy" x="0" y="0" width="44" height="44"></rect>
                <path d="M21.9217304,40 C10.7049526,40 6,35.977601 6,27.7113092 C6,20.863158 11.3351201,13.7164898 17.8026458,11.4618732 L26.0408855,11.4618732 C32.5086579,13.7165252 37.8435313,20.8630873 37.8435313,27.7113092 C37.8435313,35.977601 33.1385787,40 21.9216599,40 L21.9217304,40 L21.9217304,40 L21.9217304,40 Z M26.3342776,26.4165467 L26.3342776,26.4137908 C27.0786655,26.4099397 27.6807801,25.8035784 27.6807801,25.0567386 C27.6807801,24.3090862 27.0787007,23.7034669 26.3342776,23.6988031 L26.3342776,23.6955526 L23.6033167,23.6955526 C23.608603,23.6650614 23.5996867,23.6378561 23.6025061,23.6072942 L26.802965,20.3272833 C27.3250444,19.7376339 27.0593879,19.2499162 26.531846,18.7154194 C26.0008855,18.1780608 25.1330791,18.0653883 24.7040394,18.5336029 L21.9518978,21.4747836 L18.9791747,18.4944202 C18.6029279,18.1176438 17.8712273,18.2404565 17.3446016,18.7683815 C16.8174826,19.2970839 16.6954737,20.031381 17.0713329,20.4080867 L20.1116859,23.4554389 C20.0548401,23.5283281 20.0180119,23.6093788 19.9958798,23.6955526 L17.5249365,23.6955526 L17.5249365,23.6981318 L17.5179233,23.6981318 C16.769694,23.6981318 16.1628569,24.3057297 16.1628569,25.0565973 C16.1628569,25.8061223 16.769694,26.4150627 17.5179233,26.4150627 C17.520214,26.4150627 17.5225752,26.4136848 17.5249365,26.4136848 L17.5249365,26.4164053 L20.2333424,26.4164053 L20.2333424,27.7695004 L17.5249365,27.7695004 L17.5249365,27.7735282 L17.5179233,27.7735282 C16.769694,27.7735282 16.1628569,28.3811261 16.1628569,29.131923 C16.1628569,29.8815187 16.7696588,30.4904238 17.5179233,30.4904238 C17.520214,30.4904238 17.5225752,30.4891165 17.5249365,30.4891165 L17.5249365,30.4904238 L20.2333424,30.4904238 L20.2333424,31.8582168 L20.2613952,31.8582168 C20.2401794,31.9642823 20.2280913,32.0751176 20.2280913,32.1886028 C20.2280913,33.126516 20.9862941,33.8867111 21.9217656,33.8867111 C22.8574134,33.8867111 23.6156515,33.126516 23.6156515,32.1886028 C23.6156515,32.0751529 23.6032814,31.9643177 23.5822065,31.8582168 L23.5980656,31.8582168 L23.5980656,30.4905651 L26.3343834,30.4892578 C27.0787712,30.4845234 27.6808859,29.8790454 27.6808859,29.1319937 C27.6808859,28.3845532 27.0787712,27.7788986 26.3343834,27.7742348 L26.3343834,27.7695711 L23.5980656,27.7695711 L23.5980656,26.4164053 L26.3343481,26.4164053 L26.3342776,26.4165467 L26.3342776,26.4165467 L26.3342776,26.4165467 Z M28.3581371,6.03793951 L28.0733441,6.39482421 C28.0670357,6.40146655 28.0626657,6.40941616 28.056463,6.41605851 L25.6480748,9.43415616 L17.5178528,9.43415616 L15.1140813,6.42132292 C15.0962135,6.40408109 15.0846892,6.38291745 15.0681254,6.36429769 L14.8077905,6.03797484 L14.8537112,5.94572398 C14.8316143,5.86212937 14.8021165,5.78054866 14.8021165,5.69034703 C14.8021165,5.25785267 15.0733765,4.89245306 15.4531827,4.7437776 L15.4852884,4.67936806 C15.4852884,4.67936806 18.8157209,4.01142378 21.5830167,4.00015299 C24.479123,3.9882109 27.6807449,4.67936806 27.6807449,4.67936806 L27.7136612,4.74441357 C28.0910005,4.89436096 28.3599697,5.25919527 28.3599697,5.69027637 C28.3599697,5.77917073 28.3308596,5.85810156 28.3097142,5.93964694 L28.3581371,6.03793951 L28.3581371,6.03793951 L28.3581371,6.03793951 Z" id="Shape" fill="#FF5D2E"></path>
            </g>
        </g>
    </g>
</svg>