<?xml version="1.0" encoding="UTF-8" standalone="no"?>
<svg width="33px" height="27px" viewBox="0 0 33 27" version="1.1" xmlns="http://www.w3.org/2000/svg" xmlns:xlink="http://www.w3.org/1999/xlink">
    <!-- Generator: Sketch 40 (33762) - http://www.bohemiancoding.com/sketch -->
    <title>会员卡</title>
    <desc>Created with Sketch.</desc>
    <defs></defs>
    <g id="Page-1" stroke="none" stroke-width="1" fill="none" fill-rule="evenodd">
        <g id="个人中心" transform="translate(-36.000000, -775.000000)">
            <g id="会员卡" transform="translate(30.000000, 766.000000)">
                <rect id="Rectangle-2" x="0" y="0.0427526292" width="44" height="43.0222222"></rect>
                <path d="M6.00067945,14.7405657 L6.00067945,11.5017231 C6.26754959,10.6996761 6.79754098,10.1348171 7.60747396,9.82224803 L37.3938186,9.82224803 C38.2021923,10.1324343 38.8882781,10.6150213 38.9569862,11.5023027 C39.0408559,12.5869724 38.9769584,13.6823326 38.9769584,14.8304692 L38.3232857,14.8304692 C27.7694738,14.8304692 17.215695,14.8312098 6.66194943,14.8267339 C6.44152611,14.8266373 6.22110276,14.7705765 6.00067945,14.7405657 L6.00067945,14.7405657 Z M38.3111764,17.8295157 C27.7669524,17.8295157 17.2227947,17.8294513 6.67867027,17.8307715 C6.45267332,17.8307715 6.22674273,17.8494799 6.00067945,17.8594942 L6.00067945,34.0541584 C6.59251143,35.5155725 7.0580081,35.8234403 8.6792343,35.8234403 C17.9259996,35.8237301 27.1727981,35.8237301 36.4193975,35.8234403 C38.2710663,35.8234403 39.0004804,35.115676 39.0006794,33.3205695 L39.0006794,18.5691583 L39.0006794,17.8295157 C38.7441935,17.8295157 38.5275522,17.8295157 38.3111764,17.8295157 L38.3111764,17.8295157 Z M19.3904346,30.7771261 L8.12270187,30.7771261 L8.12270187,28.8481303 L19.3904346,28.8481303 L19.3904346,30.7771261 L19.3904346,30.7771261 Z M21.4447442,25.7613378 L8.13175901,25.7613378 L8.13175901,23.8611292 L21.4447442,23.8611292 L21.4447442,25.7613378 L21.4447442,25.7613378 Z M25.5736341,25.7756026 L22.572307,25.7756026 L22.572307,23.8598412 L25.5736341,23.8598412 L25.5736341,25.7756026 L25.5736341,25.7756026 Z" id="Shape" fill="#FFC334"></path>
            </g>
        </g>
    </g>
</svg>