<?xml version="1.0" encoding="UTF-8" standalone="no"?>
<svg width="33px" height="37px" viewBox="0 0 33 37" version="1.1" xmlns="http://www.w3.org/2000/svg" xmlns:xlink="http://www.w3.org/1999/xlink">
    <!-- Generator: Sketch 40 (33762) - http://www.bohemiancoding.com/sketch -->
    <title>注册会员</title>
    <desc>Created with Sketch.</desc>
    <defs></defs>
    <g id="Page-1" stroke="none" stroke-width="1" fill="none" fill-rule="evenodd">
        <g id="个人中心_会员卡_会员等级2" transform="translate(-173.000000, -1222.000000)">
            <g id="注册会员" transform="translate(167.000000, 1218.000000)">
                <rect id="Rectangle-8-Copy-6" x="0" y="0" width="44" height="44"></rect>
                <g id="会员" transform="translate(6.000000, 4.000000)" fill="#FFC334">
                    <g id="Group" transform="translate(0.107143, 0.000000)">
                        <path d="M21.2265129,22.6414956 C20.9939749,22.5670078 19.5262747,21.9153982 20.4433671,19.1697979 L20.4306513,19.1697979 C22.8211573,16.7458781 24.6482967,12.843031 24.6482967,9.00202453 C24.6482967,3.09519809 20.6588074,0 16.0233411,0 C11.3848676,0 7.41831848,3.09519809 7.41831848,9.00202453 C7.41831848,12.8585546 9.23540548,16.7767983 11.6402169,19.1950924 C12.5772853,21.6162627 10.9012762,22.5150651 10.5504716,22.6414955 C5.69526907,24.3702382 0,27.5216935 0,30.6324151 L0,31.7981215 C0,36.0364808 8.34529143,37 16.0688778,37 C23.8038053,37 32.043675,36.0364808 32.043675,31.7981215 L32.043675,30.6324151 C32.043675,27.4276214 26.3198809,24.3015031 21.2265129,22.6414956 L21.2265129,22.6414956 L21.2265129,22.6414956 Z" id="Shape"></path>
                    </g>
                </g>
            </g>
        </g>
    </g>
</svg>