<?xml version="1.0" encoding="UTF-8" standalone="no"?>
<svg width="36px" height="36px" viewBox="0 0 36 36" version="1.1" xmlns="http://www.w3.org/2000/svg" xmlns:xlink="http://www.w3.org/1999/xlink">
    <!-- Generator: Sketch 40 (33762) - http://www.bohemiancoding.com/sketch -->
    <title>积分抵扣</title>
    <desc>Created with Sketch.</desc>
    <defs></defs>
    <g id="Page-1" stroke="none" stroke-width="1" fill="none" fill-rule="evenodd">
        <g id="外卖订单详情" transform="translate(-34.000000, -2409.000000)">
            <g id="6.1优惠" transform="translate(0.000000, 2132.000000)">
                <g id="优惠图标" transform="translate(30.000000, 31.000000)">
                    <g id="积分抵扣" transform="translate(0.000000, 242.000000)">
                        <rect id="Rectangle-8-Copy-3" x="0" y="0" width="44" height="44"></rect>
                        <circle id="Oval-4" fill="#429BFF" cx="22" cy="22" r="18"></circle>
                        <path d="M13,16.7414083 C13,18.4353504 14.7807842,20.0006174 17.6715486,20.8475884 C20.562313,21.6945594 24.1238816,21.6945594 27.014646,20.8475884 C29.9054104,20.0006174 31.6861947,18.4353504 31.6861946,16.7414083 C31.6861946,14.1228008 27.5031475,12 22.3430973,12 C17.1830471,12 13,14.1228008 13,16.7414083 L13,16.7414083 Z M22.3430973,22.9092884 C18.5267508,22.9092884 15.2449533,21.7480843 13.7944954,20.0839459 C13.2838081,20.6698722 13,21.3181075 13,22.0000118 C13,24.6186179 17.1830496,26.7414201 22.3430973,26.7414201 C27.503145,26.7414201 31.6861946,24.6186178 31.6861946,22.0000118 C31.6861946,21.3181075 31.4024104,20.6698722 30.8916992,20.0839459 C29.4412413,21.7480843 26.1594439,22.9092884 22.3430973,22.9092884 L22.3430973,22.9092884 Z M22.3430973,28.298625 C18.4769468,28.298625 15.1593327,27.1069393 13.7385706,25.4079042 C13.2630784,25.9765238 13,26.6019746 13,27.2585917 C13,29.8771977 17.1830496,32 22.3430973,32 C27.503145,32 31.6861946,29.8771977 31.6861946,27.2585917 C31.6861946,26.601951 31.4231162,25.9765238 30.9476241,25.4079042 C29.5268619,27.1069393 26.2092478,28.298625 22.3430973,28.298625 L22.3430973,28.298625 Z" id="Shape" fill="#FFFFFF"></path>
                    </g>
                </g>
            </g>
        </g>
    </g>
</svg>