<?xml version="1.0" encoding="UTF-8" standalone="no"?>
<svg width="36px" height="36px" viewBox="0 0 36 36" version="1.1" xmlns="http://www.w3.org/2000/svg" xmlns:xlink="http://www.w3.org/1999/xlink">
    <!-- Generator: Sketch 40 (33762) - http://www.bohemiancoding.com/sketch -->
    <title>其他优惠</title>
    <desc>Created with Sketch.</desc>
    <defs></defs>
    <g id="Page-1" stroke="none" stroke-width="1" fill="none" fill-rule="evenodd">
        <g id="个人中心_非会员" transform="translate(-282.000000, -1081.000000)">
            <g id="其他优惠" transform="translate(278.000000, 1077.000000)">
                <rect id="Rectangle-8-Copy-6" x="0" y="0" width="44" height="44"></rect>
                <path d="M21.1139306,21.5412074 C21.1606635,21.6835899 21.1872928,21.8285023 21.190661,21.9756959 C21.1912925,21.9781843 21.191924,21.9806313 21.1925556,21.9831198 C21.1900294,21.3513364 21.0977214,21.2778848 21.1139306,21.5412074 L21.1139306,21.5412074 Z M22,4 C12.0588986,4 4,12.0588986 4,22 C4,31.9411014 12.0588986,40 22,40 C31.9411014,40 40,31.9411014 40,22 C40,12.0588986 31.9411014,4 22,4 L22,4 Z" id="Shape" fill="#00C0C4"></path>
                <circle id="Oval-3-Copy" fill="#FFFFFF" cx="22" cy="22" r="3"></circle>
                <circle id="Oval-3-Copy-2" fill="#FFFFFF" cx="13" cy="22" r="3"></circle>
                <circle id="Oval-3-Copy-3" fill="#FFFFFF" cx="31" cy="22" r="3"></circle>
            </g>
        </g>
    </g>
</svg>