<?xml version="1.0" encoding="UTF-8" standalone="no"?>
<svg width="36px" height="36px" viewBox="0 0 36 36" version="1.1" xmlns="http://www.w3.org/2000/svg" xmlns:xlink="http://www.w3.org/1999/xlink">
    <!-- Generator: Sketch 40 (33762) - http://www.bohemiancoding.com/sketch -->
    <title>会员优惠</title>
    <desc>Created with Sketch.</desc>
    <defs></defs>
    <g id="Page-1" stroke="none" stroke-width="1" fill="none" fill-rule="evenodd">
        <g id="外卖订单详情" transform="translate(-34.000000, -2167.000000)">
            <g id="6.1优惠" transform="translate(0.000000, 2132.000000)">
                <g id="优惠图标" transform="translate(30.000000, 31.000000)">
                    <g id="会员优惠">
                        <rect id="Rectangle-8-Copy-3" x="0" y="0" width="44" height="44"></rect>
                        <circle id="Oval-4" fill="#FFC334" cx="22" cy="22" r="18"></circle>
                        <path d="M33.9453718,18.6790694 C33.8140801,18.2739656 33.4633932,17.9785594 33.0427416,17.9180961 L26.1058779,16.9100871 L23.0032488,10.6236354 C22.8149489,10.241853 22.4262565,10 22.0004224,10 C21.5745883,10 21.1858959,10.241853 20.997596,10.6236354 L17.8949669,16.9100871 L10.9572394,17.9180961 C10.5357241,17.9794231 10.1859009,18.2739656 10.0546093,18.6790694 C9.92331762,19.0841733 10.0330153,19.5281464 10.3379228,19.8252801 L15.3581012,24.7184856 L14.1730212,31.627709 C14.1013291,32.0474968 14.2732175,32.4716034 14.6178581,32.722094 C14.9624987,32.9725847 15.4185644,33.0054076 15.7960279,32.8067426 L22.0012862,29.5443177 L28.2056807,32.8067426 C28.3689315,32.8922549 28.54773,32.935443 28.7256647,32.935443 C28.9571526,32.935443 29.1886405,32.8637508 29.3829868,32.722094 C29.7276273,32.4716034 29.8995158,32.0474968 29.8278236,31.627709 L28.6427437,24.7184856 L33.662922,19.8252801 C33.9669658,19.5281464 34.0766634,19.0841733 33.9453718,18.6790694 L33.9453718,18.6790694 Z" id="Shape" fill="#FFFFFF"></path>
                    </g>
                </g>
            </g>
        </g>
    </g>
</svg>