<?xml version="1.0" encoding="UTF-8" standalone="no"?>
<svg width="36px" height="36px" viewBox="0 0 36 36" version="1.1" xmlns="http://www.w3.org/2000/svg" xmlns:xlink="http://www.w3.org/1999/xlink">
    <!-- Generator: Sketch 40 (33762) - http://www.bohemiancoding.com/sketch -->
    <title>优惠券优惠</title>
    <desc>Created with Sketch.</desc>
    <defs></defs>
    <g id="Page-1" stroke="none" stroke-width="1" fill="none" fill-rule="evenodd">
        <g id="外卖订单详情" transform="translate(-34.000000, -2328.000000)">
            <g id="6.1优惠" transform="translate(0.000000, 2132.000000)">
                <g id="优惠图标" transform="translate(30.000000, 31.000000)">
                    <g id="优惠券优惠" transform="translate(0.000000, 161.000000)">
                        <rect id="Rectangle-8-Copy-3" x="0" y="0" width="44" height="44"></rect>
                        <circle id="Oval-4" fill="#FF9C34" cx="22" cy="22" r="18"></circle>
                        <path d="M32.3888164,19.9827294 C32.9832336,19.6316536 33,19.3628144 33,18.8949459 L33,15.6315689 C33,14.7304543 32.179119,14 31.1664225,14 L12.8332415,14 C11.8208071,14 11,14.730461 11,15.6315689 L11,18.8949459 C11,19.3824183 11.0380688,19.7073777 11.6111499,19.9827294 C12.4458069,20.3287879 13.4442906,21.027783 13.4442906,22.1584226 C13.4442906,23.6256179 12.4082354,24.1028231 11.6472027,24.3315574 C11.1112159,24.6298688 11,25.1212952 11,25.4216335 L11,28.6850105 C11,29.5864241 11.8208474,30.3168452 12.8332415,30.3168452 L31.1665501,30.3168452 C32.1791123,30.3168452 32.9999932,29.5864175 32.9999932,28.6850105 L32.9999932,25.4216335 C32.9999932,24.8276688 32.8465421,24.639272 32.3889105,24.33385 C31.0539499,23.721544 30.5554674,23.1763232 30.5554674,22.1584226 C30.5554742,21.1402164 31.0223055,20.6337381 32.3888164,19.9827294 L32.3888164,19.9827294 Z M25.6665502,21.8864601 C25.6665502,22.036513 25.5298655,22.1584226 25.360992,22.1584226 L22.6109752,22.1584226 L22.6109752,23.2461729 L25.360992,23.2461729 C25.5298655,23.2461729 25.6665502,23.3679496 25.6665502,23.5181686 L25.6665502,24.0620271 C25.6665502,24.2122129 25.5298655,24.3340228 25.360992,24.3340228 L22.6109752,24.3340228 L22.6109752,26.2377535 C22.6109752,26.38774 22.4742905,26.5095499 22.3054507,26.5095499 L21.6942671,26.5095499 C21.525696,26.5095499 21.3887426,26.38774 21.3887426,26.2377535 L21.3887426,24.3340228 L18.6387929,24.3340228 C18.4699531,24.3340228 18.3332348,24.2122129 18.3332348,24.0620271 L18.3332348,23.5181686 C18.3332348,23.3679496 18.4699531,23.2461729 18.6387929,23.2461729 L21.3887426,23.2461729 L21.3887426,22.1584226 L18.6387929,22.1584226 C18.4699531,22.1584226 18.3332348,22.036513 18.3332348,21.8864601 L18.3332348,21.3424023 C18.3332348,21.1923494 18.4699531,21.0704398 18.6387929,21.0704398 L20.9524468,21.0704398 L18.4406539,18.6689363 C18.3332347,18.5644044 18.3332347,18.3948141 18.4406539,18.2902489 L18.8296743,17.9117277 C18.9368919,17.8071293 19.1111077,17.8071293 19.2184932,17.9117277 L21.9970364,20.5683144 L24.7743028,17.9124919 C24.8825283,17.8071293 25.0579538,17.8071293 25.1663137,17.9124919 L25.5583246,18.29407 C25.6665501,18.3995988 25.6665501,18.570352 25.5583246,18.6757479 L23.0538564,21.070473 L25.3609919,21.070473 C25.5296974,21.070473 25.6665501,21.1923495 25.6665501,21.3424355 L25.6665502,21.8864601 L25.6665502,21.8864601 L25.6665502,21.8864601 Z" id="Shape" fill="#FFFFFF"></path>
                    </g>
                </g>
            </g>
        </g>
    </g>
</svg>