<?xml version="1.0" encoding="UTF-8" standalone="no"?>
<svg width="36px" height="36px" viewBox="0 0 36 36" version="1.1" xmlns="http://www.w3.org/2000/svg" xmlns:xlink="http://www.w3.org/1999/xlink">
    <!-- Generator: Sketch 40 (33762) - http://www.bohemiancoding.com/sketch -->
    <title>自动抹零</title>
    <desc>Created with Sketch.</desc>
    <defs></defs>
    <g id="Page-1" stroke="none" stroke-width="1" fill="none" fill-rule="evenodd">
        <g id="外卖订单详情" transform="translate(-34.000000, -2490.000000)">
            <g id="6.1优惠" transform="translate(0.000000, 2132.000000)">
                <g id="优惠图标" transform="translate(30.000000, 31.000000)">
                    <g id="自动抹零" transform="translate(0.000000, 323.000000)">
                        <rect id="Rectangle-8-Copy-3" x="0" y="0" width="44" height="44"></rect>
                        <circle id="Oval-4" fill="#24CED4" cx="22" cy="22" r="18"></circle>
                        <path d="M28.6973973,19.1164728 C27.7002252,19.1164728 26.885781,19.930917 26.885781,20.9280891 L26.885781,18.8136666 C26.885781,17.8164945 26.0713368,17.0020503 25.0741647,17.0020503 L25.0741647,17.0020503 C24.0769927,17.0020503 23.2625485,17.8164945 23.2625485,18.8136666 L23.2625485,17.5241299 C23.2625485,16.5269579 22.4481043,15.7125137 21.4509322,15.7125137 L21.4509322,15.7125137 C20.4537601,15.7125137 19.6393159,16.5269579 19.6393159,17.5241299 L19.6393159,12.1675931 C19.6393159,11.170421 18.8248717,10.3559768 17.8276997,10.3559768 C16.8305276,10.3559768 16.0160834,11.170421 16.0160834,12.1675931 L16.0160834,21.7216501 L16.0160834,23.2409018 L16.0160834,25.1203884 L13.875557,22.9798619 C13.1446455,22.2489505 11.9490832,22.2489505 11.2181717,22.9798619 C10.4872602,23.7107734 10.4872602,24.9063357 11.2181717,25.6372472 L17.1437754,31.5628509 C18.5220655,33.2648304 20.636488,34.3559768 23.0015087,34.3559768 C27.0319633,34.3559768 30.3262857,31.1973951 30.5142344,27.22959 L30.5246759,27.22959 L30.5246759,23.235681 L30.5246759,21.7164293 L30.5246759,20.9228683 C30.5090136,19.9361378 29.6945694,19.1164728 28.6973973,19.1164728 L28.6973973,19.1164728 Z" id="Shape" fill="#FFFFFF" transform="translate(20.597332, 22.355977) rotate(-30.000000) translate(-20.597332, -22.355977) "></path>
                    </g>
                </g>
            </g>
        </g>
    </g>
</svg>