<?xml version="1.0" encoding="UTF-8" standalone="no"?>
<svg width="36px" height="36px" viewBox="0 0 36 36" version="1.1" xmlns="http://www.w3.org/2000/svg" xmlns:xlink="http://www.w3.org/1999/xlink">
    <!-- Generator: Sketch 40 (33762) - http://www.bohemiancoding.com/sketch -->
    <title>活动优惠</title>
    <desc>Created with Sketch.</desc>
    <defs></defs>
    <g id="Page-1" stroke="none" stroke-width="1" fill="none" fill-rule="evenodd">
        <g id="外卖订单详情" transform="translate(-34.000000, -2247.000000)">
            <g id="6.1优惠" transform="translate(0.000000, 2132.000000)">
                <g id="优惠图标" transform="translate(30.000000, 31.000000)">
                    <g id="活动优惠" transform="translate(0.000000, 80.000000)">
                        <rect id="Rectangle-8-Copy-3" x="0" y="0" width="44" height="44"></rect>
                        <circle id="Oval-4" fill="#FF5D2E" cx="22" cy="22" r="18"></circle>
                        <path d="M19.2699568,12.4266114 C18.7388269,11.9333119 18.0566761,11.6369862 17.4436179,11.6369862 C17.2605328,11.6369862 16.922165,11.6669698 16.7052355,11.8688573 C16.656224,11.9145346 16.5058299,12.0532962 16.5058299,12.3984078 C16.5058299,12.7847594 16.7164417,13.3939317 17.3050568,13.9431872 C18.0252887,14.6132793 19.2135245,15.1208937 20.0685068,15.1208937 C20.3688687,15.1208937 20.4767443,15.0537566 20.4773961,15.0528541 C20.6172859,14.773952 20.274205,13.3625693 19.2699568,12.4266114 L19.2699568,12.4266114 L19.2699568,12.4266114 Z M22.8007949,15.0756927 C22.8204999,15.0756927 22.9366736,15.1208937 23.1844389,15.1208937 C24.0394212,15.1208937 25.227632,14.6132793 25.9485156,13.9431872 C26.5373814,13.3939317 26.7468902,12.7851855 26.7468902,12.3984078 C26.7468902,12.0551013 26.5975992,11.9149608 26.5474846,11.8688573 C26.3308058,11.6669698 25.9928642,11.6369862 25.8093278,11.6369862 C25.1963197,11.6369862 24.5141189,11.9333119 23.9821115,12.4266114 C22.9861364,13.3558757 22.6409997,14.7533947 22.7992406,15.0765451 C22.7992406,15.0765451 22.7998924,15.0756927 22.8007949,15.0756927 L22.8007949,15.0756927 L22.8007949,15.0756927 Z M20.8241122,32 L13.6040946,32 C12.7218113,32 12.0000251,31.2784395 12.0000251,30.3957048 L12.0000251,24.7797568 L20.8241122,24.7797568 L20.8241122,32 L20.8241122,32 L20.8241122,32 L20.8241122,32 Z M31.2528956,30.3952536 C31.2528956,31.2784395 30.5311345,32 29.6486004,32 L22.4288335,32 L22.4288335,24.7797568 L31.2528956,24.7797568 L31.2528956,30.3952536 L31.2528956,30.3952536 L31.2528956,30.3952536 Z M31.2528956,23.1750104 L22.4288335,23.1750104 L22.4288335,16.6642942 C22.1342627,16.5845971 21.8744638,16.4516767 21.6658576,16.2578868 C21.6524452,16.2453268 21.639434,16.2319144 21.6264478,16.2193544 C21.6134616,16.2319144 21.6002498,16.2453267 21.5870631,16.2578868 C21.3782562,16.4516767 21.1185827,16.5846222 20.8240871,16.6642942 L20.8240871,23.1750355 L12,23.1750355 L12,17.5595386 C12,16.6772803 12.7217862,15.9547922 13.6040696,15.9547922 L17.3169399,15.9547922 C16.9008556,15.7202387 16.5150055,15.4449466 16.189323,15.141476 C14.699196,13.7520546 14.4303719,11.7511293 15.5877217,10.6700921 C16.0738512,10.2189099 16.7318597,10 17.4435678,10 C18.4310693,10 19.5196525,10.4216749 20.3862421,11.2287738 C20.8880654,11.6969784 21.3193672,12.2981535 21.6264227,12.9306408 C21.9335034,12.2981535 22.3648051,11.6969784 22.8665783,11.2287738 C23.7329924,10.4217 24.8218012,10 25.8092777,10 C26.5196571,10 27.1788187,10.21891 27.6638452,10.6700921 C28.8233761,11.7511293 28.5536997,13.7520546 27.06445,15.141476 C26.7385921,15.4449466 26.3522907,15.7202387 25.9357551,15.9547922 L29.6486004,15.9547922 C30.5311345,15.9547922 31.2528956,16.6772803 31.2528956,17.5595386 L31.2528956,23.1750104 L31.2528956,23.1750104 L31.2528956,23.1750104 L31.2528956,23.1750104 Z" id="Shape" fill="#FFFFFF"></path>
                    </g>
                </g>
            </g>
        </g>
    </g>
</svg>