<?xml version="1.0" encoding="UTF-8" standalone="no"?>
<svg width="24px" height="24px" viewBox="0 0 24 24" version="1.1" xmlns="http://www.w3.org/2000/svg" xmlns:xlink="http://www.w3.org/1999/xlink">
    <!-- Generator: Sketch 40 (33762) - http://www.bohemiancoding.com/sketch -->
    <title>说明</title>
    <desc>Created with Sketch.</desc>
    <defs></defs>
    <g id="Page-1" stroke="none" stroke-width="1" fill="none" fill-rule="evenodd">
        <g id="会员充值" transform="translate(-594.000000, -247.000000)" fill="#666666">
            <g id="说明" transform="translate(594.000000, 247.000000)">
                <g id="Group">
                    <path d="M12,0 C5.37309532,0 0,5.3717893 0,12 C0,18.6255986 5.3717893,24 12,24 C18.6242926,24 24,18.6282107 24,12 C24,5.3717893 18.6242926,0 12,0 L12,0 Z M12,22.2028734 C6.36569438,22.2028734 1.79582062,17.6356117 1.79582062,11.998694 C1.79582062,6.36438836 6.36438833,1.7945146 12,1.7945146 C17.6356117,1.7945146 22.2041794,6.36177625 22.2041794,11.998694 C22.2041794,17.6356117 17.6343056,22.2028734 12,22.2028734 L12,22.2028734 Z M10.8846321,8.12625164 L10.8846321,6.01828472 L13.1623857,6.01828472 L13.1623857,8.12494559 L10.8846321,8.12494559 L10.8846321,8.12625164 Z M10.8846321,17.9020462 L10.8846321,9.29255553 L13.1623857,9.29255553 L13.1623857,17.9020462 L10.8846321,17.9020462 L10.8846321,17.9020462 Z" id="Shape"></path>
                </g>
            </g>
        </g>
    </g>
</svg>