<?xml version="1.0" encoding="UTF-8" standalone="no"?>
<svg width="80px" height="80px" viewBox="0 0 80 80" version="1.1" xmlns="http://www.w3.org/2000/svg" xmlns:xlink="http://www.w3.org/1999/xlink">
    <!-- Generator: Sketch 40 (33762) - http://www.bohemiancoding.com/sketch -->
    <title>微信登录</title>
    <desc>Created with Sketch.</desc>
    <defs></defs>
    <g id="Page-1" stroke="none" stroke-width="1" fill="none" fill-rule="evenodd">
        <g id="登录页" transform="translate(-335.000000, -1097.000000)">
            <g id="微信登录" transform="translate(335.000000, 1097.000000)">
                <circle id="Oval-3" fill="#81542C" cx="40" cy="40" r="40"></circle>
                <path d="M49.9331041,31.5406169 C50.508079,31.5406169 51.0770744,31.5824037 51.6412104,31.6465036 C50.1060911,24.3908841 42.4643242,19 33.7410209,19 C23.9882984,19 16,25.7463899 16,34.3143449 C16,39.261735 18.6577208,43.3210618 23.0991062,46.4718643 L21.3247097,51.8887545 L27.5266629,48.732397 C29.7457341,49.1775318 31.526409,49.6366522 33.7409246,49.6366522 C34.2976674,49.6366522 34.8495,49.6084343 35.3971774,49.5648934 C35.0506966,48.3616904 34.8495506,47.1008633 34.8495506,45.7915112 C34.8496469,37.9243706 41.5054922,31.5406169 49.9331041,31.5406169 L49.9331041,31.5406169 Z M40.2689527,26.2924274 C41.7837673,26.2924274 43.0116975,27.5389141 43.0116975,29.0765868 C43.0116975,30.6142594 41.7837623,31.8606947 40.2689527,31.8606947 C38.7540368,31.8606947 37.5261066,30.614208 37.5261066,29.0765868 C37.5261066,27.5389655 38.7541381,26.2924274 40.2689527,26.2924274 L40.2689527,26.2924274 Z M27.8561785,31.9168271 C26.3413638,31.9168271 25.1133323,30.6703404 25.1133323,29.1327192 C25.1133323,27.5950979 26.3413689,26.3486113 27.8561785,26.3486113 C29.3710944,26.3486113 30.5990753,27.5950979 30.5990753,29.1327192 C30.5990753,30.670289 29.3710944,31.9168271 27.8561785,31.9168271 L27.8561785,31.9168271 Z M66,45.6337664 C66,38.4341712 58.9026674,32.5654645 50.9309744,32.5654645 C42.4897417,32.5654645 35.8416949,38.4341712 35.8416949,45.6337664 C35.8416949,52.8457988 42.4897417,58.7017082 50.9309744,58.7017082 C52.697471,58.7017082 54.4796661,58.2490688 56.2540626,57.7976072 L61.1204717,60.5031205 L59.7858903,56.0028199 C63.3470931,53.2910366 66,49.6950941 66,45.6337664 L66,45.6337664 Z M46.2952333,43.6154884 C45.2164891,43.6154884 44.3420781,42.7277339 44.3420781,41.63283 C44.3420781,40.5378232 45.2165397,39.6502745 46.2952333,39.6502745 C47.3739268,39.6502745 48.2483885,40.5378746 48.2483885,41.63283 C48.2484949,42.7277853 47.3739319,43.6154884 46.2952333,43.6154884 L46.2952333,43.6154884 Z M56.0480571,43.7279538 C54.9692116,43.7279538 54.0948513,42.8402508 54.0948513,41.7453983 C54.0948513,40.6503401 54.9692622,39.7628428 56.0480571,39.7628428 C57.1267507,39.7628428 58.0012123,40.6503915 58.0012123,41.7453983 C58.001268,42.8402508 57.1267557,43.7279538 56.0480571,43.7279538 L56.0480571,43.7279538 Z" id="Shape" fill="#FFFFFF"></path>
            </g>
        </g>
    </g>
</svg>