<?xml version="1.0" encoding="UTF-8" standalone="no"?>
<svg width="512px" height="512px" viewBox="0 0 512 512" version="1.1" xmlns="http://www.w3.org/2000/svg" xmlns:xlink="http://www.w3.org/1999/xlink">
    <!-- Generator: Sketch 40 (33762) - http://www.bohemiancoding.com/sketch -->
    <title>商铺logo</title>
    <desc>Created with Sketch.</desc>
    <defs></defs>
    <g id="Page-1" stroke="none" stroke-width="1" fill="none" fill-rule="evenodd">
        <g id="商铺logo">
            <rect id="Rectangle-5-Copy" fill="#E6E6E6" x="0" y="0" width="512" height="512"></rect>
            <path d="M412.096774,206.612903 C412.034759,206.216236 411.973519,206.094293 412.096774,205.612903 C411.851038,205.240695 411.667317,204.630982 411.096774,203.612903 L385.096774,137.612903 C380.067317,124.148883 367.268092,115.612903 351.096774,115.612903 L164.096774,115.612903 C148.027782,115.612903 135.77972,123.965969 131.096774,137.612903 L103.096774,204.612903 C102.526232,205.118752 102.342511,205.667494 102.096774,206.612903 C100.13786,212.679192 99.0967742,219.203119 99.0967742,225.612903 C99.0967742,248.896136 111.834759,269.992201 132.096774,280.612903 C140.678945,285.356966 150.599875,287.612903 162.096774,287.612903 C161.745611,287.612903 161.745611,287.612903 162.096774,287.612903 C180.485146,287.551932 197.816154,279.381779 210.096774,265.612903 C221.393673,279.320808 238.54096,287.429989 257.096774,287.612903 C275.713828,287.429989 292.861115,279.259837 304.096774,265.612903 C316.377394,279.381779 333.708402,287.490961 352.096774,287.612903 C363.899875,287.429989 373.943286,285.052109 382.096774,280.612903 C402.603751,269.44346 415.096774,248.469337 415.096774,225.612903 C415.096775,218.959234 413.994449,212.374336 412.096774,206.612903 L412.096774,206.612903 Z M160.086957,217.612903 C156.151774,217.612903 152.774194,214.201353 152.774194,210.30014 C152.774194,205.734131 156.151773,202.322581 160.086957,202.322581 L258.077139,202.322581 L356.067321,202.322581 C360.002504,202.322581 363.380084,205.734131 363.380084,210.30014 C363.380084,214.201353 359.961811,217.612903 356.067321,217.612903 L160.086957,217.612903 Z M392.096774,308.612903 C392.035495,302.01366 386.9493,296.941189 381.096774,296.612903 C379.473205,296.941189 378.431454,297.246759 377.096774,297.612903 L377.096774,297.612903 C368.871858,300.97472 358.086673,302.747029 350.096774,302.612903 C331.981623,301.341405 318.255023,297.796786 305.096774,286.612903 C292.088694,297.674558 275.48196,303.969312 258.096774,304.612903 C239.939872,304.030426 223.210579,299.569096 210.096774,288.612903 C196.98297,299.63021 180.192397,305.069366 162.096774,304.612903 L162.096774,304.612903 C151.329771,305.069366 145.140546,302.991486 135.096774,299.612903 C134.968155,299.202411 134.661758,299.141297 134.096774,298.612903 C133.865124,298.835727 133.497448,298.713498 133.096774,298.612903 C133.007212,298.530156 131.352667,298.224585 130.096774,298.612903 C130.494754,298.224585 130.494754,298.224585 130.096774,298.612903 C124.18297,298.224585 119.096774,303.358171 119.096774,309.612903 L119.096774,370.612903 C119.158054,386.534482 132.271858,399.612903 148.096774,399.612903 L363.096774,399.612903 C378.982969,399.429561 392.096774,386.35114 392.096774,370.612903 L392.096774,308.612903 L392.096774,308.612903 Z" id="Shape" fill="#C9C9C9"></path>
        </g>
    </g>
</svg>