<?xml version="1.0" encoding="UTF-8" standalone="no"?>
<svg width="208px" height="326px" viewBox="0 0 208 326" version="1.1" xmlns="http://www.w3.org/2000/svg" xmlns:xlink="http://www.w3.org/1999/xlink">
    <!-- Generator: Sketch 40 (33762) - http://www.bohemiancoding.com/sketch -->
    <title>lv3</title>
    <desc>Created with Sketch.</desc>
    <defs>
        <path d="M55,107.003702 C55,103.687949 57.6855758,101 60.9986181,101 L145.186353,101 C148.499298,101 151.184971,103.690682 151.184971,107.003702 L151.184971,139.341886 C151.184971,142.657639 148.499395,145.345588 145.186353,145.345588 L60.9986181,145.345588 C57.6856728,145.345588 55,142.654906 55,139.341886 L55,107.003702 Z" id="path-1"></path>
        <mask id="mask-2" maskContentUnits="userSpaceOnUse" maskUnits="objectBoundingBox" x="0" y="0" width="96.1849711" height="44.3455882" fill="white">
            <use xlink:href="#path-1"></use>
        </mask>
        <rect id="path-3" x="67" y="0" width="72.1387283" height="113.860294"></rect>
        <linearGradient x1="50%" y1="0%" x2="50%" y2="100%" id="linearGradient-5">
            <stop stop-color="#FFE198" offset="0%"></stop>
            <stop stop-color="#FFCB4C" offset="100%"></stop>
        </linearGradient>
        <linearGradient x1="50%" y1="0%" x2="50%" y2="100%" id="linearGradient-6">
            <stop stop-color="#CE9C25" offset="0%"></stop>
            <stop stop-color="#BF8C13" offset="100%"></stop>
        </linearGradient>
        <ellipse id="path-7" cx="103.751445" cy="222.158088" rx="78.7514451" ry="78.5036765"></ellipse>
    </defs>
    <g id="Page-1" stroke="none" stroke-width="1" fill="none" fill-rule="evenodd">
        <g id="个人中心_会员卡_会员等级2" transform="translate(-560.000000, -128.000000)">
            <g id="lv3" transform="translate(560.000000, 128.000000)">
                <use id="Rectangle-2-Copy" stroke="#FFCB50" mask="url(#mask-2)" stroke-width="24" xlink:href="#path-1"></use>
                <mask id="mask-4" fill="white">
                    <use xlink:href="#path-3"></use>
                </mask>
                <use id="Mask" fill="#24CED4" xlink:href="#path-3"></use>
                <rect id="Rectangle" fill="#FFFFFF" mask="url(#mask-4)" x="92.2485549" y="-44.3455882" width="21.6416185" height="158.205882"></rect>
                <ellipse id="Oval-2-Copy-7" fill="url(#linearGradient-5)" cx="104" cy="222.327206" rx="104" ry="103.672794"></ellipse>
                <mask id="mask-8" fill="white">
                    <use xlink:href="#path-7"></use>
                </mask>
                <use id="Mask-Copy" fill="url(#linearGradient-6)" xlink:href="#path-7"></use>
                <path d="M103.559102,257.211402 L70.1713111,274.709177 C67.8276054,275.937459 66.2914586,274.818724 66.7416062,272.202419 L73.1146231,235.161785 L46.1180903,208.929462 C44.2138424,207.079119 44.7998786,205.270625 47.4146945,204.891866 L84.7433791,199.484756 L101.428154,165.784074 C102.605044,163.406937 104.511548,163.403681 105.690049,165.784074 L122.374824,199.484756 L159.703509,204.891866 C162.323851,205.271426 162.906969,207.076585 161.000113,208.929462 L134.00358,235.161785 L140.376597,272.202419 C140.826129,274.815146 139.285655,275.934868 136.946892,274.709177 L103.559102,257.211402 Z" id="Star-Copy-2" fill="url(#linearGradient-5)" mask="url(#mask-8)"></path>
            </g>
        </g>
    </g>
</svg>