<?xml version="1.0" encoding="UTF-8" standalone="no"?>
<svg width="208px" height="327px" viewBox="0 0 208 327" version="1.1" xmlns="http://www.w3.org/2000/svg" xmlns:xlink="http://www.w3.org/1999/xlink">
    <!-- Generator: Sketch 40 (33762) - http://www.bohemiancoding.com/sketch -->
    <title>lv4</title>
    <desc>Created with Sketch.</desc>
    <defs>
        <path d="M55,107.003702 C55,103.687949 57.6855758,101 60.9986181,101 L145.186353,101 C148.499298,101 151.184971,103.690682 151.184971,107.003702 L151.184971,139.341886 C151.184971,142.657639 148.499395,145.345588 145.186353,145.345588 L60.9986181,145.345588 C57.6856728,145.345588 55,142.654906 55,139.341886 L55,107.003702 Z" id="path-1"></path>
        <mask id="mask-2" maskContentUnits="userSpaceOnUse" maskUnits="objectBoundingBox" x="0" y="0" width="96.1849711" height="44.3455882" fill="white">
            <use xlink:href="#path-1"></use>
        </mask>
        <rect id="path-3" x="67" y="0" width="72.1387283" height="113.860294"></rect>
        <linearGradient x1="50%" y1="0%" x2="50%" y2="100%" id="linearGradient-5">
            <stop stop-color="#FFE198" offset="0%"></stop>
            <stop stop-color="#FFCB4C" offset="100%"></stop>
        </linearGradient>
        <linearGradient x1="50%" y1="0%" x2="50%" y2="100%" id="linearGradient-6">
            <stop stop-color="#CE9C25" offset="0%"></stop>
            <stop stop-color="#BF8C13" offset="100%"></stop>
        </linearGradient>
        <ellipse id="path-7" cx="103.751445" cy="222.158088" rx="78.7514451" ry="78.5036765"></ellipse>
    </defs>
    <g id="Page-1" stroke="none" stroke-width="1" fill="none" fill-rule="evenodd">
        <g id="个人中心_会员卡_会员等级2" transform="translate(-313.000000, -128.000000)">
            <g id="lv4" transform="translate(313.000000, 128.000000)">
                <use id="Rectangle-2-Copy" stroke="#FFCB50" mask="url(#mask-2)" stroke-width="24" xlink:href="#path-1"></use>
                <mask id="mask-4" fill="white">
                    <use xlink:href="#path-3"></use>
                </mask>
                <use id="Mask" fill="#429BFF" xlink:href="#path-3"></use>
                <rect id="Rectangle" fill="#FFFFFF" mask="url(#mask-4)" x="92.2485549" y="-44.3455882" width="21.6416185" height="158.205882"></rect>
                <circle id="Oval-2-Copy-7" fill="url(#linearGradient-5)" cx="104" cy="222.654412" r="104"></circle>
                <mask id="mask-8" fill="white">
                    <use xlink:href="#path-7"></use>
                </mask>
                <use id="Mask-Copy" fill="url(#linearGradient-6)" xlink:href="#path-7"></use>
                <path d="M105.028133,258.565673 L80.208194,272.77467 C77.3283414,274.423337 74.9839312,273.073042 74.9717806,269.751425 L74.8671638,241.152229 L50.1518411,226.762029 C47.2841272,225.092337 47.2813124,222.386871 50.1518411,220.71554 L74.8671638,206.325341 L74.9717806,177.726144 C74.9839192,174.407785 77.3255146,173.052614 80.208194,174.702899 L105.028133,188.911897 L129.848073,174.702899 C132.727925,173.054232 135.072336,174.404528 135.084486,177.726144 L135.189103,206.325341 L159.904426,220.71554 C162.77214,222.385232 162.774954,225.090698 159.904426,226.762029 L135.189103,241.152229 L135.084486,269.751425 C135.072348,273.069785 132.730752,274.424956 129.848073,272.77467 L105.028133,258.565673 Z" id="Star-3" fill="url(#linearGradient-5)" transform="translate(105.028133, 223.738785) rotate(30.000000) translate(-105.028133, -223.738785) "></path>
            </g>
        </g>
    </g>
</svg>