<?xml version="1.0" encoding="UTF-8" standalone="no"?>
<svg width="220px" height="303px" viewBox="0 0 220 303" version="1.1" xmlns="http://www.w3.org/2000/svg" xmlns:xlink="http://www.w3.org/1999/xlink">
    <!-- Generator: Sketch 40 (33762) - http://www.bohemiancoding.com/sketch -->
    <title>无地址</title>
    <desc>Created with Sketch.</desc>
    <defs>
        <path d="M109.805192,285.249998 C119.697899,285.32061 219.2117,190.869823 219.610385,109.805192 C219.610385,49.1614592 170.448926,0 109.805192,0 C49.1614592,0 -5.68434189e-14,49.1614592 -5.68434189e-14,109.805192 C-5.68434189e-14,189.472627 99.9124855,285.179387 109.805192,285.249998 Z" id="path-1"></path>
        <mask id="mask-2" maskContentUnits="userSpaceOnUse" maskUnits="objectBoundingBox" x="0" y="0" width="219.610385" height="285.250038" fill="white">
            <use xlink:href="#path-1"></use>
        </mask>
    </defs>
    <g id="Page-1" stroke="none" stroke-width="1" fill="none" fill-rule="evenodd">
        <g id="个人中心_地址管理_无地址" transform="translate(-265.000000, -448.000000)">
            <g id="无地址" transform="translate(265.000000, 448.000000)">
                <ellipse id="Oval-2" fill="#E3E3E3" cx="109" cy="285.794118" rx="77" ry="16.7941176"></ellipse>
                <use id="Oval-6" stroke="#D6D6D6" mask="url(#mask-2)" stroke-width="12" fill="#E9E9E9" xlink:href="#path-1"></use>
                <circle id="Oval" stroke="#D6D6D6" stroke-width="4" fill="#F1F1F1" cx="110" cy="113" r="76"></circle>
                <path d="M115,102.347092 L115,102.347092 C114.411261,99.8547303 112.172228,98 109.5,98 C106.827772,98 104.588739,99.8547303 104,102.347092" id="Combined-Shape" stroke="#D6D6D6" stroke-width="4" stroke-linecap="round" transform="translate(109.500000, 100.173546) scale(1, -1) translate(-109.500000, -100.173546) "></path>
                <circle id="Oval-7" fill="#CCCCCC" cx="85.5" cy="92.5" r="6.5"></circle>
                <circle id="Oval-7-Copy" fill="#CCCCCC" cx="133.5" cy="92.5" r="6.5"></circle>
                <circle id="Oval-7-Copy-2" fill="#D8D8D8" opacity="0.3" cx="152" cy="114" r="8"></circle>
                <circle id="Oval-7-Copy-3" fill="#D8D8D8" opacity="0.3" cx="67" cy="114" r="8"></circle>
            </g>
        </g>
    </g>
</svg>