<?xml version="1.0" encoding="UTF-8" standalone="no"?>
<svg width="236px" height="275px" viewBox="0 0 236 275" version="1.1" xmlns="http://www.w3.org/2000/svg" xmlns:xlink="http://www.w3.org/1999/xlink">
    <!-- Generator: Sketch 40 (33762) - http://www.bohemiancoding.com/sketch -->
    <title>已作废</title>
    <desc>Created with Sketch.</desc>
    <defs>
        <rect id="path-1" x="0" y="0" width="238" height="284" rx="8"></rect>
    </defs>
    <g id="Page-1" stroke="none" stroke-width="1" fill="none" fill-rule="evenodd" opacity="0.5">
        <g id="排队_已作废" transform="translate(-484.000000, -582.000000)">
            <g id="已作废" transform="translate(482.000000, 577.000000)">
                <g>
                    <mask id="mask-2" fill="white">
                        <use xlink:href="#path-1"></use>
                    </mask>
                    <g id="Mask"></g>
                    <g id="印章" mask="url(#mask-2)">
                        <g transform="translate(139.741846, 142.470159) rotate(-30.000000) translate(-139.741846, -142.470159) translate(5.241846, 7.970159)">
                            <ellipse id="Oval-7-Copy" stroke="#999999" stroke-width="6" fill="none" opacity="0.6" cx="134.159236" cy="134.21281" rx="134.159236" ry="134.21281"></ellipse>
                            <ellipse id="Oval-7-Copy-2" stroke="#999999" stroke-width="4" fill="none" opacity="0.6" cx="134.538217" cy="134.591942" rx="115.589172" ry="115.635331"></ellipse>
                            <path d="M56.8750324,118.984716 L56.8750324,158.968716 C57.0110324,163.184716 59.5950324,166.788716 65.1710324,166.788716 L95.4990324,166.788716 C99.9870324,166.788716 102.639032,162.912716 102.503032,157.132716 L99.7830324,157.132716 L97.8790324,146.660716 L94.2070324,157.132716 L66.1230324,157.132716 L66.1230324,130.952716 L84.8230324,130.952716 L84.8230324,136.460716 L94.4110324,136.460716 L94.4110324,106.336716 L84.8230324,106.336716 L84.8230324,108.104716 L55.6510324,108.104716 L55.6510324,109.464716 L84.8230324,109.464716 L84.8230324,129.592716 L66.1230324,129.592716 L66.1230324,118.984716 L56.8750324,118.984716 Z M127.187032,135.576716 C130.927032,130.816716 134.463032,125.648716 137.727032,120.208716 L137.727032,168.080716 L146.567032,168.080716 L146.567032,148.428716 L161.527032,148.428716 L161.527032,147.068716 L146.567032,147.068716 L146.567032,132.720716 L160.303032,132.720716 L160.303032,131.360716 L146.567032,131.360716 L146.567032,117.080716 L162.615032,117.080716 L162.615032,115.720716 L140.311032,115.720716 C142.079032,112.456716 143.847032,109.056716 145.479032,105.520716 L135.687032,102.120716 L127.187032,135.576716 Z M109.779032,139.452716 C111.819032,136.800716 113.859032,134.080716 115.831032,131.224716 L115.831032,168.080716 L124.671032,168.080716 L124.671032,122.452716 L121.475032,122.452716 C124.603032,117.216716 127.527032,111.708716 130.247032,105.928716 L119.299032,102.120716 L109.779032,139.452716 Z M184.239032,168.284716 C190.563032,166.312716 196.343032,162.776716 201.307032,158.356716 C204.639032,162.436716 208.787032,165.428716 213.887032,167.400716 L218.511032,158.288716 C214.431032,156.860716 210.555032,154.956716 206.883032,152.576716 C210.283032,148.632716 213.071032,144.280716 215.111032,139.860716 L207.631032,135.100716 L205.591032,139.044716 L196.207032,139.044716 C197.091032,136.392716 197.907032,133.672716 198.587032,130.816716 L218.307032,130.816716 L218.307032,129.456716 L198.859032,129.456716 C199.879032,124.968716 200.763032,120.276716 201.443032,115.380716 L192.467032,114.224716 C191.651032,119.664716 190.835032,124.696716 189.883032,129.456716 L187.367032,129.456716 L189.883032,117.556716 L181.859032,115.856716 L178.459032,132.244716 L186.483032,133.944716 L187.095032,130.816716 L189.611032,130.816716 C186.483032,145.980716 182.675032,157.948716 178.867032,167.400716 C185.667032,161.076716 190.631032,153.460716 194.167032,144.620716 C195.119032,147.476716 196.139032,150.060716 197.431032,152.440716 C193.419032,158.220716 188.999032,163.524716 184.239032,168.284716 L184.239032,168.284716 Z M167.783032,168.352716 C172.611032,162.504716 177.575032,149.244716 177.711032,135.304716 L177.711032,112.388716 L218.919032,112.388716 L218.919032,111.028716 L200.763032,111.028716 L200.763032,101.100716 L191.515032,101.100716 L191.515032,111.028716 L177.711032,111.028716 L177.711032,109.124716 L169.347032,109.124716 L169.347032,132.516716 C169.347032,142.852716 169.211032,156.724716 167.783032,168.352716 L167.783032,168.352716 Z M207.155032,128.640716 L213.479032,123.948716 C211.235032,120.752716 207.563032,118.440716 202.735032,116.944716 L207.155032,128.640716 Z M195.799032,140.404716 L204.843032,140.404716 C203.415032,142.988716 201.919032,145.504716 200.423032,147.884716 C198.519032,146.320716 196.683032,144.620716 194.915032,142.852716 L195.799032,140.404716 Z" id="已作废-copy-2" stroke="none" fill="#999999" fill-rule="evenodd" opacity="0.6"></path>
                            <rect id="Rectangle-6-Copy-2" stroke="none" fill-opacity="0.6" fill="#999999" fill-rule="evenodd" x="50.0254777" y="89.4752066" width="169.025478" height="1.51652893" rx="0.758264463"></rect>
                            <rect id="Rectangle-6-Copy-3" stroke="none" fill-opacity="0.6" fill="#999999" fill-rule="evenodd" x="50.0254777" y="178.950413" width="169.025478" height="1.51652893" rx="0.758264463"></rect>
                        </g>
                    </g>
                </g>
            </g>
        </g>
    </g>
</svg>