<?xml version="1.0" encoding="UTF-8" standalone="no"?>
<svg width="89px" height="88px" viewBox="0 0 89 88" version="1.1" xmlns="http://www.w3.org/2000/svg" xmlns:xlink="http://www.w3.org/1999/xlink">
    <!-- Generator: Sketch 40 (33762) - http://www.bohemiancoding.com/sketch -->
    <title>支付宝</title>
    <desc>Created with Sketch.</desc>
    <defs></defs>
    <g id="Page-1" stroke="none" stroke-width="1" fill="none" fill-rule="evenodd">
        <g id="支付页" transform="translate(-30.000000, -633.000000)">
            <g id="支付宝" transform="translate(30.000000, 633.000000)">
                <rect id="Rectangle-Copy-3" fill="#45B4FE" x="0" y="0" width="88" height="88" rx="16"></rect>
                <path d="M88.3562315,60.2051084 C84.9894257,59.186495 64.3889817,52.9452446 59.5509236,51.2114618 C62.7243886,45.8278397 65.2557532,39.6640326 66.9213944,32.9499532 L48.774047,32.9499533 L48.774047,26.8707238 L71.0249911,26.8707238 L71.0249911,23.1452826 L48.774047,23.1452825 L48.774047,13 L40.2173265,13 C38.6802686,13 38.4946149,14.3759104 38.4946149,14.3759104 L38.4946149,23.1452825 L17.6240763,23.1452825 L17.6240763,26.8707236 L38.4944984,26.8707236 L38.4944984,32.9499532 L21.3854833,32.9499533 L21.3854833,36.3357033 L55.9624749,36.3357033 C54.6906197,40.6172852 53.0139138,44.6396109 50.9985125,48.2953189 C43.1993145,45.7518925 38.8243421,43.98658 29.2598045,43.1012196 C11.116883,41.4142707 6.93525115,51.2524274 6.28453178,57.269058 C5.30292041,66.4338159 13.5176843,73.9270446 25.8283576,73.9270446 C38.1357699,73.9270446 46.3030138,68.325362 54.1019789,58.9940956 C64.0945447,63.702938 88.1876989,74 88.1876989,74 L88.3562315,60.2051084 L88.3562315,60.2051084 L88.3562315,60.2051084 L88.3562315,60.2051084 Z M24.4689169,68.1223758 C11.4618678,68.1223758 9.40185832,60.0108678 10.0952058,56.6190189 C10.7734122,53.2421294 14.5406427,48.8469718 21.7751927,48.8469718 C30.083482,48.8469718 37.5265141,50.941504 46.4604816,55.2397714 C40.1850644,63.3116948 32.4734519,68.1223758 24.4689169,68.1223758 L24.4689169,68.1223758 L24.4689169,68.1223758 L24.4689169,68.1223758 Z" id="Shape" fill="#FFFFFF"></path>
            </g>
        </g>
    </g>
</svg>