<?xml version="1.0" encoding="UTF-8" standalone="no"?>
<svg width="88px" height="88px" viewBox="0 0 88 88" version="1.1" xmlns="http://www.w3.org/2000/svg" xmlns:xlink="http://www.w3.org/1999/xlink">
    <!-- Generator: Sketch 40 (33762) - http://www.bohemiancoding.com/sketch -->
    <title>微信支付</title>
    <desc>Created with Sketch.</desc>
    <defs></defs>
    <g id="Page-1" stroke="none" stroke-width="1" fill="none" fill-rule="evenodd">
        <g id="支付页" transform="translate(-30.000000, -474.000000)">
            <g id="微信支付" transform="translate(30.000000, 474.000000)">
                <rect id="Rectangle" fill="#4BC643" x="0" y="0" width="88" height="88" rx="16"></rect>
                <path d="M54.9588364,33.876246 C55.6867466,33.876246 56.4070869,33.9291476 57.1212751,34.0102972 C55.1778356,24.824784 45.5034652,18 34.459885,18 C22.1130744,18 12,26.5408356 12,37.3877471 C12,43.6510738 15.3646375,48.790125 20.9873694,52.7789969 L18.7410082,59.6367044 L26.5925945,55.6407998 C29.4019076,56.2043343 31.6562172,56.7855743 34.4597631,56.7855743 C35.1645917,56.7855743 35.863204,56.7498508 36.5565559,56.6947287 C36.1179161,55.1714905 35.8632682,53.575301 35.8632682,51.9176795 C35.8633901,41.9579892 44.2895974,33.876246 54.9588364,33.876246 L54.9588364,33.876246 Z M42.7241556,27.2321114 C44.6418898,27.2321114 46.1964323,28.8101461 46.1964323,30.7568183 C46.1964323,32.7034904 44.6418833,34.28146 42.7241556,34.28146 C40.8062931,34.28146 39.2517506,32.7034253 39.2517506,30.7568183 C39.2517506,28.8102112 40.8064214,27.2321114 42.7241556,27.2321114 L42.7241556,27.2321114 Z M27.0097565,34.3525229 C25.0920224,34.3525229 23.5373516,32.7744882 23.5373516,30.8278811 C23.5373516,28.8812741 25.0920288,27.3032394 27.0097565,27.3032394 C28.927619,27.3032394 30.4822257,28.8812741 30.4822257,30.8278811 C30.4822257,32.7744231 28.927619,34.3525229 27.0097565,34.3525229 L27.0097565,34.3525229 Z M75.2993025,51.7179767 C75.2993025,42.6033897 66.3141784,35.1736889 56.2221264,35.1736889 C45.5356434,35.1736889 37.119309,42.6033897 37.119309,51.7179767 C37.119309,60.8483092 45.5356434,68.2618087 56.2221264,68.2618087 C58.4584864,68.2618087 60.7147205,67.6887735 62.9610817,67.1172295 L69.1218877,70.5423716 L67.4323263,64.8450538 C71.9407594,61.411974 75.2993025,56.859561 75.2993025,51.7179767 L75.2993025,51.7179767 Z M50.3533427,49.1628649 C48.9876676,49.1628649 47.8806755,48.0389801 47.8806755,46.652847 C47.8806755,45.2665837 48.9877317,44.1429594 50.3533427,44.1429594 C51.7189537,44.1429594 52.8260099,45.2666488 52.8260099,46.652847 C52.8261446,48.0390452 51.7189601,49.1628649 50.3533427,49.1628649 L50.3533427,49.1628649 Z M62.7002817,49.3052446 C61.3344782,49.3052446 60.2275503,48.1814249 60.2275503,46.795357 C60.2275503,45.4090286 61.3345424,44.2854693 62.7002817,44.2854693 C64.0658926,44.2854693 65.1729489,45.4090937 65.1729489,46.795357 C65.1730194,48.1814249 64.0658991,49.3052446 62.7002817,49.3052446 L62.7002817,49.3052446 Z" id="Shape" fill="#FFFFFF"></path>
            </g>
        </g>
    </g>
</svg>