<?xml version="1.0" encoding="UTF-8" standalone="no"?>
<svg width="88px" height="88px" viewBox="0 0 88 88" version="1.1" xmlns="http://www.w3.org/2000/svg" xmlns:xlink="http://www.w3.org/1999/xlink">
    <!-- Generator: Sketch 40 (33762) - http://www.bohemiancoding.com/sketch -->
    <title>百度钱包</title>
    <desc>Created with Sketch.</desc>
    <defs></defs>
    <g id="Page-1" stroke="none" stroke-width="1" fill="none" fill-rule="evenodd">
        <g id="支付页" transform="translate(-30.000000, -793.000000)">
            <g id="百度钱包" transform="translate(30.000000, 793.000000)">
                <rect id="Rectangle-Copy" fill="#FF5D5D" x="0" y="0" width="88" height="88" rx="16"></rect>
                <rect id="Rectangle-3" fill="#FFFFFF" transform="translate(43.778175, 49.778175) rotate(45.000000) translate(-43.778175, -49.778175) " x="38.2781746" y="44.2781746" width="11" height="11" rx="2"></rect>
                <path d="M68.6746539,46.656973 C68.6204906,46.2749286 68.2466774,44.8205648 68.1208294,44.4847947 C64.3035508,34.2837918 56.5825191,32.5772694 50.6474098,32.7837495 C48.3407736,32.8639847 46.1702453,33.5753116 44.4390857,34.3626369 C52.9563776,34.6098966 59.7859472,41.5436949 59.7859472,50.0669064 C59.7859472,58.7462855 52.704615,65.7828935 43.9698039,65.7828935 C35.2349262,65.7828935 28.1539937,58.7462855 28.1539937,50.0669064 C28.1539937,48.1361622 28.5058218,46.2881026 29.1467872,44.5795279 L29.1427233,44.4637428 C34.5741741,30.5761537 56.3558728,23.4465998 62.1253611,23.1603479 C65.3757573,22.9990167 64.6331941,21.0930315 64.6331941,21.0930315 C62.7228893,14.5313477 56.7975066,16.1859687 56.7975066,16.1859687 C34.3709118,24.2933073 19.7656809,16.119106 19.7656809,16.119106 C19.7656809,16.119106 20.7588742,25.3079659 30.7107934,28.4422394 L30.5544327,28.8877704 C30.5544327,28.8877704 29.611139,29.6069089 28.633735,30.3988682 L28.6332686,30.3890043 C22.6232768,34.9185244 19,42.0899833 19,50.1633609 C19,63.8622117 30.1758894,74.9675166 43.9620091,74.9675166 C57.7477957,74.9675166 68.9236851,63.8622118 68.9236851,50.1633609 C68.9237517,48.973138 68.8382097,47.8025767 68.6746539,46.656973 L68.6746539,46.656973 Z" id="Shape" fill="#FFFFFF"></path>
            </g>
        </g>
    </g>
</svg>