<?xml version="1.0" encoding="UTF-8" standalone="no"?>
<svg width="236px" height="275px" viewBox="0 0 236 275" version="1.1" xmlns="http://www.w3.org/2000/svg" xmlns:xlink="http://www.w3.org/1999/xlink">
    <!-- Generator: Sketch 40 (33762) - http://www.bohemiancoding.com/sketch -->
    <title>预订成功</title>
    <desc>Created with Sketch.</desc>
    <defs>
        <rect id="path-1" x="0" y="0" width="238" height="284" rx="8"></rect>
    </defs>
    <g id="Page-1" stroke="none" stroke-width="1" fill="none" fill-rule="evenodd" opacity="0.5">
        <g id="预订_预定详情" transform="translate(-94.000000, -1502.000000)">
            <g id="预订成功" transform="translate(92.000000, 1497.000000)">
                <g>
                    <mask id="mask-2" fill="white">
                        <use xlink:href="#path-1"></use>
                    </mask>
                    <g id="Mask"></g>
                    <g id="印章" mask="url(#mask-2)">
                        <g transform="translate(139.741846, 142.470159) rotate(-30.000000) translate(-139.741846, -142.470159) translate(5.241846, 7.970159)">
                            <ellipse id="Oval-7-Copy" stroke="#FF7417" stroke-width="6" fill="none" opacity="0.6" cx="134.159236" cy="134.21281" rx="134.159236" ry="134.21281"></ellipse>
                            <ellipse id="Oval-7-Copy-2" stroke="#FF7417" stroke-width="4" fill="none" opacity="0.6" cx="134.538217" cy="134.591942" rx="115.589172" ry="115.635331"></ellipse>
                            <path d="M60.1106941,109.488523 L66.6646941,109.488523 L66.0266941,118.304523 L60.8646941,118.304523 L60.8646941,126.250523 L55.1806941,122.422523 L54.5426941,125.728523 L50.1346941,125.728523 L54.5426941,121.958523 C53.4406941,120.682523 52.1646941,119.464523 50.6566941,118.478523 L60.8066941,111.228523 L54.0786941,105.486523 L52.8606941,109.024523 L40.4486941,109.024523 L40.4486941,110.184523 L52.4546941,110.184523 L49.7286941,117.898523 C47.8726941,116.796523 45.6686941,115.868523 43.1166941,115.172523 L48.7426941,125.728523 L39.8106941,125.728523 L39.8106941,126.888523 L45.7846941,126.888523 L45.7846941,154.670523 L40.9706941,154.670523 L45.7846941,158.498523 L45.7846941,160.992523 C49.4966941,160.760523 52.0486941,159.368523 52.0486941,155.830523 L52.0486941,126.888523 L54.3106941,126.888523 L53.0926941,133.442523 L60.8646941,126.830523 L60.8646941,147.304523 L66.6066941,147.304523 C64.9826941,152.002523 62.2566941,156.236523 58.4286941,160.470523 C65.5626941,158.266523 69.5066941,154.264523 71.7106941,149.856523 L78.0326941,160.586523 L83.3106941,155.076523 C80.2946941,152.060523 76.6406941,149.856523 72.4066941,148.290523 C74.5526941,143.128523 74.4946941,137.676523 74.4946941,134.196523 L74.4946941,124.220523 L68.5206941,124.220523 L68.5206941,135.414523 C68.5206941,139.648523 67.8826941,143.476523 66.7226941,147.014523 L66.7226941,120.624523 L76.1766941,120.624523 L76.1766941,146.782523 L81.9766941,146.782523 L81.9766941,118.304523 L76.1766941,118.304523 L76.1766941,119.464523 L67.3606941,119.464523 L73.2766941,111.170523 L68.4046941,109.488523 L82.7306941,109.488523 L82.7306941,108.328523 L60.1106941,108.328523 L60.1106941,109.488523 Z M105.350694,112.446523 L116.602694,112.446523 L116.602694,153.800523 L110.860694,153.800523 L116.602694,157.860523 L116.602694,161.050523 C122.344694,160.818523 123.504694,157.976523 123.504694,154.032523 L123.504694,112.446523 L132.610694,112.446523 L132.610694,111.286523 L105.350694,111.286523 L105.350694,112.446523 Z M87.8926941,126.772523 L92.8806941,126.772523 L92.8806941,149.566523 L88.9946941,151.712523 L95.0846941,158.034523 L107.438694,141.504523 L100.072694,145.622523 L100.072694,123.988523 L92.8806941,123.988523 L92.8806941,125.612523 L87.8926941,125.612523 L87.8926941,126.772523 Z M95.8386941,118.478523 L102.624694,114.824523 C100.652694,111.112523 96.7086941,107.748523 92.4166941,106.124523 L95.8386941,118.478523 Z M158.188694,103.688523 C158.246694,107.342523 158.246694,111.344523 158.420694,115.578523 L146.298694,115.578523 L146.298694,114.070523 L138.526694,114.070523 L138.526694,135.472523 C138.526694,142.490523 138.120694,153.394523 137.018694,161.108523 C142.006694,156.120523 144.326694,151.016523 145.428694,145.680523 L150.590694,149.450523 L150.590694,152.292523 C157.376694,152.292523 157.840694,148.986523 157.840694,144.752523 L157.840694,126.018523 L150.590694,126.018523 L150.590694,127.816523 L146.298694,127.816523 L146.298694,116.738523 L158.478694,116.738523 C158.826694,125.380523 159.638694,134.834523 162.016694,143.650523 C158.884694,149.566523 155.636694,154.844523 152.736694,159.078523 C156.912694,156.642523 160.740694,153.684523 164.162694,150.204523 C164.626694,151.480523 165.206694,152.756523 165.786694,153.974523 C167.700694,157.918523 170.716694,161.166523 174.834694,161.050523 C178.082694,160.992523 180.402694,158.440523 180.982694,152.872523 L178.836694,152.872523 L178.430694,140.924523 L174.602694,152.582523 C172.572694,150.088523 171.064694,146.956523 169.846694,143.418523 C173.558694,138.198523 176.574694,132.224523 178.836694,125.438523 L171.354694,121.842523 C170.136694,125.496523 168.802694,129.034523 167.294694,132.572523 C166.482694,127.584523 166.018694,122.248523 165.728694,116.738523 L179.648694,116.738523 L179.648694,115.578523 L173.558694,115.578523 L179.358694,111.808523 C177.328694,108.734523 173.500694,106.066523 169.440694,104.732523 L172.862694,115.578523 L165.670694,115.578523 C165.496694,111.634523 165.380694,107.632523 165.322694,103.688523 L158.188694,103.688523 Z M145.544694,145.100523 C146.182694,141.562523 146.298694,137.966523 146.298694,134.196523 L146.298694,128.976523 L150.590694,128.976523 L150.590694,145.100523 L145.544694,145.100523 Z M204.878694,121.552523 L210.620694,121.552523 C209.982694,141.678523 205.748694,152.582523 201.282694,161.282523 C214.506694,153.568523 218.044694,139.648523 218.508694,121.552523 L222.278694,121.552523 L222.278694,153.568523 L215.434694,153.568523 L221.930694,157.918523 L221.930694,160.992523 C225.758694,160.760523 229.470694,158.266523 229.470694,154.728523 L229.470694,118.594523 L222.278694,118.594523 L222.278694,120.392523 L218.508694,120.392523 C218.566694,119.232523 218.566694,118.014523 218.566694,116.796523 L218.566694,105.138523 L210.736694,105.138523 L210.736694,116.274523 C210.736694,117.724523 210.678694,119.058523 210.678694,120.392523 L204.878694,120.392523 L204.878694,121.552523 Z M187.826694,114.998523 L194.090694,114.998523 L194.090694,140.808523 L185.912694,143.128523 L189.914694,151.016523 L208.590694,136.690523 L201.224694,138.778523 L201.224694,114.998523 L207.430694,114.998523 L207.430694,113.838523 L187.826694,113.838523 L187.826694,114.998523 Z" id="预订成功" stroke="none" fill="#FF7417" fill-rule="evenodd" opacity="0.6"></path>
                            <rect id="Rectangle-6-Copy-2" stroke="none" fill-opacity="0.6" fill="#FF7417" fill-rule="evenodd" x="50.0254777" y="89.4752066" width="169.025478" height="1.51652893" rx="0.758264463"></rect>
                            <rect id="Rectangle-6-Copy-3" stroke="none" fill-opacity="0.6" fill="#FF7417" fill-rule="evenodd" x="50.0254777" y="178.950413" width="169.025478" height="1.51652893" rx="0.758264463"></rect>
                        </g>
                    </g>
                </g>
            </g>
        </g>
    </g>
</svg>