<?xml version="1.0" encoding="UTF-8" standalone="no"?>
<svg width="236px" height="275px" viewBox="0 0 236 275" version="1.1" xmlns="http://www.w3.org/2000/svg" xmlns:xlink="http://www.w3.org/1999/xlink">
    <!-- Generator: Sketch 40 (33762) - http://www.bohemiancoding.com/sketch -->
    <title>已到店</title>
    <desc>Created with Sketch.</desc>
    <defs>
        <rect id="path-1" x="0" y="0" width="238" height="284" rx="8"></rect>
    </defs>
    <g id="Page-1" stroke="none" stroke-width="1" fill="none" fill-rule="evenodd" opacity="0.5">
        <g id="预订_预定详情" transform="translate(-94.000000, -1816.000000)">
            <g id="已到店" transform="translate(92.000000, 1811.000000)">
                <g>
                    <mask id="mask-2" fill="white">
                        <use xlink:href="#path-1"></use>
                    </mask>
                    <g id="Mask"></g>
                    <g id="印章" mask="url(#mask-2)">
                        <g transform="translate(139.741846, 142.470159) rotate(-30.000000) translate(-139.741846, -142.470159) translate(5.241846, 7.970159)">
                            <ellipse id="Oval-7-Copy" stroke="#FF7417" stroke-width="6" fill="none" opacity="0.6" cx="134.159236" cy="134.21281" rx="134.159236" ry="134.21281"></ellipse>
                            <ellipse id="Oval-7-Copy-2" stroke="#FF7417" stroke-width="4" fill="none" opacity="0.6" cx="134.538217" cy="134.591942" rx="115.589172" ry="115.635331"></ellipse>
                            <path d="M60.1847449,119.072599 L60.1847449,156.704599 C60.3127449,160.672599 62.7447449,164.064599 67.9927449,164.064599 L96.5367449,164.064599 C100.760745,164.064599 103.256745,160.416599 103.128745,154.976599 L100.568745,154.976599 L98.7767449,145.120599 L95.3207449,154.976599 L68.8887449,154.976599 L68.8887449,130.336599 L86.4887449,130.336599 L86.4887449,135.520599 L95.5127449,135.520599 L95.5127449,107.168599 L86.4887449,107.168599 L86.4887449,108.832599 L59.0327449,108.832599 L59.0327449,110.112599 L86.4887449,110.112599 L86.4887449,129.056599 L68.8887449,129.056599 L68.8887449,119.072599 L60.1847449,119.072599 Z M151.768745,157.472599 L143.960745,157.472599 L151.384745,162.080599 L151.384745,165.344599 C155.416745,165.088599 159.384745,162.464599 159.384745,158.688599 L159.384745,103.008599 L151.768745,103.008599 L151.768745,157.472599 Z M111.256745,108.384599 L119.576745,108.384599 L115.096745,123.040599 L111.512745,123.232599 L114.520745,132.704599 L131.928745,125.088599 L133.720745,131.104599 L141.336745,126.816599 C139.160745,122.656599 135.320745,118.048599 128.792745,114.336599 L131.096745,122.272599 L119.512745,122.848599 L128.984745,108.384599 L140.056745,108.384599 L140.056745,107.040599 L111.256745,107.040599 L111.256745,108.384599 Z M112.152745,141.984599 L121.816745,141.984599 L121.816745,154.464599 L110.296745,155.744599 L113.432745,164.256599 L140.888745,152.224599 L129.496745,153.568599 L129.496745,141.984599 L139.160745,141.984599 L139.160745,140.704599 L129.496745,140.704599 L129.496745,131.296599 L121.816745,131.296599 L121.816745,140.704599 L112.152745,140.704599 L112.152745,141.984599 Z M149.464745,150.624599 L149.464745,111.392599 L142.104745,111.392599 L142.104745,150.624599 L149.464745,150.624599 Z M197.912745,139.488599 L197.912745,140.512599 L194.648745,140.512599 L194.648745,128.608599 L210.456745,128.608599 L210.456745,127.328599 L194.648745,127.328599 L194.648745,116.192599 L186.584745,116.192599 L186.584745,140.512599 L183.320745,140.512599 L183.320745,139.488599 L175.256745,139.488599 L175.256745,165.408599 L183.320745,165.408599 L183.320745,160.096599 L197.912745,160.096599 L197.912745,165.408599 L205.976745,165.408599 L205.976745,139.488599 L197.912745,139.488599 Z M165.208745,165.600599 C169.752745,159.968599 174.424745,147.296599 174.552745,133.984599 L174.552745,112.864599 L211.992745,112.864599 L211.992745,111.584599 L194.968745,111.584599 L194.968745,102.816599 L186.264745,102.816599 L186.264745,111.584599 L174.552745,111.584599 L174.552745,109.920599 L166.680745,109.920599 L166.680745,131.296599 C166.680745,141.152599 166.552745,154.464599 165.208745,165.600599 L165.208745,165.600599 Z M183.320745,141.792599 L197.912745,141.792599 L197.912745,158.816599 L183.320745,158.816599 L183.320745,141.792599 Z" id="已到店" stroke="none" fill="#FF7417" fill-rule="evenodd" opacity="0.6"></path>
                            <rect id="Rectangle-6-Copy-2" stroke="none" fill-opacity="0.6" fill="#FF7417" fill-rule="evenodd" x="50.0254777" y="89.4752066" width="169.025478" height="1.51652893" rx="0.758264463"></rect>
                            <rect id="Rectangle-6-Copy-3" stroke="none" fill-opacity="0.6" fill="#FF7417" fill-rule="evenodd" x="50.0254777" y="178.950413" width="169.025478" height="1.51652893" rx="0.758264463"></rect>
                        </g>
                    </g>
                </g>
            </g>
        </g>
    </g>
</svg>