<?xml version="1.0" encoding="UTF-8" standalone="no"?>
<svg width="44px" height="44px" viewBox="0 0 44 44" version="1.1" xmlns="http://www.w3.org/2000/svg" xmlns:xlink="http://www.w3.org/1999/xlink">
    <!-- Generator: Sketch 40 (33762) - http://www.bohemiancoding.com/sketch -->
    <title>刷新</title>
    <desc>Created with Sketch.</desc>
    <defs></defs>
    <g id="Page-1" stroke="none" stroke-width="1" fill="none" fill-rule="evenodd">
        <g id="排队_详情" transform="translate(-556.000000, -876.000000)">
            <g id="Group-4" transform="translate(142.000000, 860.000000)">
                <g id="刷新" transform="translate(414.000000, 16.000000)">
                    <rect id="Rectangle" fill="#FFFFFF" x="0" y="0" width="44" height="44"></rect>
                    <path d="M29.625145,32.3976946 C27.3938279,33.9639353 24.7767089,34.7441765 22.1077658,34.7125062 C21.7536342,34.7067479 21.4052608,34.6808359 21.0568874,34.6549238 C20.9158106,34.6405282 20.7747338,34.6174953 20.633657,34.5973414 C20.3572616,34.562792 20.0895035,34.5282426 19.8217455,34.4735393 C19.6576357,34.4447481 19.4935259,34.3986822 19.3351744,34.3612537 C19.0731746,34.3036713 18.8140539,34.2460889 18.5578123,34.1712318 C18.4368893,34.1251659 18.3217246,34.0877374 18.2008016,34.0387924 C17.9042523,33.9466606 17.6105822,33.8430123 17.3284286,33.7249684 C17.265088,33.6961772 17.2017473,33.6731443 17.1384067,33.6472322 C16.8073081,33.4946389 16.4790885,33.3391665 16.1595063,33.1721776 C16.1479899,33.1635403 16.1307151,33.157782 16.1191987,33.1491447 C15.0424082,32.5560462 14.0606287,31.8276291 13.1968931,30.9581352 C13.1824975,30.9437396 13.170981,30.9264649 13.1537063,30.9120693 C12.8859482,30.6443113 12.6297067,30.3679159 12.3878607,30.0684875 C12.3389157,30.008026 12.2899706,29.9475645 12.2381465,29.8755866 C10.4847631,27.681698 9.42812654,24.9033484 9.42812654,21.8831527 L12.808212,21.8831527 L7.40410602,13.7784333 L2,21.8831527 L5.37432725,21.8831527 C5.37432725,25.4331062 6.48566711,28.7268182 8.3657317,31.4533437 C8.38876465,31.4936513 8.40316024,31.5368381 8.42907231,31.5713875 C8.62197327,31.8535412 8.8407863,32.1097828 9.04808286,32.3689035 C9.12869819,32.4639144 9.19779704,32.5618044 9.28129148,32.6683318 C9.58647808,33.036859 9.91757674,33.3881115 10.2515545,33.7336058 C10.286104,33.7681552 10.3148951,33.7969464 10.3436863,33.8286167 C11.47518,34.9629895 12.7506297,35.9130987 14.141244,36.6789443 C14.1786726,36.6990982 14.2103429,36.7163729 14.2535297,36.7394058 C14.6537272,36.9553397 15.0654412,37.1539989 15.4800343,37.3353834 C15.5865617,37.3814493 15.6873308,37.4275152 15.7881,37.470702 C16.1479899,37.6232953 16.5136379,37.7499765 16.8821652,37.8766578 C17.0577914,37.9371192 17.2276594,37.9947016 17.4061648,38.052284 C17.7286261,38.1444158 18.0568456,38.2279102 18.3908234,38.3027673 C18.6125156,38.3545915 18.8255704,38.4121739 19.0530207,38.4524815 C19.1451525,38.4755145 19.2315261,38.5043057 19.3236579,38.512943 C19.640361,38.5705254 19.9541849,38.5993166 20.2651298,38.6367451 C20.3802945,38.6568989 20.4925801,38.6770528 20.6048658,38.6885693 C21.1691731,38.7432725 21.7306012,38.7778219 22.2920294,38.7778219 C25.7210599,38.7778219 29.0723542,37.7298227 31.9457148,35.7144395 C32.8612746,35.072396 33.0858458,33.8055837 32.4466815,32.8957822 C31.8017589,31.9715851 30.5407048,31.7498929 29.625145,32.3976946 L29.625145,32.3976946 Z M39.1435118,21.8831527 C39.1435118,18.3418366 38.0465676,15.0510038 36.1751403,12.3388739 C36.1463491,12.292808 36.1290744,12.2438629 36.1060415,12.2035553 C35.8641955,11.8695775 35.6165913,11.5586327 35.3603497,11.2448087 C35.3315585,11.2102593 35.3027673,11.1699516 35.2768553,11.129644 C33.5551422,9.05667841 31.4044405,7.44725099 28.9715851,6.39637263 C28.8996071,6.36758144 28.8391456,6.33591113 28.7671676,6.30711994 C28.3756075,6.14588929 27.9782891,6.00769159 27.5723333,5.86949388 C27.4341356,5.82342798 27.2873006,5.77160384 27.1433446,5.72841706 C26.7920921,5.62188966 26.4408396,5.5355161 26.0838289,5.45202165 C25.8851697,5.40883487 25.6836314,5.35701073 25.4849722,5.31670307 C25.3870821,5.29942836 25.2978295,5.27063717 25.1941812,5.25048334 C24.9264231,5.20729655 24.6644233,5.18138449 24.3966653,5.14971418 C24.2095225,5.12956035 24.0310172,5.10076916 23.8438745,5.08061533 C23.3947319,5.03742854 22.9484685,5.02015383 22.5022051,5.01151648 C22.4215898,5.01151648 22.3409744,5 22.2603591,5 C22.2459635,5 22.2315679,5.00287912 22.2171723,5.00575824 C18.7910209,5.00863736 15.4454849,6.04224101 12.5778825,8.05474506 C11.6623227,8.69390944 11.4377515,9.9578426 12.0826741,10.8791606 C12.7189593,11.7918413 13.9886507,12.0164126 14.9070896,11.3714899 C17.121132,9.82252402 19.7065807,9.03364546 22.3582491,9.05955753 C22.7382928,9.06243665 23.1183365,9.07971136 23.4868637,9.11713991 C23.6020285,9.12577726 23.711435,9.14305198 23.8265997,9.16032669 C24.1317863,9.19775523 24.4340938,9.2380629 24.7335222,9.30140351 C24.8630825,9.32443646 24.995522,9.35898589 25.1193241,9.38777707 C25.4158733,9.45399681 25.7037852,9.52309566 25.988818,9.60946922 C26.0838289,9.63538129 26.1702025,9.6670516 26.256576,9.70160103 C26.5876747,9.80812842 26.910136,9.92041406 27.2210808,10.0528535 C27.2556302,10.0614909 27.2873006,10.0874029 27.3189709,10.0989194 C29.2105519,10.9108309 30.8660452,12.1603685 32.1616487,13.7266091 C32.1645278,13.7323674 32.1702861,13.7438838 32.1818025,13.7525212 C34.0014056,15.9694427 35.0954708,18.7996165 35.0983499,21.8831527 L31.7153853,21.8831527 L37.1281287,29.9907513 L42.5264764,21.8831527 L39.1435118,21.8831527 L39.1435118,21.8831527 Z" id="Shape" fill="#209CFB"></path>
                </g>
            </g>
        </g>
    </g>
</svg>