<?xml version="1.0" encoding="UTF-8" standalone="no"?>
<svg width="110px" height="110px" viewBox="0 0 110 110" version="1.1" xmlns="http://www.w3.org/2000/svg" xmlns:xlink="http://www.w3.org/1999/xlink">
    <!-- Generator: Sketch 40 (33762) - http://www.bohemiancoding.com/sketch -->
    <title>默认商户logo</title>
    <desc>Created with Sketch.</desc>
    <defs></defs>
    <g id="Page-1" stroke="none" stroke-width="1" fill="none" fill-rule="evenodd">
        <g id="点餐页1" transform="translate(-30.000000, -156.000000)">
            <g id="商家信息-copy" transform="translate(0.000000, 128.000000)">
                <g id="Group-5" transform="translate(30.000000, 18.000000)">
                    <g id="默认商户logo" transform="translate(0.000000, 10.000000)">
                        <g>
                            <ellipse id="Oval-6" fill="#E6E6E6" cx="55" cy="55" rx="55" ry="55"></ellipse>
                            <rect id="Rectangle" fill="#F1F1F1" x="0" y="0" width="110" height="110"></rect>
                            <path d="M88.3007812,44.0429688 C88.2874576,43.9577472 88.2743006,43.9315485 88.3007812,43.828125 C88.2479864,43.7481584 88.208515,43.6171654 88.0859375,43.3984375 L82.5,29.21875 C81.4194526,26.3260894 78.6696192,24.4921875 75.1953125,24.4921875 L35.0195312,24.4921875 C31.5672088,24.4921875 28.9357891,26.2867916 27.9296875,29.21875 L21.9140625,43.6132812 C21.791485,43.7219598 21.7520137,43.8398535 21.6992188,44.0429688 C21.2783582,45.346273 21.0546875,46.747898 21.0546875,48.125 C21.0546875,53.1272571 23.7913639,57.6596148 28.1445312,59.9414062 C29.988357,60.9606384 32.1198068,61.4453125 34.5898438,61.4453125 C34.5143986,61.4453125 34.5143986,61.4453125 34.5898438,61.4453125 C38.5404706,61.4322132 42.2639293,59.676907 44.9023437,56.71875 C47.3294119,59.6638077 51.0133993,61.4060146 55,61.4453125 C58.9997577,61.4060146 62.6837451,59.6507084 65.0976562,56.71875 C67.7360707,59.676907 71.4595294,61.4191139 75.4101562,61.4453125 C77.9459787,61.4060146 80.1037428,60.895142 81.8554687,59.9414062 C86.2612645,57.5417211 88.9453125,53.035562 88.9453125,48.125 C88.9453126,46.6955008 88.7084848,45.2807765 88.3007812,44.0429688 L88.3007812,44.0429688 Z M34.158047,46.40625 C33.3125975,46.40625 32.5869456,45.6732997 32.5869456,44.8351486 C32.5869456,43.85417 33.3125975,43.1212198 34.158047,43.1212198 L55.2106252,43.1212198 L76.2632035,43.1212198 C77.1086529,43.1212198 77.8343049,43.85417 77.8343049,44.8351486 C77.8343049,45.6732997 77.0999102,46.40625 76.2632035,46.40625 L34.158047,46.40625 Z M84.0039062,65.9570312 C83.9907407,64.5392252 82.8980035,63.4494363 81.640625,63.3789062 C81.2918113,63.4494363 81.0679977,63.5150863 80.78125,63.59375 L80.78125,63.59375 C79.0141782,64.3160153 76.6970486,64.6967849 74.9804687,64.6679688 C71.0885417,64.3947953 68.1394676,63.6332561 65.3125,61.2304688 C62.5177952,63.6069962 58.9499422,64.9593847 55.2148437,65.0976562 C51.3139468,64.9725147 47.7197628,64.0140258 44.9023437,61.6601562 C42.0849248,64.0271558 38.4775753,65.1957245 34.5898438,65.0976562 L34.5898438,65.0976562 C32.2766204,65.1957245 30.946904,64.749305 28.7890625,64.0234375 C28.7614295,63.9352459 28.6956019,63.9221159 28.5742188,63.8085938 C28.5244503,63.856466 28.4454572,63.8302059 28.359375,63.8085938 C28.3401332,63.790816 27.9846644,63.725166 27.7148438,63.8085938 C27.8003473,63.725166 27.8003473,63.725166 27.7148438,63.8085938 C26.4442998,63.725166 25.3515625,64.8280848 25.3515625,66.171875 L25.3515625,79.2773438 C25.364728,82.6979955 28.182147,85.5078125 31.5820312,85.5078125 L77.7734375,85.5078125 C81.1864872,85.4684226 84.0039062,82.6586056 84.0039062,79.2773438 L84.0039062,65.9570312 L84.0039062,65.9570312 Z" id="Shape-Copy" fill="#C9C9C9"></path>
                        </g>
                    </g>
                </g>
            </g>
        </g>
    </g>
</svg>