<?xml version="1.0" encoding="UTF-8" standalone="no"?>
<svg width="229px" height="86px" viewBox="0 0 229 86" version="1.1" xmlns="http://www.w3.org/2000/svg" xmlns:xlink="http://www.w3.org/1999/xlink">
    <!-- Generator: Sketch 40 (33762) - http://www.bohemiancoding.com/sketch -->
    <title>Group 4</title>
    <desc>Created with Sketch.</desc>
    <defs></defs>
    <g id="Page-1" stroke="none" stroke-width="1" fill="none" fill-rule="evenodd">
        <g id="外卖订单详情" transform="translate(-511.000000, -145.000000)" fill="#FFE700">
            <g id="Group-4" transform="translate(511.000000, 145.000000)">
                <polyline id="Star" points="29.8959514 15.7004142 21.3815824 12.319965 29.8959514 8.93951571 33.2539695 0.368272016 36.6119877 8.93951571 45.1263566 12.319965 36.6119877 15.7004142 33.2539695 24.2716579 29.8959514 15.7004142"></polyline>
                <polyline id="Star-Copy" points="7.77398902 39.9989124 0 36.9124153 7.77398902 33.8259182 10.8400056 26 13.9060222 33.8259182 21.6800112 36.9124153 13.9060222 39.9989124 10.8400056 47.8248306 7.77398902 39.9989124"></polyline>
                <polygon id="Star-Copy-2" transform="translate(214.750000, 71.750000) rotate(45.000000) translate(-214.750000, -71.750000) " points="214.75 77.25 205.027282 81.4727182 209.25 71.75 205.027282 62.0272818 214.75 66.25 224.472718 62.0272818 220.25 71.75 224.472718 81.4727182"></polygon>
            </g>
        </g>
    </g>
</svg>