<?xml version="1.0" encoding="UTF-8" standalone="no"?>
<svg width="55px" height="52px" viewBox="0 0 55 52" version="1.1" xmlns="http://www.w3.org/2000/svg" xmlns:xlink="http://www.w3.org/1999/xlink">
    <!-- Generator: Sketch 40 (33762) - http://www.bohemiancoding.com/sketch -->
    <title>Star_empty</title>
    <desc>Created with Sketch.</desc>
    <defs>
        <path d="M412.523802,163.470609 L399.38591,170.377607 C396.45239,171.91985 394.527731,170.526397 395.088729,167.255523 L397.597843,152.626265 L386.969066,142.265768 C384.595799,139.952404 385.326299,137.691343 388.610443,137.214129 L403.299052,135.079749 L409.867998,121.769611 C411.334758,118.797631 413.710891,118.793672 415.179605,121.769611 L421.748551,135.079749 L436.43716,137.214129 C439.716935,137.690708 440.454966,139.949322 438.078537,142.265768 L427.44976,152.626265 L429.958874,167.255523 C430.519126,170.522045 428.599121,171.921904 425.661693,170.377607 L412.523802,163.470609 Z" id="path-1"></path>
        <mask id="mask-2" maskContentUnits="userSpaceOnUse" maskUnits="objectBoundingBox" x="0" y="0" width="53.8964859" height="51.4669761" fill="white">
            <use xlink:href="#path-1"></use>
        </mask>
    </defs>
    <g id="Page-1" stroke="none" stroke-width="1" fill="none" fill-rule="evenodd">
        <g id="外卖订单详情_结算后_我要评价" transform="translate(-445.000000, -407.000000)" stroke="#CCCCCC" stroke-width="4" fill="#FFFFFF">
            <g id="Group" transform="translate(60.000000, 288.000000)">
                <use id="Star_empty" mask="url(#mask-2)" xlink:href="#path-1"></use>
            </g>
        </g>
    </g>
</svg>