<?xml version="1.0" encoding="UTF-8" standalone="no"?>
<svg width="36px" height="34px" viewBox="0 0 36 34" version="1.1" xmlns="http://www.w3.org/2000/svg" xmlns:xlink="http://www.w3.org/1999/xlink">
    <!-- Generator: Sketch 40 (33762) - http://www.bohemiancoding.com/sketch -->
    <title>设置</title>
    <desc>Created with Sketch.</desc>
    <defs></defs>
    <g id="Page-1" stroke="none" stroke-width="1" fill="none" fill-rule="evenodd">
        <g id="个人中心" transform="translate(-34.000000, -1551.000000)">
            <g id="设置" transform="translate(30.000000, 1546.000000)">
                <rect id="Rectangle-8-Copy-6" x="0" y="0" width="44" height="44"></rect>
                <path d="M39.8659086,19.3376089 C39.7247599,18.5542331 38.9696138,17.7567424 38.186238,17.5803064 L37.6004705,17.4462151 C36.2242698,17.0298261 35.0033327,16.1194164 34.2270143,14.7785028 C33.4506959,13.4305319 33.2672025,11.8990674 33.6059596,10.4946369 L33.6059596,10.4946369 L33.789453,9.94415664 C34.0223486,9.18195315 33.7188787,8.13039464 33.1048814,7.6081441 C33.1048814,7.6081441 32.5544011,7.14235307 31.0017644,6.24605823 C29.4491276,5.35682083 28.7786708,5.10981044 28.7786708,5.10981044 C28.0235248,4.83457029 26.9649088,5.09569556 26.4144285,5.68146305 L26.005097,6.11902432 C24.960596,7.10706588 23.5561655,7.70694825 22.0035287,7.70694825 C20.450892,7.70694825 19.0323466,7.10000844 17.9878455,6.10490944 L17.5926289,5.68146305 C17.049206,5.09569556 15.9835326,4.83457029 15.2283866,5.10981044 C15.2283866,5.10981044 14.5508724,5.35682083 12.9982356,6.24605823 C11.4455989,7.14941051 10.902176,7.61520154 10.902176,7.61520154 C10.2881788,8.13039464 9.98470888,9.17489571 10.2176044,9.94415664 L10.3869829,10.5016944 C10.7186826,11.9061249 10.5422466,13.4305319 9.76592825,14.7785028 C8.98960988,16.1264738 7.75455793,17.043941 6.37129975,17.4532725 L5.80670457,17.5803064 C5.0303862,17.7567424 4.26818271,18.5471757 4.12703391,19.3376089 C4.12703391,19.3376089 4,20.0433529 4,21.8359426 C4,23.6285323 4.12703391,24.3342762 4.12703391,24.3342762 C4.26818271,25.1247095 5.02332876,25.9151427 5.80670457,26.0915787 L6.35718487,26.2186126 L6.35718487,26.2186126 C7.74044305,26.6279441 8.98255244,27.5454113 9.75887081,28.9004397 C10.5351892,30.2484107 10.7186826,31.7798751 10.3799255,33.1843056 L10.3799255,33.1843056 L10.2176044,33.7277285 C9.98470888,34.489932 10.2881788,35.5414905 10.902176,36.063741 C10.902176,36.063741 11.4526563,36.5295321 13.0052931,37.4258269 C14.5579298,38.3221217 15.2283866,38.5620747 15.2283866,38.5620747 C15.9835326,38.8373148 17.0421486,38.5761896 17.5926289,37.9904221 L17.9807881,37.5740331 C19.0323466,36.5789341 20.4438345,35.9719943 22.0035287,35.9719943 C23.5632229,35.9719943 24.9817683,36.5859916 26.0262694,37.5810906 L26.0262694,37.5810906 L26.4144285,37.9974795 C26.9578514,38.583247 28.0235248,38.8443723 28.7786708,38.5691321 C28.7786708,38.5691321 29.4561851,38.3221217 31.0088218,37.4328843 C32.5614585,36.5365895 33.1048814,36.0707985 33.1048814,36.0707985 C33.7188787,35.5556054 34.0223486,34.5040469 33.789453,33.7347859 L33.6200745,33.1701908 C33.2883748,31.7728177 33.4648108,30.2484107 34.2411292,28.9074972 C35.0174476,27.5595262 36.2595569,26.6350016 37.6428151,26.2256701 L37.6428151,26.2256701 L38.1932954,26.0986362 C38.9696138,25.9222002 39.7318173,25.1317669 39.8729661,24.3413337 C39.8729661,24.3413337 40,23.6355897 40,21.843 C39.9929426,20.0433529 39.8659086,19.3376089 39.8659086,19.3376089 L39.8659086,19.3376089 L39.8659086,19.3376089 Z M22.0035287,29.0133588 C18.044305,29.0133588 14.8261125,25.8022237 14.8261125,21.8359426 C14.8261125,17.8767189 18.0372476,14.6655838 22.0035287,14.6655838 C25.9627524,14.6655838 29.1809449,17.8767189 29.1809449,21.843 C29.1738875,25.8022237 25.9627524,29.0133588 22.0035287,29.0133588 L22.0035287,29.0133588 L22.0035287,29.0133588 Z" id="Shape" fill="#835AD3"></path>
            </g>
        </g>
    </g>
</svg>