<svg width="436" height="170" viewBox="0 0 436 170" xmlns="http://www.w3.org/2000/svg" xmlns:xlink="http://www.w3.org/1999/xlink"><title>干了杯</title><defs><linearGradient x1="79.3%" y1="-81.5%" x2="15.5%" y2="100%" id="c"><stop stop-color="#FFC334" offset="0%"/><stop stop-color="#FF7E28" offset="100%"/></linearGradient><path d="M31.4 31.8V.8H.4v32c0 8.6 7 15.5 15.5 15.5s15.4-7 15.4-15.5v-1z" id="a"/><mask id="d" x="0" y="0" width="31" height="47.4" fill="#fff"><use xlink:href="#a"/></mask><ellipse id="e" cx="83" cy="83" rx="83" ry="83"/><path d="M109.6 163.4l3.4-1m6.6-2.2c2.8-1 5.6-2.4 8.2-3.8C154 142.4 172 114.8 172 83c0-45.8-37.2-83-83-83S6 37.2 6 83s37.2 83 83 83c3.8 0 7.6-.3 11.3-.8" id="g"/><path d="M79 17c-13.5 2-25.7 8-35.4 17m-5.8 6L36 42" id="h"/><path d="M33.5 18.5V0H.2v20.6c.3 9 7.7 16 16.7 16S33.5 29.3 33.5 20v-1.5z" id="b"/><mask id="i" x="0" y="0" width="33.4" height="36.7" fill="#fff"><use xlink:href="#b"/></mask><ellipse id="j" cx="83" cy="83" rx="83" ry="83"/><path d="M136.6 196.4l3.4-1m6.6-2.2c2.8-1 5.6-2.4 8.2-3.8 26.3-14 44.2-41.6 44.2-73.4 0-45.8-37.2-83-83-83-5.6 0-11 .6-16.3 1.6m-4.6 1C59.5 45 33 77.5 33 116c0 45.8 37.2 83 83 83 3.8 0 7.6-.3 11.3-.8" id="l"/><path d="M339.4 58c-13.5 2-25.7 8.2-35.4 17m-5.8 6l-1.8 2" id="m"/></defs><g fill="none" fill-rule="evenodd"><g transform="translate(1 -31)"><g transform="translate(0 33)"><g transform="rotate(10 -180.08 1102.71)"><path d="M29.2 17.8h.8v15.7c0 8-6.5 14.5-14.5 14.5S1 41.5 1 33.5V33h28.2V17.8z" fill="url(#c)"/><use stroke="#81542C" mask="url(#d)" stroke-width="6" xlink:href="#a"/><path fill="#81542C" d="M14 47h3v24h-3z"/><rect fill="#81542C" x="4" y="69" width="23" height="3" rx="1.5"/></g><mask id="f" fill="#fff"><use xlink:href="#e"/></mask><use fill="#FFD24C" xlink:href="#e"/><ellipse fill="#FFE74C" mask="url(#f)" cx="69" cy="83" rx="83" ry="83"/><g transform="rotate(170 76.182 57.978)"><path d="M46.3 29.7c1.5-2.4 4.5-3.5 7.2-2.5 2.8 1 4.4 3.8 4 6.6" stroke="#6D441F" stroke-width="3" stroke-linecap="round"/><ellipse fill="#6D441F" transform="matrix(1 0 0 -1 0 53.56)" cx="23.7" cy="26.8" rx="7.8" ry="7.8"/><ellipse fill="#6D441F" transform="matrix(1 0 0 -1 0 92.708)" cx="76.8" cy="46.4" rx="7.8" ry="7.8"/><ellipse fill="#FF5700" opacity=".7" transform="matrix(1 0 0 -1 0 63.96)" cx="106.8" cy="32" rx="13.2" ry="13.2"/><ellipse fill="#FF5700" opacity=".7" transform="matrix(1 0 0 -1 0 -2.773)" cx="20" cy="-1.4" rx="13.2" ry="13.2"/></g><use stroke="#81542C" stroke-width="3" stroke-linecap="round" xlink:href="#g"/><use stroke="#FFF" stroke-width="5" stroke-linecap="round" xlink:href="#h"/><path d="M165.6 114.7c11.2 2.2 23-2.8 29.2-13.3M1 85.7c7.6 13.2 24.4 17.7 37.5 10" stroke="#81542C" stroke-width="3" stroke-linecap="round"/></g><g transform="matrix(-1 0 0 1 462 0)"><g transform="rotate(10 -359.892 1260.586)"><path d="M31.4 6h.8v15c0 8.4-6.8 15.2-15 15.2h-1c-8.2 0-15-6.7-15-15h30.2V6z" fill="url(#c)"/><path fill="#81542C" d="M16 35h3v34h-3z"/><rect fill="#81542C" x="6" y="67" width="23" height="3" rx="1.5"/><use stroke="#81542C" mask="url(#i)" stroke-width="6" xlink:href="#b"/></g><g transform="translate(27 33)"><mask id="k" fill="#fff"><use xlink:href="#j"/></mask><use fill="#FFD24C" xlink:href="#j"/><ellipse fill="#FFE74C" mask="url(#k)" cx="106" cy="83" rx="83" ry="83"/></g><g transform="rotate(-10 663.47 -348.24)"><path d="M65 13c-1 3.4-4 6-8 6s-7-2.6-8-6h16z" stroke="#6D441F" stroke-width="2" stroke-linecap="round" stroke-linejoin="round" fill="#FFF"/><ellipse fill="#6D441F" transform="matrix(1 0 0 -1 0 14.525)" cx="28.2" cy="7.3" rx="7" ry="7"/><ellipse fill="#6D441F" transform="matrix(1 0 0 -1 0 14.28)" cx="84.8" cy="7.1" rx="7" ry="7"/><ellipse fill="#FF5700" opacity=".7" transform="matrix(1 0 0 -1 0 55.47)" cx="100.6" cy="27.7" rx="13.2" ry="8.4"/><ellipse fill="#FF5700" opacity=".7" transform="matrix(1 0 0 -1 0 52.395)" cx="13.2" cy="26.2" rx="13.2" ry="8.4"/></g><use stroke="#81542C" stroke-width="3" stroke-linecap="round" transform="rotate(-125 116 116)" xlink:href="#l"/><path d="M194.7 143c11.6 1.5 23.3-4.6 28.4-15.7M37.8 119C35 134 45 148.2 60 151" stroke="#81542C" stroke-width="3" stroke-linecap="round"/></g><use stroke="#FFF" stroke-width="5" stroke-linecap="round" transform="rotate(-22 323.045 125.636)" xlink:href="#m"/><path d="M207.5 74.5l3 5M229.5 74.5l-3 5M218.5 73.5v6" stroke="#81542C" stroke-width="3" stroke-linecap="round"/></g><path d="M-22-31h480v224H-22z"/></g></svg>