<?xml version="1.0" encoding="UTF-8" standalone="no"?>
<svg width="48px" height="48px" viewBox="0 0 48 48" version="1.1" xmlns="http://www.w3.org/2000/svg" xmlns:xlink="http://www.w3.org/1999/xlink">
    <!-- Generator: Sketch 40 (33762) - http://www.bohemiancoding.com/sketch -->
    <title>警示</title>
    <desc>Created with Sketch.</desc>
    <defs></defs>
    <g id="Page-1" stroke="none" stroke-width="1" fill="none" fill-rule="evenodd">
        <g id="用户设置_错误提示2" transform="translate(-672.000000, -195.000000)" fill="#FF5757">
            <g id="警示" transform="translate(672.000000, 195.000000)">
                <g id="Group">
                    <path d="M24,0 C10.745,0 0,10.745 0,24 C0,37.255 10.745,48 24,48 C37.255,48 48,37.255 48,24 C48,10.745 37.255,0 24,0 L24,0 Z M21.932,12.444 C21.932,11.284 22.858,10.343 24,10.343 C25.142,10.343 26.068,11.284 26.068,12.444 L26.068,27.152 C26.068,28.312 25.142,29.253 24,29.253 C22.858,29.253 21.932,28.312 21.932,27.152 L21.932,12.444 L21.932,12.444 Z M24,37.657 C22.287,37.657 20.898,36.246 20.898,34.506 C20.898,32.766 22.287,31.354 24,31.354 C25.714,31.354 27.102,32.765 27.102,34.506 C27.102,36.246 25.714,37.657 24,37.657 L24,37.657 Z" id="Shape"></path>
                </g>
            </g>
        </g>
    </g>
</svg>