<?xml version="1.0" encoding="UTF-8" standalone="no"?>
<svg width="30px" height="37px" viewBox="0 0 30 37" version="1.1" xmlns="http://www.w3.org/2000/svg" xmlns:xlink="http://www.w3.org/1999/xlink">
    <!-- Generator: Sketch 40 (33762) - http://www.bohemiancoding.com/sketch -->
    <title>Group 5</title>
    <desc>Created with Sketch.</desc>
    <defs></defs>
    <g id="Page-1" stroke="none" stroke-width="1" fill="none" fill-rule="evenodd">
        <g id="个人中心_会员卡" transform="translate(-37.000000, -785.000000)">
            <g id="Group-5" transform="translate(30.000000, 781.000000)">
                <rect id="Rectangle-8" x="0" y="0" width="44" height="44"></rect>
                <path d="M12.4909627,26.9252757 C12.4909627,32.5314771 16.7234395,37.0762014 21.9444642,37.0762014 C27.1654889,37.0762014 31.3979657,32.5314771 31.3979657,26.9252757 C31.3979657,21.3190743 27.1654889,16.7743501 21.9444642,16.7743501 C16.7234395,16.7743501 12.4909627,21.3190743 12.4909627,26.9252757 L12.4909627,26.9252757 Z M21.5951323,12.27849 C13.6639598,12.27849 7.23445477,18.7079433 7.23445477,26.6393225 C7.23445477,34.57034 13.6639081,41 21.5951323,41 C29.5263565,41 35.9559648,34.57034 35.9559648,26.6393225 C35.9559648,18.7079433 29.5263048,12.27849 21.5951323,12.27849 L21.5951323,12.27849 L21.5951323,12.27849 Z M28.979347,25.3584732 L26.1477078,28.1185208 L26.8161544,32.015718 C27.0407434,33.3239952 26.2933704,33.8962116 25.0950632,33.2662984 L21.5951323,31.4261461 L18.0952014,33.2662984 C16.9202932,33.8839181 16.1452856,33.3500285 16.3742652,32.015718 L17.0425568,28.1185208 L14.2110725,25.3584732 C13.2605467,24.4319145 13.5288861,23.5298396 14.8684653,23.3353129 L18.7814168,22.7665057 L20.5315888,19.2207583 C21.1189396,18.0303024 22.0598063,18.0069034 22.6588824,19.2207583 L24.4090544,22.7665057 L28.3220059,23.3353129 C29.6355001,23.5260173 29.948623,24.4135776 28.979347,25.3584732 L28.979347,25.3584732 L28.979347,25.3584732 Z M35.0197469,4 L26.1404246,4 C25.6614427,4 25.2772447,4.33559214 25.1644337,4.77965639 L22.4272169,10.1766616 C22.4272169,10.1766616 28.2880696,10.529351 31.7500352,13.8630096 L35.8381434,5.61318726 C35.9594255,5.44490048 36.0455834,5.24918576 36.0455834,5.02583648 C36.0455317,4.45925038 35.5863331,4 35.0197469,4 L35.0197469,4 L35.0197469,4 Z M20.6183149,10.1766616 L17.8810981,4.77965639 C17.7683387,4.33559214 17.3841407,4 16.9051588,4 L8.02578482,4 C7.45925034,4 7,4.45925038 7,5.02583648 C7,5.24918576 7.08636449,5.44490048 7.20744004,5.61339389 L11.2957031,13.8630096 C14.7575138,10.529351 20.6183149,10.1766616 20.6183149,10.1766616 L20.6183149,10.1766616 L20.6183149,10.1766616 Z" id="Shape" fill="#835AD3"></path>
            </g>
        </g>
    </g>
</svg>