<?xml version="1.0" encoding="UTF-8" standalone="no"?>
<svg width="32px" height="34px" viewBox="0 0 32 34" version="1.1" xmlns="http://www.w3.org/2000/svg" xmlns:xlink="http://www.w3.org/1999/xlink">
    <!-- Generator: Sketch 40 (33762) - http://www.bohemiancoding.com/sketch -->
    <title>Group 2 Copy 4</title>
    <desc>Created with Sketch.</desc>
    <defs></defs>
    <g id="Page-1" stroke="none" stroke-width="1" fill="none" fill-rule="evenodd">
        <g id="个人中心_会员卡" transform="translate(-36.000000, -909.000000)">
            <g id="Group-2-Copy-4" transform="translate(30.000000, 904.000000)">
                <rect id="Rectangle-8" x="0" y="0" width="44" height="44"></rect>
                <path d="M6,13.0603941 C5.99999992,15.9400956 9.02733318,18.6010495 13.9416326,20.0409003 C18.8559321,21.4807511 24.9105987,21.4807511 29.8248982,20.0409003 C34.7391977,18.6010495 37.7665309,15.9400956 37.7665308,13.0603941 C37.7665308,8.60876137 30.6553507,5 21.8832654,5 C13.1111802,5 6,8.60876137 6,13.0603941 L6,13.0603941 Z M21.8832654,23.5457902 C15.3954763,23.5457902 9.81642068,21.5717433 7.35064215,18.7427081 C6.48247383,19.7387828 6,20.8407827 6,22.0000201 C6,26.4516503 13.1111843,30.0604142 21.8832654,30.0604142 C30.6553465,30.0604142 37.7665308,26.4516503 37.7665308,22.0000201 C37.7665308,20.8407828 37.2840977,19.7387828 36.4158887,18.7427081 C33.9501102,21.5717433 28.3710546,23.5457902 21.8832654,23.5457902 L21.8832654,23.5457902 Z M21.8832654,32.7076625 C15.3108096,32.7076625 9.67086558,30.6817969 7.25557003,27.7934371 C6.44723334,28.7600904 6.00000004,29.8233568 6.00000004,30.9396059 C6.00000004,35.3912362 13.1111844,39 21.8832655,39 C30.6553466,39 37.7665309,35.3912361 37.7665309,30.9396059 C37.7665309,29.8233166 37.3192976,28.7600904 36.5109609,27.7934371 C34.0956653,30.6817968 28.4557212,32.7076625 21.8832654,32.7076625 L21.8832654,32.7076625 Z" id="Shape" fill="#429BFF"></path>
            </g>
        </g>
    </g>
</svg>