<?xml version="1.0" encoding="UTF-8" standalone="no"?>
<svg width="36px" height="36px" viewBox="0 0 36 36" version="1.1" xmlns="http://www.w3.org/2000/svg" xmlns:xlink="http://www.w3.org/1999/xlink">
    <!-- Generator: Sketch 40 (33762) - http://www.bohemiancoding.com/sketch -->
    <title>Group 2</title>
    <desc>Created with Sketch.</desc>
    <defs></defs>
    <g id="Page-1" stroke="none" stroke-width="1" fill="none" fill-rule="evenodd">
        <g id="个人中心_会员卡" transform="translate(-34.000000, -1029.000000)">
            <g id="Group-2" transform="translate(30.000000, 1025.000000)">
                <rect id="Rectangle-8" x="0" y="0" width="44" height="44"></rect>
                <path d="M22.0000206,40 C12.0591384,40 4,31.9411503 4,22.0000206 C4,12.0590147 12.0591384,4 22.0000206,4 C31.9411915,4 40,12.0589734 40,22.0000206 C40,31.9411503 31.9411915,40 22.0000206,40 L22.0000206,40 Z M22.4000294,13.2000352 C21.4396126,13.2000352 20.6661497,13.9711478 20.6661497,14.9294616 C20.6661497,15.7239949 21.2051987,16.3781685 21.9315314,16.5885844 L17.7133177,23.973221 L13.0031441,19.8601947 C13.4250067,19.6031846 13.7059735,19.1588909 13.7059735,18.645077 C13.7059735,17.8502963 13.0499856,17.2195435 12.2531432,17.2195435 C11.4563008,17.2195435 10.8000243,17.8502551 10.8000243,18.645077 C10.8000243,19.4396103 11.4563008,20.0703219 12.2531432,20.0703219 C12.4640951,20.0703219 12.651585,20.0237278 12.8390749,19.9536304 L15.2192937,30.5385003 L29.5810123,30.5385003 L32.2659073,20.0702807 L27.6026165,24.0431947 L22.7281264,16.6117578 C23.52501,16.4482247 24.1344038,15.7705891 24.1344038,14.9294616 C24.1344038,13.9711478 23.3609821,13.2000352 22.4000294,13.2000352 Z M32.5474102,17.2195847 C31.7505678,17.2195847 31.0942913,17.8502963 31.0942913,18.6451182 C31.0942913,19.4396515 31.7505678,20.0703632 32.5474102,20.0703632 C33.3440052,20.0703632 34.0000344,19.4393629 34.0000344,18.6451182 C33.9999931,17.8502962 33.3440053,17.2195847 32.5474102,17.2195847 L32.5474102,17.2195847 Z" id="Shape" fill="#FFC334"></path>
            </g>
        </g>
    </g>
</svg>