<?xml version="1.0" encoding="UTF-8" standalone="no"?>
<svg width="36px" height="35px" viewBox="0 0 36 35" version="1.1" xmlns="http://www.w3.org/2000/svg" xmlns:xlink="http://www.w3.org/1999/xlink">
    <!-- Generator: Sketch 40 (33762) - http://www.bohemiancoding.com/sketch -->
    <title>Group 3</title>
    <desc>Created with Sketch.</desc>
    <defs></defs>
    <g id="Page-1" stroke="none" stroke-width="1" fill="none" fill-rule="evenodd">
        <g id="个人中心_会员卡" transform="translate(-34.000000, -665.000000)">
            <g id="Group-3" transform="translate(30.000000, 661.000000)">
                <rect id="Rectangle-3" x="0" y="0" width="44" height="44"></rect>
                <path d="M21.5500004,4.09713029 C11.8750139,4.09713029 4.0353092,11.8966314 4.0353092,21.5220026 C4.0353092,31.1473738 11.875014,38.9468749 21.5500004,38.9468749 C31.2249869,38.9468749 39.0646917,31.1473738 39.0646917,21.5220026 C39.0646917,11.8966314 31.2249869,4.09713029 21.5500004,4.09713029 L21.5500004,4.09713029 L21.5500004,4.09713029 L21.5500004,4.09713029 Z M27.3309231,23.7027842 C28.1088762,23.7027842 28.7449926,24.3356384 28.7449926,25.1096021 C28.7449926,25.8835657 28.1088762,26.51642 27.3309231,26.51642 L22.96407,26.51642 L22.96407,30.1425039 C22.96407,30.9164675 22.3279536,31.5493218 21.5500004,31.5493218 C20.7720473,31.5493218 20.1359309,30.9164675 20.1359309,30.1425039 L20.1359309,26.51642 L15.7733759,26.51642 C14.9954227,26.51642 14.3593063,25.8835657 14.3593063,25.1096021 C14.3593063,24.3356384 14.9954227,23.7027842 15.7733759,23.7027842 L20.140229,23.7027842 L20.140229,21.6246276 L15.7733759,21.6246276 C14.9954227,21.6246276 14.3593063,20.9917733 14.3593063,20.2178097 C14.3593063,19.4438461 14.9954227,18.8109918 15.7733759,18.8109918 L18.910977,18.8109918 L15.1157691,14.4066683 C14.6128933,13.8208504 14.6816626,12.9271576 15.2705001,12.4268607 L15.2705001,12.4268607 C15.8593375,11.9222877 16.757637,11.9949804 17.2605128,12.5807982 L21.5542985,17.5581114 L25.8480842,12.5807982 C26.3552581,11.9949804 27.2492595,11.9265637 27.838097,12.4268607 L27.838097,12.4268607 C28.4269345,12.9314336 28.4957038,13.8208504 27.992828,14.4066683 L24.19762,18.8109918 L27.3352211,18.8109918 C28.1131743,18.8109918 28.7492907,19.4438461 28.7492907,20.2178097 C28.7492907,20.9917734 28.1131743,21.6246276 27.3352211,21.6246276 L22.96407,21.6246276 L22.96407,23.7027842 L27.3309231,23.7027842 L27.3309231,23.7027842 L27.3309231,23.7027842 Z" id="Shape" fill="#FF8738"></path>
            </g>
        </g>
    </g>
</svg>