<?xml version="1.0" encoding="UTF-8" standalone="no"?>
<svg width="53px" height="32px" viewBox="0 0 53 32" version="1.1" xmlns="http://www.w3.org/2000/svg" xmlns:xlink="http://www.w3.org/1999/xlink">
    <!-- Generator: Sketch 40 (33762) - http://www.bohemiancoding.com/sketch -->
    <title>微信卡券</title>
    <desc>Created with Sketch.</desc>
    <defs></defs>
    <g id="Page-1" stroke="none" stroke-width="1" fill="none" fill-rule="evenodd">
        <g id="下单页_选择优惠券" transform="translate(-359.000000, -1845.000000)" fill="#FFFFFF">
            <g id="微信卡券_代金券" transform="translate(30.000000, 1775.000000)">
                <path d="M329,86 C329,77.163444 336.16159,70 345.009588,70 L365.990412,70 C374.832263,70 382,77.1615011 382,86 C382,94.836556 374.83841,102 365.990412,102 L345.009588,102 C336.167737,102 329,94.8384989 329,86 Z M361.038525,80.9451201 C361.395009,80.9451201 361.747786,80.9710279 362.09755,81.0107698 C361.145777,76.5122857 356.407881,73.1699376 350.999433,73.1699376 C344.952745,73.1699376 340,77.3526994 340,82.6648315 C340,85.7322133 341.647787,88.2489959 344.401446,90.2024934 L343.30132,93.5609654 L347.146531,91.6040237 C348.522355,91.8800073 349.626374,92.164662 350.999373,92.164662 C351.344554,92.164662 351.68669,92.1471668 352.02625,92.1201715 C351.811432,91.3741857 351.686721,90.5924729 351.686721,89.7806745 C351.686781,84.9030474 355.813405,80.9451201 361.038525,80.9451201 Z M355.046751,77.6912426 C355.985936,77.6912426 356.747252,78.4640643 356.747252,79.4174214 C356.747252,80.3707784 355.985933,81.1435683 355.046751,81.1435683 C354.107503,81.1435683 353.346186,80.3707466 353.346186,79.4174214 C353.346186,78.4640962 354.107566,77.6912426 355.046751,77.6912426 Z M347.350831,81.1783704 C346.411646,81.1783704 345.650266,80.4055487 345.650266,79.4522235 C345.650266,78.4988983 346.411649,77.7260766 347.350831,77.7260766 C348.290079,77.7260766 349.051427,78.4988983 349.051427,79.4522235 C349.051427,80.4055168 348.290079,81.1783704 347.350831,81.1783704 Z M371,89.6828727 C371,85.2191237 366.599654,81.5805256 361.657204,81.5805256 C356.42364,81.5805256 352.301851,85.2191237 352.301851,89.6828727 C352.301851,94.1543329 356.42364,97.7849967 361.657204,97.7849967 C362.752432,97.7849967 363.857393,97.5043602 364.957519,97.2244541 L367.974692,98.9018723 L367.147252,96.1116859 C369.355198,94.4303803 371,92.200896 371,89.6828727 Z M358.783045,88.4315404 C358.114223,88.4315404 357.572088,87.8811326 357.572088,87.2022922 C357.572088,86.523388 358.114255,85.9731078 358.783045,85.9731078 C359.451835,85.9731078 359.994001,86.5234199 359.994001,87.2022922 C359.994067,87.8811645 359.451838,88.4315404 358.783045,88.4315404 Z M364.829795,88.501269 C364.160911,88.501269 363.618808,87.9508931 363.618808,87.2720845 C363.618808,86.5931485 364.160943,86.0429001 364.829795,86.0429001 C365.498585,86.0429001 366.040752,86.5931803 366.040752,87.2720845 C366.040786,87.9508931 365.498589,88.501269 364.829795,88.501269 Z" id="微信卡券"></path>
            </g>
        </g>
    </g>
</svg>