<?xml version="1.0" encoding="UTF-8" standalone="no"?>
<svg width="36px" height="27px" viewBox="0 0 36 27" version="1.1" xmlns="http://www.w3.org/2000/svg" xmlns:xlink="http://www.w3.org/1999/xlink">
    <!-- Generator: Sketch 40 (33762) - http://www.bohemiancoding.com/sketch -->
    <title>优惠券</title>
    <desc>Created with Sketch.</desc>
    <defs></defs>
    <g id="Page-1" stroke="none" stroke-width="1" fill="none" fill-rule="evenodd">
        <g id="个人中心" transform="translate(-34.000000, -1164.000000)">
            <g id="优惠券" transform="translate(30.000000, 1156.000000)">
                <rect id="Rectangle-8-Copy-3" x="0" y="0" width="44" height="44"></rect>
                <path d="M38.9998815,17.7899208 C39.9725641,17.2154331 40,16.7755145 40,16.0099115 L40,10.66984 C40,9.19528893 38.6567402,8 36.9996005,8 L6.99984972,8 C5.34313885,8 4,9.19529981 4,10.66984 L4,16.0099115 C4,16.8075936 4.06229433,17.3393454 5.00006352,17.7899208 C6.36586582,18.3561984 7.99974829,19.5000086 7.99974829,21.3501461 C7.99974829,23.751011 6.30438522,24.5318924 5.05905897,24.9061848 C4.18198966,25.3943308 4,26.1984831 4,26.6899458 L4,32.0300172 C4,33.5050576 5.34320482,34.7002922 6.99984972,34.7002922 L36.9998093,34.7002922 C38.6567292,34.7002922 39.9999889,33.5050468 39.9999889,32.0300172 L39.9999889,26.6899458 C39.9999889,25.7180035 39.7488871,25.4097179 39.0000353,24.9099364 C36.8155544,23.9079811 35.9998557,23.0158016 35.9998557,21.3501461 C35.9998668,19.6839904 36.7637726,18.8552078 38.9998815,17.7899208 L38.9998815,17.7899208 Z M27.9998094,20.9051166 C27.9998094,21.1506576 27.7761435,21.3501461 27.4998051,21.3501461 L22.9997777,21.3501461 L22.9997777,23.1301011 L27.4998051,23.1301011 C27.7761436,23.1301011 27.9998094,23.3293721 27.9998094,23.575185 L27.9998094,24.4651353 C27.9998094,24.7108938 27.7761435,24.9102192 27.4998051,24.9102192 L22.9997777,24.9102192 L22.9997777,28.0254149 C22.9997777,28.2708472 22.7761118,28.4701726 22.4998284,28.4701726 L21.4997098,28.4701726 C21.2238663,28.4701726 20.9997606,28.2708472 20.9997606,28.0254149 L20.9997606,24.9102192 L16.499843,24.9102192 C16.2235596,24.9102192 15.9998388,24.7108938 15.9998388,24.4651353 L15.9998388,23.575185 C15.9998388,23.3293721 16.2235596,23.1301011 16.499843,23.1301011 L20.9997606,23.1301011 L20.9997606,21.3501461 L16.499843,21.3501461 C16.2235596,21.3501461 15.9998388,21.1506576 15.9998388,20.9051166 L15.9998387,20.0148401 C15.9998387,19.7692991 16.2235595,19.5698106 16.499843,19.5698106 L20.2858221,19.5698106 L16.1756154,15.6400776 C15.9998386,15.4690254 15.9998386,15.191514 16.1756154,15.0204073 L16.8121944,14.4010089 C16.9876412,14.2298479 17.2727217,14.2298479 17.4484435,14.4010089 L21.9951505,18.7481508 L26.5397682,14.4022595 C26.7168645,14.2298479 27.0039244,14.2298479 27.1812406,14.4022595 L27.822713,15.0266601 C27.9998093,15.1993435 27.9998093,15.4787578 27.822713,15.6512238 L23.7244923,19.569865 L27.499805,19.569865 C27.7758685,19.569865 27.9998092,19.7692991 27.9998092,20.0148945 L27.9998094,20.9051166 L27.9998094,20.9051166 L27.9998094,20.9051166 Z" id="Shape" fill="#FF9C34"></path>
            </g>
        </g>
    </g>
</svg>